<mxfile host="app.diagrams.net" modified="2021-03-11T13:23:24.635Z" agent="5.0 (Windows NT 10.0; WOW64) AppleWebKit/537.36 (KHTML, like Gecko) Chrome/88.0.4324.190 Safari/537.36" etag="Js0gRY_c6Vq7q-1dgzL_" version="14.4.2" type="github">
  <diagram id="SyRvYKCuUlZWcbp09nOY" name="Page-1">
    <mxGraphModel dx="1426" dy="593" grid="0" gridSize="10" guides="1" tooltips="1" connect="1" arrows="1" fold="1" page="0" pageScale="1" pageWidth="850" pageHeight="1100" math="0" shadow="0">
      <root>
        <mxCell id="0" />
        <mxCell id="1" parent="0" />
        <mxCell id="Ez7FeFpJxv9Nc_yo7gzA-7" value="" style="shape=image;verticalLabelPosition=bottom;labelBackgroundColor=#ffffff;verticalAlign=top;aspect=fixed;imageAspect=0;image=data:image/png,iVBORw0KGgoAAAANSUhEUgAAAG0AAACICAYAAADtcWVnAAAgAElEQVR4Aey9B1BVa7aube/uPud2nXvOPbf+v/5b99SJnXvH3lm3mDDnnLOiIOas5JxBkuQgRgwoigmRDIKgZAyoIKKiqATJ8flrfIulS0W37tBbT22qlnO6WMw15/fMMcb7ju9b0Iufv965Eej1zp3xzyfMz9DewZvgZ2g/Q3sHR+AdPOV3MtI62tupfvSIzo72d3DIv/8pvxvQujp59OgRZTfL2B99Ap+IQ/jticZnxwGOnErgRmmZ+n5nZ8f3H5F34AhvNbR79+6RU1BEXFI6nuEHcAuP4mDqZWKLqjhz6SGxxQ84klGC565jeIQdIDYpg4t5BZSV3XwHhv67n+JbB62utpazSSlEHT/FjsOxeO49xc64HFJKG0grbyGtrIm0skZSyxqfbsub1ff3JRbhses4wQdPEX06gWOnYrl9u+K7j85b+pM/ObSuLmhtbSE3v4CwyMME7j1K+PF0wk9lc7rwPll3Ozl3q4WUGw2k3Kh/+aO0gXPlLer1idfq2BWfT9jJTCKizxK65xBnziby6FE1XfKG7/jXTw7t/v0HWHuF4rA7joPnyzlbfJ/s261k3WlXUfVKUC+BmFraSPadNgqrIOlqLeEp11gbfpYNroG0tjS/48j46c11xc0y5loFoe+ZzbKom7glVrI/9xEpNx6TVd5IelkDqaWviLBucKk36kkrbSCzvJGLt1uIu/oYr8RSFu48z/vW0fRa7M9EU2862lp/hvZ9R+B2+U0W2YXR1+08/b0L6O+dy4SQIowPXsM98TZHi2pIK6vnXFmDeqQ9B1CgZpY3qYdAi8iqxHBPFl84HON/rY6g10Jfei3xo9fi7Uy33P4CtK7ODurrH3OxoIjq6mo63gEb8ZOnRy20fu7nGeJXyODt+Qz0zkPPK5ch2/MVwJVR1wlIv8epy3Uk36jnfHkj58ubuFChqXVReVWYH79EH+cY/t91O3nPMFDBem9pAH+3LIhfLwuil4EfM6wD1D3W1trK3cp7FF6+Sui+I3hHRBEek6pshLv/DtIys9X3Hz18+H3vyR/l5986aAJK+9D3zWOAdx4DffLQ981nctglth4vI/x8FQfzqnA+U8LkoBT+ZeMefimglvirx6+MAhUsAfarZcH0WhZKrwU+jFxlzblzGRyLT8M15AABhxM5mXeHs1eqSbr+mPgrNcpO7Im7iFtYFAG7D5OSkUXWhRwePnjwowD4Lgf9waDlFhRxIPoEBYXFb3QeupGmv72Qwb5PoWnhyVaeH+STR3/vPIb5FfCNWwICp9ei7UhEPQ9KRdvSAH6z0I3fL7Jl8CZvrAIP4rXnFIfOXSO9vEU9xDqklkrd7H6IlbjZREZFGwlXqgmJScdn32n2HI3j4LHTJKdnUv/48Rtd4w/94u8ETdpIdXV1XC25xo7IKPx2HiIiJpU9CQXsOJaI386D7Dp4jOs3yqitraX9FcVfC62/+3mGBxQ9gSaAdKFp94f6FSAR+O+mx/jFEv8nESVRpR7GwfyjoQ+fGNkzYbMHm/0PERmfS+zFm2Te0liCdPF1L1Geus+LCs283cb5Ox2czK9k19k8IuNz2Hn4NKG7D5GZnUN7+9++lfZG0G7fuUNB8SWOx6WwLfwg3ntiOHyuhJMF90i69pjM2+2IRzqRd5dj2Tfx3x+LS8BuDp+MJ7+oWLWbup4r9AJtoW0oAs32TAVmJ8ro65nLyIAClRYlsqTO6UKT/d9ZHOeXhpqapQUmqfB/LPWl3wonzPekcSj7Duk3HlNwv0PZCIkmXShvsp9V0ULRA0i/2UJQ8g2W7Ehn/Bo7Sq+X/NCB9K3H+1Zo9+/f5/TZBA5EnyQsKg73XcdVK0mlFdWdkA5Fk0ovMggyMJJe1HNljcoUR6WX4LX3FL67jxEdm8zp+GSuXr2qTu7R/UoF7UvnczjF3yblei2DfPPYcf4eSyOvMn3HJRV9El0SfRJpL4P2a4Fm4MlnKzwZEniFKeFX2Hj0JttTKzlWVE1meQOZNxuUNfg2GyHfF2UqgkcsxNHCR5jHFDF2eyL/tmU/vZYG8/6cjdx8W6B1dnaSdv4CoXsPszM6jpDoJHacvkDC1VrO3+0k/ebrpRd1J5c2qNdLihHldyD1CjtPnWd3TBIRh04QsScSI+ddfOmUwbKD10m6XoP9mXLybjdgcbKMy/cbWXP4uoo6sQLaiOsp0nShDQsoVpAlagX4jIjLbDxWStC5e5y5WqeAZNzU2AgtQPF658o0ylRsxNmrdXglljMlMIm/WB7iV0ZBStD8Yqm/EjefzN9M+Y1rL0SGlI+GhnrKym/R2NhIe1vbC6/5Pk/0GGkPq+6zziUU47A0dpy7Q+rNFnLvdXD+lkTUtxvdntKO+KycO61k3+kgtqQe+9Ml9Dbfw9TVFqzy2EMf10ymhF/mUP4DLlbUs/fifVYcukZzeyf+aXdwTagg93Y9MyMuK0X5OtC0gEV5SpoVDzjcP18dw+xkObsuPODMlVrl/y5UNHOhopWzVx8Tlnkb430X+dD6MP+4KpxeBv7K5/3K8KkqFUUq0O5VlKvxb2tt4VZFBcWXr7L3aCweofsJPXwWz/CDhOyNQoTazfJbCub3ASY/2yO0qso7GDmEoOeRzeiQyxgfvI574h0O5j1CzG32re5OxbcUczG74qku3m5VHQrvpFIW7crkTxaH+IVRML808GXaeltWe+xBzy2TAb4F7Mi6p65p8/EKVh0t53p1O0eLqrlY0UBFTQvGB64pD/cm0LTwpDZKihULIY+hfvks3HsFx7gKwjLusiU6H/1tZ/ifK8Oe2IdfLA3g1zoW4qmNCOeDORtJOhtHemY2h07E4R4m6vQ4J3IqSLhWp+p84rXHylZsl/oesp/IY3Ekp58nN7/wlQLtVWB7hPbg3l2MHUPRc89Ef3sB/b00ZndSaDGro27gmXyXmKIaMrq7FJL7Baa2lZRxs1F1KNLLGtmVVcmyvdl87XScf5K7VnUo/HnPKIhfL/ZmxgZbVm/bS79t2XztmY/lqZsUlVcxxzWKJU47cd9zkjM5N7hV3UJ62WPMTt6it6cIkRMvCJHn06OkRXlooeluBaDYCDHy/b3z+avDWRVN0jkRz/c8qF8uC+YXhgEK5m8WufNfi+2ZtNoa/73HCDicxL7kS6oMiFXoyUacu9WKPKKzy/A7nIz/gVh2HT5FZPRJcvLykc7M6369Elo/90zVpdBerNydUiPkgqeGX2LtkRuqRpy+XKfSpqTPtNJGogseYnniMn1djvN/1u/ivaXSofDhPR2190vjEH65xI9p621Y7hRGH7uzDHc4znzrIGz8I9lxMoMj5y6z80wOgQdO4Riwm+BDcazbk81Xjqn8m8lRehmKeQ55IvufhzY6sJDh/hrhojXo2mvR3Q7zK+RP1rGqc/I8LK0y/V/L/PjY2Jmxa+xY57WbvfG5nLxYrky51GsB0lNZeP450QPy+pTSRqIyS9mbUEjYkXiC9xzmcEwspWU36ejofCW/N4KmvVC5e7WdCnluWvglLE/dwimulOnBafzLpj3drSN/1T56xvgah2g6FIt8+J8zrZm43IStzn5s9NxLUEw6ZwrucvbSQ9JvNiqDe668WZnc0wX3iEzIxSEkilVuu+i7KYj/vcCJXy9wV/CkxghAUY+frvBEf3uRitrA9LsqFY4JKlQ2Qs8zV6lT7bXIVqC9b3tGwX8emtiI3xj6MnKdK7aRaRzNuUtWWT15lW2cr2hFvNzzYF7n/6Kys263UljVReqNBoJTy1gSkoChvT/37lV+P2iDtmvMrO5Favcl4gSg1InBvoX8381H6LXQW9Oh0CnaT+qAYSD/MN+J3y6yY+hmb8z99mlaSbm31QAIIO0kp+78mbIRatKziYxbLaReryUy7gLekadZ6rKDTw1t+deF9vz9Eh9+vcSbT1d4MWh7EYv3XSWnop6JIUVEXqxi87EbGOy7yvjgQpUW5caTFPkqaBK9v1nizRcrvRkRdIV5e0oQEROaeZ+zJXWqZovIkvot5eFVwLQ2QpRpdkULMUXVWJ0oZrxfIv9ucoBeC/0ZssUbsUGv+npppC1zDGWAx3kmhV9iVECBAiMKTJSYFprudoR/Ef9ldoxfLPV7kq4Ellz0rw0D+M8lzoxY74plaDRHkvM5k1NOVkWrmrRMv9n0yot9fiAEYkZFKxfudZFxvZrTGZfZG5fDEudwPp+1is+MPdD3v8SYoCLOXq3G6ewtBU+gFd5twD/1DsP88ll+sIThfgXK+70s0rTQvlzlzVC/YpVhJFplTObuvoLFyXL25TwgSTs1dLNB2QndcxYbkXWrmYybTcRdrcU3uZxpwSn82fIQf2ccrGxEL7ERS4IYaer7/aB97pRO6Pn7BGdUou+jSYNSI3pvy1EQXwuacQh/t9iTv670ZuWOLIIz7hN3o0VFTNatJiW3dS/wdfdF7OTc1vQPjxTXYRd7g/5OR/ls4kK+WObCYP9Lqp6Fn68k/049xwofMnfXZdo7uzhbUqNAirgxPV7KAO/8l6ZHXWjD/Iuf3LCSXfp55apxGBVQyMK9V3GOv01UfjUJ1x6rCMy+1UzO7Vbirz0mPLOClftz+cQ2mn9YEUqvpQFK+Oh2db43NFGPnzmk4xBXwdHCByyJvErC1RqVYqTVNC64SJ20nLikyZdGmnEIf7/Yk49X+TPM5yKD/YpUDdwSozG6Jy/VqolLMbpaBdoTOK0yzSpvUgMRU1yN7cnLTApI5t+2RNJrSQC/MAri/YkGfGnsxpCASyoqHM/eUpnGJ/Uuk8OvUNUEB/KrybndQNHdRlX3RD2+TqTpQtPesNpGtggdSbciflYcuo538l12ZlVieqyQYV5x/KPYCAM/JKKkwf187ZSs9INA+8o5A4PIEk5eesT2tDuk3ajD8mQZNY3tqke4YM8VdadK9A3ze0l6fALNj+He2QzeXqjuTkkx4pPm7LyMyfGbarpF7lCxD1IjZCs1QPalBkg7KfFaPdtTbjErNJWPbY6o1CtTLtKh+LVRsBI/H05YRF9De4YGXqGfjyYCLpTXsWxPPqPsonAOOUjg0WTuVtdzNL8K0xM36e9bxF/szvYoRJ6PNI2N6LlEaGu8upF9C/jcMU7j9xb5amyEtqn9ku0PAq2vWyZD/AtJu1HLpXuNiBIzPljC9aomws/fIyLrHvcetyr5P8i3sOea9hw0mejU3qUyAHKB0qmQGjF752VsTpdzIPeRSjFSCwTUrqy7rD6Yx6d2R/nnNTs0d+yi7eh2KP5uWTC/NArhm6kLMNpqSz/vfPo5JTHS6SRGzrtZ7RxCQHSqmpbZH5eFe0gkDoGRbAhPQM8xiT+YHqGXUTC/MApRN4NW6utCG+pfzKjAQlUPBZBGgPUMcOj2Qv7DNEZ5SZmE1R7vVdsfBJr4tK898jhR9EilGGkrbTh6g8RrteTfaSDxWg11zR0qnw/0eXNoWnjaAZD0IgMhkbvswHVMYkoY6XOWf14djnQmZJJTE1VP20kyCJqJTkk//vSZOJtl6zYzx/0YW7z24HsonpP5d0gpqdFEcffKrvgr1Zwtuk9gVDxm3ruY5xjBfy1x4n/Ns+e9Rd70MgrhvWUh6tiiHkWIDNxeiN2ZcpzP3lKqUwOwAMkakia11yNbUaS/tzih0uDfHFp/n3zWHbnB0YKHDN1ewLak2ySU1HC/vpXz5XVcqmxUraUBPgWvFWnSYREwuheou69NMYO3F/A7i9P0WuSjuVufayU9gWUYqCY6f7vQhv5r3THx2UnAobMcz76hbITMoWnXScraSU29lNSrWTspy+6y77STUHyPHceScdl1gik2wXxgYMP/N9+O95b68/dLfPlCoPkWYnXqJqmltUwJK1b9UVGgUu+H+WuuS9dG/GTQJJ1JkZW7X+6odUeu45FYwZkr1UTlPSDzZh2roq7zbdA+WqWpaVN2XNak0271JcfWhabdH+5fyAe2cfzS8MWJTklZvzYK4D8WOzJinQtbAw5xKDGPU9k3lCnPquxCPF9PguZlz4k/lDWWAjC5uJJT54rxPRjPVAt/PltszlcrvRjkV8TU8GJSb9QpeBcrHrM++jplj5qxPl3OkO15zNl1meF+P3GkaRfb6EaHeJx5u68wJewSB3KrMD5QwkDfV0eaQBvocR7rMxWcvlytlJYIGRmEbzxzVW3TApPtq6D9yjiUf1jgzIAVrmzZn8fOrCoSbjRx8W4b2RXNSoW+DM6rnhfRk3unlayKNo4U12J76iqDXU/wwdzNfL3cg8F+xaqrcjD3AemltRwpeKDOX2pHaGalSpu3alpYtPcKg3zzf6r0qFkhpTuYkrvFYAtESQUy6KMCCxj+MnOtI0QGup9n2cEbas5s4Z4rnL9Zh2NcOS7xtzCIvKqmT77Zppn/GvGKSBNo/7TQmd7Grgz2FhtRrG4i69O3iBCAJY/JutWolOcrbUT3RKeslZSVXWI/HGKvMCUohf+UDoWBv7IRv529ha9kYtW/WHWAQjM0HQsx7XLjPWpoJySjkpzb9aqxLV2Xvz20qioM7ELp7ZqFfsDlZ5rGugBlX9KbgPx2n+aH/rYsNWd2ovgRYnpFyEiU3q1tYc+F+8yMuER45j3l4/R9C16aHnWhDfO+oGyE3EDSzBaju3jvVexib7E/56GaeJUI0vhATatJzUjf0qyVTLhWT2B6BXPDzykb8ZvlmpVbInpEQIjI+WDWeoaucHri/dYdvq7m9hbtu8LmmFKK7zVyrOghEmUXbtWzNaaUgd6amQjxY28kRMy28+hB1au6WD3Mp3W287jyOk4ujoy3CGegawp62y4y0P8qgwXgdk3X/Hl4rwNtqFeWmjPbe7GK8poWws5XqiJ+42ETpy8/wi/1Dq3tXWw8WoqeV/5rQ9O1EZIBxEaInRgbVMTSyBLcE+5wuECzTE7aSUnXG9idfZcNh/O7F7V2q9PF25+ZiZDBlimZoUvXY2TupFpjIpTEX44PLlJNBZlVDzx3V3VcEq7VqHrncKZcdVlk+uiNoW3x5GHFjdeA1t5CZ+0tOu5cpK0oira0bbQm2pG7Zws7t21hvYMXo6wj6W93mn6+xQzyv8Jg5beeAnwZtF8ah/LeYh8+WOXPCO9svvLIwz1R80mWrcdL1ex0Vvlj5QMzyuoovNuo7tTvCk17M0n0SxZQD+88xgUVsT66FMuTJWqdxz+v3qEz0en/zBI8rZfSQhu5bAMrrFwUNDm+HFurEgWg3Chih9Yevs7Rwoc4xH1HaIahjFhlzr04TyiLo7PqEl2NLy6Y7dXVUgdtzbSXJtOS6EDLWUta4q0VNFIdId2Jh8fNyAxbzy4vM4xtfRhvvZcBHpmqkyDddGlNjQgoVpJf2jQyRSIz07L45VcG2/n32VvRW+6i2lgiWCQNhmVWqrtV1NfBvAeqHpRUNXG8+CGOcbf4xjPvtSPtdWyEGmifPP5l61E1tyc9v55aSVpgstVCG2G0geWWT6FpbwwFsBuiTBQLSJkJn7VTk5HeWPIbhjFitQWVR7ZAogUtZ61ozdxO2+UYuuruQPcnfnq1JNvQfHYr7WWJdNy/RMedXNoKD9Ga4UtLkgZiR7I9ZDjTmWxHVYwZOXvM8HCywNDUkXEOR+jvloG+bxH/anZSs/BloTf/ZuDIYMNNmFttJiN0HaaObuh5XGSoX6G6OLEPMmsgTdy1h2+o1Hgo7wGSYiTdiKl/meTXrWnDfS4wY+dVxgYVKoEky8klNeoOrOyLx5SVXH+wfHHGWxeU7r4W2nDDDSw1d2VA0A0G6zSNn38P+X9/r1w17fOm5vrXMs9oFIH+chPuHt5CV6Ynbfl76azMo6PqCh23c+gUcLJGpPnkSuqDv6Zh52Aa90+mNdufjpvJdN4vVOmyvTia1oztNMdZ0hpvRVeqI12pDrTG21B7ypKksK14O5my3DGYD9cEMGzlVraarCMuxIT6MzZ0JTvQcdYc+21e9HG/8ETUyJ0vF6kx0+Jr8pkQXKSEiG1sOX1fo6Z9bezKIM9s3BLvciivii/dc9QcmnQq+mzLUalRO7DfFdp7y4IZZbyJLeYWDLY/gZ5zKv39rmgE2kvqu7zn60L75bLuSeF5Hvximh2zTBypvZICrY/oqCyk9fJJGqJXU+vxGa2XjndDi11PQ3g/zSNMj4bQ3jQEfUnTMQNaLwTQfiOWzkc36LiTQ/ulaFpS3GiJt6Et0Y72ZHsFkHQHbh0x5ZT/RqpOWsM5J0h1oiPFic5UJxpOm2Pt7sU3HhefQNMOpi44rdGWZd/f5tO0kr+/RxYbjpWp1posgZD6aHq8DLeECiaHFquGgNz9Q3y/W6T1WhrEpDVmXI3cQmzABtxdbZltE8IQ22P08y5goN9l9P2kREhP9WmNfxk0aQz8UkqHoXwoJIDfzHPmvxbZsdQtgoijZym+mEZrXiQtcXY89htIjd1/UuP4B2qd/kRrUYwutP407Bj47CO0D/X+H6vnJBpbUh3puJNN58MSjWApOEBr+jZNHYy3plNS6DlnBaklyRHtoz1FA83C2Z3PnbMY5H9ZzXXpXuAzAH01hf51oQ3cls2c3VeJzn+g6mRiSa2CJipUfNS8XbLaqpzRAZpP5LxpehRoE9eY0ZrkAFkuqs6UHtzC6WAzTGztmWnizWDns/TzzGWAbyH6cn1+Rc9E2q9kPYxxqEb4LPTm7xdt489LHdXn5faciKco7wL1OVEQt4n2fTOpcfw9NTb/Rq3zX6h1+5ha1w+pdfmA1uJnIq0HaAriIBWB9cFfUh/8FY17RtEYNYvWnBA6KnPofCC59gJtBQdpPeejLkgJmUT7J9DaUpxoTrDjgNdmllq4M9w+Bj2nZCVi9ANLGOL3dAGqLrxvg/aPC1342tiNwZ7ZjAwsVj7vbl0rAWl3WLa/RJncndn32H3hHpV1rRjuL6GfV94b1zQttIazdnSkOCI3IenOdCXbUx9rya0jZhz0NcXG0Z4ZDnvobx+HnkcWgwJK+K11HL0Mg+k1z4NfzXLgT8tdmWMbxLZdR7hWkEF9STJd8bZ07hhFo8/X1Nj/FzUOv6fW9SMNLAHWM7QNNIS/DNpz0afS5zc0hPalIUyPpuNGtBXtp6PiHJ3VpXRUZCnL0Josd6QlLQm2mkhMcqQrxZGHJyw44bsOfzdzFtkFoW95kP7uGQwIKEHfvxhpEmsjsCdoIgxUR994B/9jnhO9DZ0Y5nNBLanzTdUU6RUHryn5LSZXZqhlhbKYXvMTN5Fuy3eNNC00bQZpTdYA7JQan2KvRFrh3q3sdluHhZML4y138h+GXvzf+dbMcwhie+QJss+fo+tGIlwIpnX3FBrdPqDO+S/UOP2JWpf3nwWlBfbG0KTWhfWlYceAZ1On/D98AA2h31Af8CkNO4fQHLeZ1pxgOu4VqBrYKRGYu4cWAZhopwC2J2lSKKn2lB7YTFLIZpycbZlp6s1Qm8NqfaVKMX7FDAu8xAd2Z3nPKABVrKUGLA3iN4s9+f0CS8YuXsaM9fboe11UtWX+7ivsu1jF6MACLE+VqQnbvNv1PGhoI/larZqh/iGhaeHJtlUeiXZ0pdgh9b0uzpbc0zs4k3KOc1nZ1F9LhyxvOo8a83jbZ9TaSur7c3dEPRdVurC0+y+mx5dHmkqHe8doAD1f83T/H9aP+qDPNSk0cgJNJ41VBHZWXabz0XU6bmXSlrOL1jRPms9a0xJvBWmOSrDUx1pw96gpcSGmmFtbMMfSH33nBAZ4ZPE7qzh6zffmVwu9+MsSKyau2IS340ZuRltyedc6jEyd6LdNI27E4MpDRMeyAyWIAt2fU4XYiMP5D7A/c+sHjTQFTcrAWSuNr033pC13J52VBVB3E2pK4PIBODiHpqDB1Dj8TokKqU0q5WmBvM72BWhneoAmURSuR+s5VzruF9J0dCENIb01ERf6jUqNLwgXBbE7+uS1EqUSgWc20l4SQ0dlLl015bSXpdJWsJ+WJGda4sxpT7KDNCdVI9oSbCg7bEak50Zs7GwYvdmLmWs34WKzgdw9JrQlShqyh0wX7kZvZYnJU2hSD8WfiYWQ/UE++WrOa0bEJTUHKGtS9Dy/f01TsBJsaY4zpyXZmba8vXTcTKOroYr227m0FsfQcHgFte5/pdb1gyfK74U69TqwtK95EdpGzQDrRo5AC+tLa+Y2JTFbUuypD/hEQWiKWUrj/knfXgelTgo4SaGBn9GwZyQtKba0Fe6ls/o6nY9K6SjPoC1np0qdkl7akuzoTHFQXZiWBDsuR5rQGGcDmc50pTrRnuyI1BLSnCmP2oKBiTP9PHNesBECTnygNvrEeI8JFMHz5ub6iRA5Y01Hki1yXq0Xd9BxM5XO6jI6a2/TkrOPplgr6nz7UWP3H9Q4/VGpPaX6tAP/fbZvBC3DQwMt0ZLHPn+kIWIQ7aXxdNaUKSUpYqTniHtOwMgNISk08DPqxQNGzaL5zHraSo7TVV1K54OrtJdn0JIVRFOSC83x1rQn2qgUKmpNt37IvkC7GbWF+Rvt+crtIoMCrjLYv2cVqqJOIvANfZp0KH4hMn2RPyOMNtKY7gvSdHh0XfVp264n0XhsPY/DxikhUWP779S6dEv07wOop5/9LtDab5yhKXoBDbtH0nHrnALZuHcsDYGff3vE6UawNoWG9KE+6Asadgyice9oGuM203IjnqaKi9y+coH6S2doOB9KfbwDrWctlJHXBdeZ4kTVKRv8HDYwyzKQwQ6nkfUsA/yvdk8lPTW5Whvxeh2RYI2fkg/Wi0yf48wfVwdg4h1B850iOsrP0ZzoSl3AYGo9PlXyXDzVDxZRPQGT594MmrsCRHsLdLbTUZFB5+PbdLU3Kb/WdGS+ps5JGhQgr2sdtCDl9aJOpU6GfM3jncOpSXSi+XI0d0uyqam4pAA+SvWnWXVhbGiR4p/oQFuyI50pjlw/aMJR343YuzgzyTwUfZujqiK+kP8AACAASURBVKc50F/TqRiiPjla8NLeo3QolI0wClFrJ38z245/W+zIYo9IfML2kLbLnsYEV2rCJmkgiTwX5fddBMXLoHzb828GTZMeWy8G0hxvRsfdCwpiV3O1anO1V2TQVnyAxl1DNeJECRhpiUk9e03vpwWobEQ/GoO/oCHoC+oOzqYl2ZaHuVE8ulNCQ0Uh93NP0JDuR0uSE83xtrQm2qJmIs45K6NbvHsjJ4NM2WTjwFQzf4a4JStDLTZisP9lZAmc+LT3jAI1NmKJZpWvLNz5nYEDoza6sutoLGnHdvDw0Do4akSz9+fU2f07tc5/otZN5PlrSPRvg/Cm3399aN/Qet67u6ZZ8Nj79zTsGU3HnQvQ2UHD7hG0Fe7TpEqR+ceNab96jKaji1TtkxrWENrnFUqzh7qnA7BR9UA/pz5iEI1RM6mNs6D6ahLN965QeS2H2sJTNGUEUp/gqIy8zEBIG40Ue+pOWXDjkCmhblvYZGXDNLvd9HdKpL9HNv9pGUuvOW68N9eV36/aziSz7dj5BFCYdpLbxxxo3z2ZjpDB1Lv8iVqH3yoF+MYS/U2hfNvrXwua3PVhejSfMFZSvTnehPqAv6oU2FGerkA1ROjTfHoNXe0tNCdZKVUo32g550FLqgMt6a407hun6qCaRXjBoL8Kms73lALto1JoY3h/HkdOpibNm5bSRO6XFvCovJjGS6eoSfWj6awN7YnWSoHKbERnkh1tiTbk7trEDufVKgI/XRfENIedOAXtJuFwKI1ZO6mPXKwiqtHjI+okoiT9/RQR9TJ4L0CL2/Si5Nfe8SF9NP1GMdjSuto5hI7bWZro2jtaTed03Mun404WnbU36ayroOngNNouH4aOVjofXKajMo+WJGtN1En6VDdEdwrVvs9rbcU7Sg3Uo1H1QntTd8SA5kwvqi/H8fD2dZruFPEw9xiPU31oTbRXXYr2ZAfazvvRfu0Mj65f4EzMfu6ddoc4E5oC9Xns8J8aUDIwz/f8XjaIf+vn3wiaDKbIeq3QCOtHc+w62q+dQNSjRJ80j+nUfHq/LT9CdUXaL0UpsG1XjtJ+Mwk6WmhOMEMaz1r4AqA+pE8PLTKdKHslzAE0iokP/JTHO4fSFL2Ix6luPLp+nqaq6zy4dp77uTHU3MhSKbXq4lEao5bTvmsC9W4fUCt16seS6D801OehNZ1YTn3gp5rB/NYUpkmbSilGDFIpSzoeXZ3t0FpP09HFakK1/cpRpTYbjxmolKqi8H4hDXtG0XxmA+1lSbRfiabpqIEmAtXNIdH3fI/zNQHKjRXyNfWh39C4czD1B6ZRkx9F46M7PDrtQJ1vf9WhUPLc6Q8/vkT/UaC9/3RqRjxYqyw5ODiV5vBvaN6hR1NEfxpfClDA9aM+TI+WREs6qzS/C6vt8hFNJO0YQPvlI9DVSXOihfJjHeWpdLU+VlEq7R6ZEWi7FKWmdiRy60N607hntCaqRf5rI1sbaQJFrMG3QpUUqumDtpxcTkdpEnU+etSq6Y7v0PP7oQf/DY5X5/YxdW4fUef6PrUyv2b3n7QWRqsMpj4JKr8qvfVBCdU5kdzab8jDsCE07uhPa0Q/Wl4CUMxxS6ZGXbaXntWIDlGLOwbSflnSY5dmhVd5ioq6roZ7CjLtzXQ9vk1rpicdVcVqXk5SpaTS1rwdNB2ZR+P+iU/Bhfen6YSx8oUvzja8JBJDeiuR1FaaTJ2f/tPJxDcYtJ9KMT52+4hGt/dpcPuAGtePqAsZRWuyKx3XE+is16yHVNCqa+s5fDoJS9ftmNk54e5sQbTXMooCJ1MVOoyWiH607+xLc4SO9xJRsHOopg+5c6gmvXZ7s/aSk6rOtRVHahrF9XdpzfajYe9oOusr6Wp8QEdZIp215XS11Kpui4gZsRIiYNoKdnd7vX40hPSh9WIAXQ33aYnfqqJSbgxRpKpG9hR9Ctpa2kpT3hloAqnFXVTrx5S79iHdaRy7nFayKyJE/cZ0FWLd//TaF32C8MjD7D0cw+ETsbj6hbLWwom1ls5ssXHGx3krx72XUhgwherwIXTs7KsgNkrqUnJcuv46HZHwAbRdDEaW5jWfXq1gyoIh9RppQqvv1dKa4U5Lgjmt531oPDBVLWUQaO1Xj6u6p2xCyNdqdkGa1PLVdumQpvm8Y5CyI1IfG8TYP2/k3wFokvq0UdXs/hduu35NpvNY9jkY4GBjxhoLR7Y4bCNozyEu5BVReLmEe1WaNZC9Fq834/2Bo5lmtJatjtvwDI4gNjGVvVHHsHX3ZauDJ6utPDC1tsPPeTPHvQy5EjRRqT6JPEmfslUQVQ0aQOO+sTSfWq2iUMSBprGsqTfSdG69GETX4zsqCiVNylqUDlmY2VJHo9iLoC9ovRCoFKf4QVkp1imvv5ev9iXCOx+VQGujmjbS+ECdVPmWQhNQ9W4fqtQnkfXI9VMuOo8k0mERLtYb2WztxEYHbzyCNAzkN7/GxCVi5+nPVMM1nEpIUTdvr1Xm9qzcaslmawfGzl3KyNkGTDZYyUozOw4cO8Wx2HgCI/ayLXAHmx18WGXmgIWNNdtdtnLGZzFlwWOpDdfvTqEiYjQKU9aUaGAN0vQlFdBBT3qN0reUlCldF4HU8eCySo+Nh2ao6JJlDDKb0HErnUbxfvk7FVTpuDQemadOvvN+kaaWhn2j8x4D1c83n3570uNjtw9pcvuLAvbA7TMuuegT7TgPVwFlbslmB2+2hezl0IlYsnPzyc4rwCNoB7NXbGTA5Ln8tvcQ/tB3OMfPJmmgrTSzxdzBlagj0QSE7sAnIIQNFrZMM1jJoCnzGDZzMQ6+wew5EsOewzHqz4a4B4Sz2tyJtRYOWNjZE+y6kSTf+dwIHsfj8EHdKfQVClTSmWpxiSLUNI1bMj0RQdN0YKoGdng/Gg9OVavAGiRyT69TJyyKVfygfKk6qWYLnrMKIb1p+omhSVQ1uL1Pi9ufeej2KZddBhHrNANfu3VstrBhraUTTtvDOXYmidTMbNKzLnIg5hSL1pnQZ+wMPh4ynr8MGM1Hg8fx16ET+GTIBE7EJz+FZmrnwv5DUcw0WsNs47VYObkTGLYDb/8gNlraMWHBMr4cOZn5a7bg4BNE8J4DxCWnEXnkOJau3mywdmWdlRs2dtbscFunAN4MHquiThSopM+mniyEiAitkFDKcwANEYM1USPPK//VR4kOqXudjQ8UWEmtImYaD8/pNug6qVEi+ieCJjVK0p+oP4mua679iHOaRpDdSiysrVlr7Y6Fmx97omK4mF9ESmY2e44cx8RxG/0nzeGPeiP4cNBYPhkynk+HTeSz4ZPUo0doZnYuHDgUxdAZC/ljv5HqhUOmLWDBqo04bvPBPzScbdsDWWdmw7DpCxk+y4BF60zZ7ODOibNJnElKJXDnPhy8g9jk4M1ac3vsbC0UwPTtc7kbMlKBEIDy6BGgEjaiTp+LGnlehE7EINqux6o7Tf5pKzlBvQgVlXZ/OmgSUQJJHqL8brt9TbLTRILsVmBpacJGGxcsPORGP0hCWgYFl69yIOY0621cmLBoOe8PGsPvvhmqIksL6fntC9BWmNqihSb17OPB4/nr0IkqLGX/8xGTGTFrMYYbTLB12YZvYChefkGs2GzB+AVGjJq7lImLV+IVuovTSakcPHZKKVFX/x2skhRqboudnQ17PVaT5TeTipBRyrhrVKiOhehp8HWeE1/YnGCuTLqoTKVMVRvsOWDyM3+DSJOIktQn0VXh2ocs59HsdjDC0tKCtWY2mLr4Ero/mtikNDIu5pJ47jyW7r6MmLWEr8dM40/9R/L+gNH8VSeinoel/f9rQdO++NPhk/hIfxwTFhgxy3gtw2ctYvx8I5as24qtmychO3bh4RughMy4+Yb0HT+TJRvNCdt/WIV9fGoG+4+dwtLVh1XmjqyzcsHZwZL9His47zeLytARtO/U00RfxIBXdGGeTrDKzEJrxraepb4W8o8ATVeii6i46/oV2c6jOOCwCGdbE1WjNti64xWyWwE6n5PPqcQUAnZFMmXpKj7UH8sHg8bykb4m/WnH+HW2bwRNDijRNnPZWqzctrHF3hnDTWZMMliuom/cPEMM15vi6u1HUPhOXL38WL7ZnMFT5zFilgHrrJxw8QtVd1vq+QsE7ozEys2X9bZebLB0wNV+Kwc8VpDjP4PqsCE0RwxQKvRlXRipf9LyUksVtLVQC0p3+wNBk1aStkbJ9oHbp+S7DCPKcQFu1hvYbGXHJgcfnP3CiToeS8GlKySkZ+IdugujzVZ8PXoav+szlA8GjXmmRr0OKN3XfDs0/fF8NmgSnw6czGdDNdBmGK3BzMkNMydXZE2+7G+0dmDpRlMmLV7OsBmLGDffiFVbLXH18cM/JBx3H3+WrN3CqNlLGL/QmAXrTAjcvZ/07ByOnj5L2L4oHHxCWWPpwkYzK1wdzIj2XK66MA/Chqr+5wtdGF0wr9r/ntAk5TW7/YUmt/epcvucKy6DOOk0Gw/bjWw0s2SDjRsuATtVFknOOK/Mr/xFqvlrtqA/dQEfDBzDH/SGK0GhO/jfdf8FaMtNbDGz1wiRkbMM+HjYeL5YMIEvDSfw2ZiJfDxoPFpopo4umDi4YOrgogAKPFNHVzbZOrJ43VZV44ZMm8/kRctZtdUKNx9/QnfuxsV7u0qpY+YuYcCkuaw0t1MXLL7jTFIa+6JPYuHqy0oTOzZa2uPlZMJx7yUUBUzmYdhQ2iO6U2hPIqUneArauu421qDX6j1qjO8HtLj9iRq3T7jqMpB4p6kE2q9hs6Udq80dsfYI4EBMrJLnyRnZHI2NZ521k6pRIskloiQN6iq/7wpK9+d6gGbzFNo0Az6ZPpZvIkehd3IUvd3G8MmYccxYqok0LTQBp/sQcOZObioK11vZMX/1JkbPW8rAyXOZtGg5681t8QsOI2znbhw9vBXAARNnMWquIWbOngTtOUBCWibp5y8SvHs/pk5eSh6bWNvh67SJ415LuBQ4SXlAUZ8vdmGeEyMya3B6Ha03pPf4cmgaif6B6lBI+itz0SPBaSqhdsuxsrZgjbUHps6+BO8+QObFPC7mFxN59CT2XgFKgEk0iZf6ZOiEHxzU60ObbsDH48bR238MemdH0vfEKD5dNpoZi14NTRegpFBLF3csXTwYPnMxf9QbqYyh3oRZTF68HBM7Z2XixQeKnZhjvBaxF9OXrWWluT27D8eoBump+CSCdh3A2jNYCRgTCwt8nDYR62OgTLymC9Oftgg9VQufkf6vgKYxvR+oDoWS6K5fk+E8nh32xlhbmrDe0gEztwD8I/ZzPC5R1anTialK+U03WqvUtNQp8VO6A/tj7r8QacYmOpE224CPBo7n8ykT+NpmLF9bjeOTsd8eabrQtPtWrtsYM89QqU9JF+LwlbsfNpFvxs1gltFaFeHeAcGERuzG3s2TucvXMWauIaPmLGWzvbtSX0nnzqte6M5DMZi7bme1mS1bLW0Ict2g6cIEjaMuXJ/OnX2VClU90B6gidmVOiV+qsK1NxecR7Hf0QB7ac6a2rDJzh2/iP2cTkhVpjfpXBbeobsZv3A5X42eqiD9ZcAodQP+mIB6OvaL0LY+C03UogiQz/Q1j4/1X6xpWjCv2lq6eqgUKZZBrIO8sXgSASj7Hw8epyzCkKnzmbVsTXcERhAWsVt1ZBas3KDaaCJiXAPCOHTyDOlZOZzLzlHpShrZqyxcsLS1IcxlLYm+8ykNHqdSZ1vYF7TErlWfG2j0G0Cz8+944PqZas5GOSzAw3YT662cWGvthvP2EE6cTVZ/P008VVhkFEs3WqjaJJDkRnu+Q9HTwP6Yz/UAzfppTes217onIBCfFyKvgqX9nkAbM2+ppi0zdAJ9xs3ky1FT1WDISQg8o01mLNtszrgFRgyYPAcBKK00Syd3JWCkF2rt4sH0pSvRnzpfqTObbX4cORlH0ZUSziSn4bdjH6au/qy3dsXaxoxQlzUke03jXswWWq7Fc9l3KkfsZrHNZj1bLK1ZZ+eNg2+omsWQP3SXU1CsvNRqCwcGTZ2vJPqf+4/6UWuU7vi+zv4roUkb68NB457J1d8H2ui5S3h/4BhmLV+PiZ2L8nCTFq/U9NOGTWSVmRXWbtuUAhULsXjdFsZ2Cxj9qfOYv2IDdu5eqgYGhUVg6ejGtCUrVQqdargaW09/JI2dz81X0xYh+45g7uqn2m22tlb4bHPC1NJazU3Z+YQplRqXkq6i6vDJOKQbNHTmIv46bIKm76f/t6tTrwNL+5oeoclgSJd/jvE61cKSfphIWImGj/THq26IhYsHZk7PqkZtVPW0lUiTttjouUY4ubozZvQoZk6fjpePLwvWbEHu5hUmlpg7a2yDmaOr8n+iQjdY27NgzSbGzjOk34RZSqgsXrMZWxdPQiN2ERKxGxNbZ2YtW8vgqfMRgeATtpvY5HSl8kSOB0REYu60jR2RR5Q3lOeiT5/F1tNPRa0ICZHn8pBB0Q7Q27h9AdrCtSbMNFxNQEi4aks5eHhjtNGModMXqov5QH8sw2YuUgOsGVjN4IrM7wmW9jlRjyPnGDB7+QY2bdxInz690dPTY+SI4Wwys0J/+kKWbTZT0LQ/o93KscXEmzu7s9bcRlmIEbMX03fcTEbMXKQsg3Rhdu/bj3/IDkztnJm0yFgBlDaazEUlpp8nv/gyh0/FqZmJmcbr+VO/kfxBb4QSRXJDvo2AejongSYZ78l8mqnzNoZMX0j/ibMZP98QC0c3AkMj1NSMk6cvC1dvUoKgz9jpynfNMFrNGnMbtto7dw+sJlK0A67dSqQNn7WYIdMX4entw6gRw+nTuzdff/klW03NWbjeDIP1W3qEpj2GbCXy5AaQ/TUWNirqPxsxiS9HTVEAV2yxwDswWHnA7UFhrDOzRm/8DGXgcwovMXbBMv7jq8GIqHiXQGnhScb7o95w/tB3xFNo8me3yipuE77/CEZbrNQgfzVqCrOMVmPt7EFAaLhKSRYObswwXK3AydyaROK8lRsUQIlASZ+60SfQRs1Zwof641i60Rw7JxdWrVqNqakpW22d+Gb8LIy3mH8rNC1AbfRJ90U8n9Reufvkor4YOZnRc5bg7uvP0ZgY1pnbMHflJtUHHDxtgbId2kF4F7Zyc0naFj8o+9MM12Dt4cu1Ms1fkHrhjynIfE/4gSMs3WRJn3EzVATOX7kBGxcPwnftUZ2NzTaOTF+6Com+3mOmKTjzV29UtUhSmrS3RGAo9ag/Vk1BjJ5nxGY7N9ZaOjJwyjx1UtqapgXzbVsBJ/VOoH0k1mT4JHVRYiVkHnCViRXRx2LYYGnHgjVbScrIUjPvYjvedliSAsVeSCtM1uyIx7V2387JhBTuP9D8DmntZOIL0LTfaGhsoujqNTVLPct4g4InfcV5y9fj4rVd1T8xxputHRk/z0gB1pswk1FzDTBYv1WlNRESciIyYLKVOSQRIOLR5A76rtD6TZzNJ0MmaqY6uo8vKnWtmS1Hjh5jvYXtOwFNxkAgSeoWaGI5Nti4qDR487bmV2xoeehuXwpN90XNzS3kFV3GPTCcOSs2qhrXf8IsDNdvxc1bMy2zPSiU1SZWSFNY5tVkYL8aPa3HDoKc7HeFttbCVqnSLfZuzFu1iRFzlvKXgTL7O4x15nbvBDQx67K0QPqWUvOlKyXrb8pv33mtPwz7WtB0Aba0tCJzY9uCI5QyFEEwdPoCVmwxx93Hj4jd+9S0zPJN5sh8m9QbUaBaC/HpME1KE2grTTWS/9vSovb7kh5Xm1szbuFywnbvxcrKCit7J7bYuiDpd+UWS6LfwkiTa5WmstSpP/QdRu8x01m2xUp1X6QcvenXG0PTfYOH1TWcu5CLq38oYyRFjp2uluGJovMNDFEp1NnLV81sD5+xSKXJj4dMUMJA7jZJjyJYRCHqihgtpOe3Gmg2TFqyGge3bXz84YcMGzIEJ3s7rNy8MNpg+tZAE1BSBiRty2y1lIjZyzcSsDOSC/lFNDQ26g7lG+1/L2i67/SophYxsGYuXgqgTMuMmm2gVnP5BIYgHQ3xVgZrt6iZbVl7MmjKXOasXI+kPAEk0l4APg9L+38tNIk0OdbcObMVtKlTJmNi78qyTWYaaOY/XU2T2iQ1SjzhV2OmIR0gJ99gzucWUFv3w/xR8x8Mmi7A6ppaNa1h4rRNzVqLwpy4YJmS+lL7wnbtwdZVuvrr0Z8yT00iSvdk4ZrNrLO0VaZazPXz0Sf/X2dlp5abyWowJ58AzG3t8fBwx9J5G0YbuyPtbwxNG1VSpySqJi5agZW7L6cT034wULrj+6NA032D8tt31dLmLQ4eysRLW0r8nnQxQsJ34Rccjqm9i5qqESkvIkYayIvXbmGTjWP3Mgc3xAsKNK3klyL+5wGjlRARxTVp8QqVhqWmyWLbH1vyK4muP041xEWiix+UCV1ZUijX/GN+/ejQtCff0dHBrTt3VVtpuTRqZyxSPUBpANu4bCNQVjcHhmJq68ykhcuVxRgwaY4CKG21zbZOqgOz2c5J+TQRNlor8ecBo5RPW2duq9LjjwVNIkp6lpL6ZJmhKGRjE2t1TTcrbr+W8tOOx/fZ/s2g6Z5kR2cnNyvuEHEgWsldWbmlN36m8oD27l4KoJ+0pMxt1epmiU5ps01dukotJuo7YeYLVkJk/48FTZTfn/uPVLAGTp6HfGglZO9B1aFo73j9v5qrOwbfZ/8ngfb8CRdeKSHiYDTGW23oN2E2gybPYcnarTh6+KieomZtpZWyEN+Mm6nks8yEy90ud79EnKi09RZ2P0ikyTFF3Up9kmbAFyOnII11v4i9ZOUW0Nbe/vwl/E3//1ZA015xc0sLAlCWo81ZtVlNy4yctVgBdPcJILBbga41tVGtMxlMiQJNt2WUDrTv1sbSfOhhlOpSiLqdZLASr+AIsvOKEHX8tny9VdB0B6WxqZmCKyVqufmsFRsYMn0Bw6YvUBOpEnkCUD5fIIpx2IyFyvutMbPpjrTXhyZRJULi932HqZn1sfOXYeHqTcr5C9Q9rtc9pbdm/62FpjtCrW2tysR7BO5gzspNSoiMmr0YiThPvyDCdu5R60rcfQM4fCSaDRavhiagJKq06+mlMbDV0YOjp+N58Kha963fyv13ApruyFXX1qmZaFf/MPXBDxEokxYuY4NaWxnKwUOH2WTl8ILkF4kubSTtglL5sN56a2dk2YF2ykP3fd7m/XcOmu5gSlSknM/G0s1HfWxo8LT5TFpozOjZi1mwdivJGVmqc/5fXw9RwGR1s8EGM3ZHHeNG+S2khr6LX+80NN0BlxbRifgkzF28GDlnKUs2WajVWhMWrVAfg5U1JPJh867uv9ei+7Pv2v5/G2i6Ay8eMDMnnyvXS8nOK0TmBv87ff23hPbfCVBP1/IztJ5G5S1/7mdobzmgnk7vZ2g9jcpb/tzP0N5yQD2d3s/QehqVt/y5n6G95YB6Or2fofU0Km/5cz1Ca6gsJu7IQXbv2sWuJ4+9xCaXo/ltxW96Vc1cT8+i8Oojut70R39+/Qsj0CO0nJCZ9Ok7CKM1a1m7VvvYhPeOPL5bt66e7P3RJGRU0PnCKfz8xJuOQI/QsoNns9r3wEuO1UVHWwt0tVJTWUnl/QfPRV871VWVVFZW09reSVtnx7PR1dVBa2cn7W0NPLxfyb2Hj3lmHrijkSp13Ic833xqqr5HZWUlD2uexntnZysdna3U3qvk0eOmZ96ro6OV1q4OmqrlfO5T82RlQCdtza20d3THfVcnrc2tdHR10dnWifyZlqr7VVTXNdPe3qp+S2xd1X0q71XR+lyqqK+pUudU3fTMVdBS/1A9X1Vb/8w50dHAve7re3oVQFONen1lVe233tgvhbbmpdAq2TdvIiarndg6ZgxjBn7NHPc46tQ5t5IcYka/IaMYM9oIg8VLGWp3gAaqObTGFN99N6Ahl81mk1ltv4aV08cw5JvRWIZfUOCaqm6z02Idk+W4o0cyK+gYd9Rxm7gdH876uSMYM2YMI4dYcKxQM0FZEL2AletXsnz4GMzCY58BnRO1gCErZrFuwRjGjNFn0Covbjd3QVcJHtM3ceDcPc2NWZ2N7QRzUh7WkefhgcXcVehPWIplQAqn7QxYO9mARROmM2akHgssIqlqlh9r4VrCbsaNn6DOacRMY04XP1DHe3gpiVULJqrnB4+YhP+JW+r6Gu5dx8tkLSPl+kYOxjIwHrmKtto8PLeMZfSYMYzqP5qN4Rk8fobos/HTI7S8HQsZPnoSprZ22Nl1P1y9OVfeCtxl2+cfMnBiBI86O+ksP8nULyYRXQq1+QGMm7KG02WtdLbfxXrhR/w/U5xooIYdc4ywD74CLRdZpP9PTHWNQxb4PDxpy8TJC8l41ERKgAELXdO6z/AunutnsCG0gJr7SRhMXk2q5vcuczcxgBnTNlNQCxf8B/CXQcspqO98oYOf4a/Hv/YezLEb7XR23mPPomnMcbhAG1exHrCYsITuDzk8SGNdb2NiqxrIMp3Kp9+sJa+xi66uNo7OHcjHf15C5qNOOpuus3X+OFYfL6Gh7BCzxk0gIK0K+bhYludiBi51p6r+Pm5zlzLH+ZK6jgfnTrM37BwtHfXE2M1grZfmt6vTfh3PqXOxOFROathIvnKJ1Fz3/XO474vldtNzIa3D7SXQFjBqwgzs3D3w8Oh+bA8m+7ZAu0PQCD08T5RpDtN5Cb/+fTl8rZ5zFuMxdT6IvEq+HiRbMHDddh7xkF0LV+IcdhXq0li0ZiheOd2vurGbCaYzOFR8i90rf0e/ifOYP28e8+YvYNyXfZi34jBF6dv5o94w5i2cz7x585g/awy9B/XlYCnk7xnHANdInmS+7veWTWrYGAa7a/6wg/y/Km03kwd5UN58HZfhRkQkda9PfJTBlv6riatqIMNsOhs27KBOHaeFY4uGY+GZ+CTFlZ/elV1GUwAAB+5JREFUgL7rLtKC1rJ5pQOV2vdrucC6qU4k3Kwk2W0tA/46mjkLDNiXV6N5RdtlnAb8luHTF6hrmLdgPoO/GMTENUlcv+jJh/36M2vOArwPFWmP+NJtj9Ckpr08PVYQMkKP4FOaD7jRks+2/gOJLqslae1obJyin9S42nPu6G8I4iEPnkKrTWPRlhH4FGigdV6JYJLJHA5cyMC236esCoknLSWFlJQ0ci6V8KihlXPBE/l4yibOZqSRkpJCWmYOV+88pLkD0sLHoO97+Mmg6l5pSvhYhvgde/LUo6z9LBzkwLWGEpxHLGd/enfo1mSxZsAaznRDszLZhWYBdzMxi4bj5Jf65Ph3E2wZ6hhOnIcxZstc0SREoPkC84ZYsK9Y1ui3crvwPJHOi/ikz0BGrnQmPT+OdR99jO2elO7rSyevuIyaWk0tvHc1j1NhJozrq4f+4CXEXH35EvKXQJvFap+XCZFbBA/vi/+Jm5rBaMnHo58eBy91UBFryiQDO250S8RI24H8bq4zj6lh54IVOIVehdo0Fm4chleeRod2XtnB+E0ziblaQdCafoz11fyeXjl49dVc0vIecTvVA72PVpD4JGPUkhufxKN2SA8fxUCvQz0W74ygwXwwYSlF3UGdZm3M8CWnaOAm9t+MwzRac+M1ZWzj4z9N43h1C+dNp2G2OeJJpMUsHMrgUQ5oYrKd0K2jmbr7HPey/Zg+ZTZx3cFafdIGvTkW5DxooCDlPJe67wfunmTB4tkEpmcTMLE/K0NLntxE96/Hc/5WDXcvJZFyX6vLq3CfPACbmKeve/ID3Ts9QssNnU2f3v1ZtMwYY+OnD/vt8dRyn1D9L/A91p0eW3Jx+eoLdmY1Q9dDgrcYoj9tKcZGmxk/ahi/Mw6mgYeEzzLELugy1KQwe80A3HO6oV0KYfiqcRypgJpLx5k1aRjTjeQ9FzJxyEbC4ioEHzHmhgwdOEOdz6Kp+my0CKWiBdLDhtDHfX+P0LIiRvGnEV9hvNwIY+MZLJy7mXNlmkjIC9lKny+HYmy8CcctBgx9fzZnqls4t2kCW9aFoVkw18opw9GM/GAUS5auxthgDlOXBpJfKWLmPkc9zRg6xQBj42WMHzUWz6MFIgNJ8t3A0GETMF6+AsNF01kduJ+qNrife5C548YwW8bUaD6jDY04UlBJaYY7Y/uNwHD5ClYaTmblimCuVWmLzPPIoEdojVXXSD19nMOHDnFI5xGXdo1mOqgqyuPuIyWhoLOB23l53H/cTmvjY2prS0lPPktc3EXSd1kw1OMgtR1t3L96nVuVTdBex9XSAu40aMKxq+keRTeKud99uJryfI5EyftGk1HQXQ/UeddTEHNEnU/0qQS036mpLCT/zoMn6Uv3EtN2TmCIzw4Kk6M4dOgI+Q90JVkrVxNPcOhQDHkld6m4cpvatg7qyi5RVnqvu0Y2c3zJSFzcDpAi7x0Vy82aJ+GuFGSmOsYhzuaV6rx1DYVp0epco06nUtZ9bfKC6tIMzbhGHSWz7KmpuZscR5SMdVQ012peDkyO0SM0nXd/o92yeBcmL17FvlNxxMXtwWLOOPyOF/NTLctI8O/H567dquyNrkT74iYOTf0aM6ez2ifeiu0PCg0ayfR2ZEV3Sg2NzftJL7I0O4yAtPweo/D1TqydSweCiU+51qM6fb1j/PCv+oGh/fAn+PMRXxyBn6G9OCZv/TPvBrTmOyQeiCbj3tPCrR3Z6tJ4jh7L5e7tfI5nXqRWVyd0v6gk5wwxGZee7XFqD/AObt8RaNexGtqPISZPTa5mrBs5OO+vjF4eRV6sJcOGfIx1/P1naljT40LWfPp/GL7QmWd/hco7SKv7lN8NaMD1KAsG6s0nTfPXqNTpdz1IYsI3UwkraqYq0YHlywazxuIw1U3aCaB2ruWGs2joYGyWb+O+5qd4ePMyly5doqzi7fn40pvcQu8MNGrPs2SaHhsO3XpyfTk+M/nGyAHp1d+LNWel6VZCA9fgm6vpCLbX3mCvtyfBFkuwMtxGdWc7JekeLJg+lkmTJjJkqAEhORqUTw76Duy8O9BoJdbVmL4rPLgl7br2MqwMJmC5K1cN862TJqy2MCc2OYGNW+MRP1udE4HtgXQyPJZhbuzLw8flLF/yMeszNd2YW/mx7D7X3dl5B2BpT/EdggbcjGSE3iz2XW6n6fJuFq9YSVJ3j+/mia0YW9hQfOMm0dbGnGuAC9ttiCq9Q56XMSaGntS3NRDpNI8P5BeGjVpOdMHb/1k0LSjd7bsFjQYOLR6ObXgMO11NmGGV8KTnKNCMTCy529TGySNBOO2OZrvPXm60tFHkbcgWAxe0PdyqshL2Ws+g/yA9pixz49qLolR3jN66/XcMGjzMcWPE8N70G9sbv+KnTb2bxzezdJMpkuweJRxh2e8+ZVlkhlrTUuC+mC1L3KlsqSbuzEG6JxhouriHJRPmkqQjbt46Qj2c0DsHDe5jM+RfeH+GA7VakSiZ8//f1or/6eXV/2+BZkNfb/8f6OHyv3kbZDnB+Z7k/5Wp/f/f/nj/f3Nv4n8Xh6D/MbGx/8P9g/7PWHkLZYkCljAadEJDMNL+///45uH/xx+QR+z////1+eX/Zy9f/v8B6lz/+/n/xbt3/z9AV+F8f/P0/8unbyBF6e/P/28fPwyeTD1x4Sp8ln3QxQweBw3JSMPjnxEhNRppQzCaRyNtCEYaADEPwnjAVicRAAAAAElFTkSuQmCC;" vertex="1" parent="1">
          <mxGeometry x="70" y="170" width="109" height="136" as="geometry" />
        </mxCell>
        <mxCell id="Ez7FeFpJxv9Nc_yo7gzA-9" value="" style="shape=image;verticalLabelPosition=bottom;labelBackgroundColor=#ffffff;verticalAlign=top;aspect=fixed;imageAspect=0;image=data:image/png,iVBORw0KGgoAAAANSUhEUgAAAHQAAACPCAYAAAArz//9AAAgAElEQVR4Aey9B1RVabqnb3d19//e2zN3Zs3cu+bOnbmpw63uqq5sGaqMYM5a5hwQzAkjOeecs4AIgqKimBFQMigSJRgAcwYlx+e/3u9wLLSMpdVt9ZRrHfc+h3P22ft7vjf93m9DL37691c1Ar3+qq7mp4vhJ6B/ZZPgJ6A/Af0rG4G/ssv5UVvogwf3uXCpivzCYopKz1NVc4Wmpqa/MkSvdzk/OqANjx6SnZtHanomkXsScQiOwz8+GdfIBNwj9hF/OJlT6ZkUlZyntaX59Ubjr+DdPxKgXeSezWfPwaNE7z+KZ9RBPGKOkpBXTdbVNjKvtJJ9tY306mZiT5XivvMI/nFHiUk4SnziUfILCv8KUL3aJbybQLu6aG9ro7C4hPBd+wiO3k9YQiqhh3LYnXmBrGtt5N7oJKO6idOX6p94ZNa0qJ/J6zGnywg5mMX2hBRCovcSFr2HktLzdHV2QlfXq43Qj+xd7xTQltZWrtTUEJdwGEffMHx2HiQurYw92ZdIufCQnOsdCLCnIT7redrlBmW5OdfaSa6sY0/mBXanV7B9fzJu/uFExe6j4sJF2tvbf2TIXny67wzQrq5OduxOYJ1jKOGnLnK46DbpF+vIvdZK1pUWBNCzwL3Ka/LZnKutFNzqJO1SPbE5V7Hcf5YZ29wpPl/x4hH6kf303QHa0Y5HyE4GWR5kemQlxoeuEpx1h4OltWRVN5BT00j6a0JNu1xPdk0j+ddaOVlZT0BaDStj8+njcJifrQjjN4utKS2/8CND9uLTfaeAeofFMNQ6kSE+RQzwPMcw30LmR5Vjcqia0OzbJFU8UmAzqxoQWGJtT1uoWGNGVQO5V5rIqWkh+uxt1u85h477Mf7Xxih6Lfall54fvQyC+IO+HecrLj5zhBobG6i8WEVba8szf/6uvvhOAtX1K1YwdXwKGeR5TsEdF1TMwp3lmB+uIfrsXU5friejG54AzKxuJKu6kezqRg6V1mJ9pJLhHsf4jXEc7y0LotdCb36m78+vlgepR69lwQpoxcUqxUZcfntbK/mFJQTviMM/ai9he5MIjIonMCKG4tIyOjs7NAnVu0oT3h0tt6ujHa2FaoGKhWofQ70LGOh5DoE8PqiYxTEVOCZdY1/xA1IvPOJoWS1+aVeYHZrB741j+fs12+m1xFc9frEs8DHIXy4P5r3lIfTSD+a3iyzJycvn2rXrhMcdwDkwivDEDHanlbM/t5rjpXfZl3OZ2NPniTiQinNAJCE74yktr+D+gwc0Nja+c2jfqoU2NzVRefESVVXVr10WvAyoFqyuTyFDvAsY4lWA7E8ILmHxzmL62Cfyd6tCeM8gkF5L/fm5fsBjiL8SiCtC6CUgl3jztwud+IelrozZYI+lWwB+scdIyL3MsZI7pFQ+VJl0Rk0z6VWNyFYya8mU5eeH8q/gH3cM+4CdRO07olQqueaHdXXvBNw3BtrZ0UFx6XlOZeSw9/BJXMPj8YrYw+ETqaScSleAX+VKewId6lv02Bq1IJ+1FaC6voV86nAasTxxqT2tUdzrL1eE8DP9AP7LfHv+ebEdXxt6sN41HPeowxzIuchpSbQuN5JW1agAPi+bltcFsLxPPpNW1cShc9dwj0rENXwvsYdOkpqeRWFB4V9UofreQMsrLxC77yDbY+IJ2HUYr9gkdqWWkHWtXV1wWGImbjsS2b7vBDH7Etl78AiXLmvi1bMAa4FKljslrIxVey4o16qs0btAgROAT4Md4VdEb6c0/m5V6Hdg/mJ5ML828OWzlU5s8IwibF8yiVnl5F1tIfd6OxnVzW9UDglgqXPlWEfPXcV/TwpGAfH4bo+mrbX1WZf5g7/2ikC76Ghv5+bNW8QnHscvfBfhCcmEJGYSeTyflMo6cm90kXlFU/TLbBZJTl47Wf6AiGNnCTuURURCKoGRsUTF7ePK1at0dLQjyYj2n8TQgRYHmRRaRvrlh6zfe5FhPoUsi6tEx6dAuVotVLFMgfsioOJm//siR4YZemMQexGH1LvsLnqoIGZIUlXVoBKrZ2XLT2fPPZ9L+aRNwjKrGjlSVotD0mUmBmfwW6NYJi3fQmtTg/ay/qzb5wLt6uqiof4R165eJeFwEjYe/njt2MfutPPEZ1/ixPn7ZF9rVxqqckPPKCFkEORnorMK4OOl99iTeVHprYG7j6kkJG5/Irdv3qCxvh6v0GhVtvT1KCSpoha/9Ots2HeJ7OqHbDpwCYcTV5gYXKIy30FeBUii9CKgv1gRwt8vdOTLDUEM8a9Qk2J8UAlLYipwOnmNfUUPSL34SIGVWvdFda5AF4i5V5rJqGrkeHktAelXmBOWyb9ti9YkYXoB9JrvwbS1JrS3vKjr88PJjs8B2sW5olLM3UOw9olkT8o5kkrvkFR2n/SqJpUkvAhiz9ncc19clCQY6dVNpFbWkV5ZS2LOBSwC97DG0hVrzyBG2B+ln0chAek32FN4l5j82ySW3scksYq2ji5MDlWpRMgo8TLjAosZ7vsCl9sNtO+GQEYElaskSuvCxfIF7qo9F/E6fUNlyykXNHWuwNVabfrlelXTnrnWQlLlI7ZnXWPDngK+sE3g1+LmJQnT81NJ2C+WBfMzPV+mPwfordt3OF9RSVp2HmcLiikrr6DuLSdTzwba2a5kuG/s4zE5fpPQnLscrXikLkyUF7nInqBedV/EAKkV86+3cupSE6FZ11m7u4C+Tsf4XN8SMxdfRjkcZaBXIev3XSSjqo7C6/VYHq3G+FAV9xvbFWi/tBs8am5nY8IlBnkVPj+GPgW0Z/wV1z1U3LiXxpV/E1bKxoTL+KXfZH/xAzKrG8i/3kJ2TTPRZ26zdX8Ro7xP8o8bIhVASbTeMwh4Im6rxEzPlxnrTB+72Tt37pCRncex5NNs33sMp7B4ghNO4xVzBIegXcQcSCIp5TTZeWepf/To8ee+785zgcbsTWSwyS6+9illpH8Ri3ZWYH64mvDcO6Rc1MxkiUHPU2y0kLXKTU5Nkxqc3QV32bK/iBFeSfzzpmiNcrPEn0/0LLB081dAh/oUMyqgmMv3W2ho62JSWBmWx69x7kYTh87XcuZKA3fq23E+eZWvPQq+F9An4PoWKvc9wOOcsuK5O8oxPlSN1ZEKJvmn8AezeFUK9VrsoyD+sluc0IoUAlIeP18WTC89fyYYbOTkyWSi4vYSuusAvnEn8ItP5WjxLU2D4UqLCkHZ1zpIyK3CM+YY3tGH2bn/OLv2JpJyOp3W5he57OfjfiFQHbNYdAPKVOyRol4equ6LrsD62BXizt1T1qqShCpNDBJXJZA1SUMTkjQcK6vD+cRlxvsm81uTWP4/qQkX+ahBkkGRgfh0qQANYJTjcYb6ldLf7SyxZ26QVlLNeNNIVtsFYuIXy+nCC9x71EzapVr8M27S37OY3s4Zz85yn7JQSawk7vaE+fS+WO5g7wIGeOTzG5OD9FropSzylz3ECS1IyaJ/viyQny315z09H/63njP9DCxYbeVBeGI6IYlZ7M+tUvCkUyQhRzvRtVvJtKUVKGFIcpPQwzkE70shJC6RwMg40jKyaGluQsrDV/n3SkC1Fy2ZpcQgASv7kqAY7KrENeW6clMSg8SlZlY3caKijpDMayyOzOE3Rrv472vC6bU0QCk34qq0gyJFf6/loXykZ4G5kxe65vHoOJ9isvkODMw9cY5IYPfpUg7lVRGdXEhg3BFsvMPx2HEA271n6e+Qxic2SfxyZRgi54mlaI+tTYq0MVRi7qiAIgX0RXCH+xWpSfzvRgf4xbKe56qRDeX4YqW/Xu7Pvy1zZvgqS+YZu+Iel8KhvMucKL1D2uVGcqQ0qmn+DkQtzJ5b8WSSX0iieepSPQfOXmVPRqXqA/uExxEWHU/umXyaW15cDr0WUC1Y2YoEp00wZFYL3A37LuN56hpb9hfT3+kQ/2VV6GPlRor+nrNcBrvXijBlpb9c4MznCzaz1dpZWaJl0F72pJVx8vxdkitq1QSRkkga2vJcFJv49DJcIg6y3jmcCSbB/O+lrvztAid+puejFCGR995bEaqyXAGq41+G+ZEqQrNvouujyY5FHx7sdQ7JmHtemwCV94iFPg/oz5eHqHNe7RRBxOmLpFQ84OzVJs5ebyVTIL5mZ+hpuDlXWyi61Un65Uaicq6xKTaXaaa+ZOSceaGhvhSoTkCZiis9L/jpfW2CoetbxBdO6Zp4s9TvO0mDzOz3lodqLGmBM/8wz4oPDWxZbBOIfUg8kcfPkn7pEVk1TWRUP1u50So24r4EsHRe4k8V4xF5AEOPKAaud+NfFtvyXxc60Es/gL9b5IIW6OLoCspvNTIppASHpCu4JF9hRvh59ZCsVyaouORXASoT5sPpaxjhlMzUyItsTKjGJ+0W+4seqHP6vu2+3Jom1e47UvYQt5MXWBiZxZ+sEuilF8i/L3cjOyf3+wMdahrLqODyxy5Ka5lPA9U+H+lfTF/XTH65LOgJa9S6KLHQf1nqRJ8Vdix22I533HGij2ZzuuIBeTc61QoDAdZztr5sX+OqmtXnc640k5BWTNj+U1iGJTB6oysfzt2o6tBhAeWM8i9SgoXFkWoyLz/EL+06gZk31P5Iv0KmhZUyIbiYoSIpvsRCFdAZaxnhmMRQ/1IkoRI3PjuijE2SLWfc5Fh53eN2n1QG2lJIe03yXJN/aOpbKQlDs25gsDOXr5wO81+lwbDQu9tAgvj9KndycvPeDOjwwDL2F91jWWylmsFaqIO7xXEtTNkK0H6umSqG9XSvCuiKEP5msQd91nhgGHyS2NzrnL3VxZkbHWTXNKkLe/qCtRf+sq1KwkTAqGkm73o7aVfa8UqtZoRFOJ9NNdAADSxHoEXm3eJY+X3yr9ajv6uSA8X3aO3oYvnuSvYU3OF4+QNlweKKX+RyewIdFnBeTXrxVOK+v/Y4x+iAYubtKMMo8dvK4LE6VdWgcg3JNwTo/qL7GCWUMMjlCP9nS7TSniVp/HmPXKOX/lsCOsT/PJlVD7E9VoN+bCXhuTdVX3JKSIm6CHFRg7w06f7LgIr7+8IwmPGBRUwJr2B53AU8U69zoEQUG6lR5UIlW361OlfKpryrzcpFSxIWln0Ng+gz/NEinr9fF8mvVwTyn9PX0GdDEMMDy5UFWR6poqG1Q6lPA72KyL/RzOXaDsLzbnP5XjPnrtUzO7JMJX6vC7Tn5JZxkeRRtmMDi1Wj3qa7Mki+8IjD5x/gkXKZif6p/NPGHfx6dZim8a7n90RtK8Ygj7cH1O88AenXCc68oRKevCuPcD55hco7TayNv6jc2PTt5xnuV8iIl1jo3y125fMNgQz3ylOrEuRidX0LmBxSiuH+ywRk3CKh5IFyTblXGlUseto6xRqlpj17rYWUiw1E5d3QzG7Xo/ztyhA1GNI+62UQwN/p+/L+tFX0XheglCJpli+KrqCxE6IKHvKhdTq7UwsJP36Ogiu1XG2EfSV1zI+qYKDH61toT6DafZVfSLvPu0AlkuOCSpkfWcQnVvv5mxVBSmFS7b4e1qiF2HP7VoDqmMYyyLeUjfsvcuaKNJEfsCPvtnp+t76N7dk32ZZ4mYLrDSyJrmCwV+ELXa4W6EjvMwzrXpWgTajEhctFz4o4j1FiFUGZt5SIIGCzazTLSvKuNJN7pYX4wntYHDrP5IBT/PPmaM3Mllqwh3IjbbO/NfCj38xlTN7qjU7wJYb4lzHS5ywmEUkscYplvlMc9mEJKiGLP3QC39hjBB/OZXFMJV95n+ffTQ/x3nPKlp4uV8f/vNKXJfPXgnzWVq51uF8xH9ul8Kvl0tZ7MvPvCfDp/bcD1EwDdNr2Uu7Ut3H5fjMb919Sj7RLdaReEDd3UwVp2+M19HcveG2gPS9cW+d+7ZHPCL9CpU6ZHa4hIvcOB0tq8UypYnrwaT6y2sevVgTTa5G3muHfVW6CVEP7l0t9mbzEgHW2ngy0T2H0tlAWOu7CIuwQPjGHScwuJ+damyr4d5zIxzv2OKHxJzBw3MFIo3DeXx+qSUgMgtQyFq0iJIOtBarrcILJ2ytYE38BKYMel3K+klh9F/BI/xI+dzjFr1eFPbckehqmPH9rQIf4nVfSn8SWS/eaGR1QhPWxGg6W3FMx59TFOh40tuOWcpV+rwFUlploW2A9oWr3JWPUqlOTQ88z1OMU/3N9xLfLSgy+XVaiGYBgNMpNED9f6qdE8v+xyIHJS1azytQB+50niUk6y6Hciyrm5t18ut3XiryWUlnLvrRiYlMKsIk4xJi1NvTWt+B/LnXj53o+6tiiDokY8sGMtQy1P8GMyEoOn9c0EEQmXbn7ghozjZvV1Ljaa/2LAxV3IjNNP7YC6XD0dctXqX5iyX1V0xXdkJ5iHV6nrr0WUHG5khFqL1QL8umt/Fzq2/9rdIBei72VQvOsGfyr5YH83VIv/pueG5+vcGDKelu2+cQQl3aeIwXXSbtQq6zxZWt8pYskrT5luRfrSCq8yoGsSmzCDzJ7mwuDVtvzT8vd+a8rAvhoxhp0HZLQ8StlX9E9wrJuYrhf0+5bEVeJT9p1lTFL0qhNkP7iQEXLlUGWBEYe0p2QbFfghufcxDftOrvO3iYk6yZ93V7ucj9br0mK5kZVsDnhkjq2pPmaOu67Lkq+W7Ln35kf4mf6fo9lvZ5Qf7EsiP+12IGx650w9YsjMaeS7MsPkTJBVBt5fJ92n3xG5Dj5fE51A+euNHKy8Dqbffegs9KavlP10HFMpo9HEd6nr3Gg5B67C+4QX3BXhSWJRfYnalSbz/xwFVNCSxjh9xd2uVqgMrBaaxKwksRIOi7FumS90okZ4PnypEiADnbPZd2+y5TcaFDHWLm7UrXLJG72c8v/Tux5EVAV1/T9+MM8I+Z4ncTs2E2Cs+9y6PxD8q7K2tw3b/edu95K6qVGAtKvsmzXGfq7JvFbA2f6TF6ArlMyX3sXK4BHyh5wra5F9WyXx1Wq3EI8lwgYze2dqlmv61vMZ3+5GBqnui1Pu0Htc4lzEickrgrYVy1bhrrnMmdHBRJ/xTWdrKxlV/5tHJOu4Hv6OmMCNIvEtBrry4D+ysCf9+cZo2t9kK+9NOK7LNA2TqwiJOsWSRUPFVipW5+l2PQsjaTQlxUJUhqJBBlz9g7rdp9jsOtR/mnjTpWI9VoayD8ttKHvlEUK6GDfUiUf5l99pJrw07eXYnzossotBGbJzYbHoP8yQOkiKv4QA4x3MSSgEl2/Eob5aQZKC7PnVsBKyv5SYaG7Dh3mmce44FLizt1RK9tzah6pwZfntU3tSmGxP3FFzWyZKMN9n+9yVXelG+hwm0SG+ZcoAUFqTolb0mFZGFWB+RHNAm3pCKVX1asaV/Vzu9t9apF2t2J1qPQBdkcvMNr7BP9hFKs6OE+0+1aE8S8LrdGZMpfhTieRPEOuPyL3lsr8Zd1wQMYNim80KPVJqoOCa/W4p17jjYHmnX196a+rrYHjB2KZY2jJSMdjDHTNYpB3EUMDytH1L31urfWqQEd45alVCR4p17hd38aJ8gdKfZIBEbVGhPOMSw+58qBFJRU6PkXPjaHPAtpzsokHEbiS2AlcEegdk64SX3Cf5Mpv232yUDsgvYb54dmq3ffr1d0li56v6hj1jNmS4X5oYMPc+fMY7ZKMbjfQMQHFaqWihCbXlKsqxxBpMf1yHemXHuJz+g2BrnQlJyMNup7fG9V0Wzra6Gq8R+eDKjqqTtN6Joz20/ZcP2BKrPsGHOzMmWsbiY5NIgMc0xjkV45OQPl3rPZFQH+xMpRfLfHg0w1BjPTOo79HAZsSLqnZtq/wrqrhRLgQAUN01vSLDym50agE8zcBqoUrQLWJnXgUif+r4y8pq9kYX0Rvu4OqqSDrerULtZ/Wo7VQBejHy2xYsHD+Y6DyPSpp7F5yKp5FVDBJHsX1J5bcwz/9xve30GWh/N7Alowoa7h8jI5bpXQ13IGOticsthftmqUOHdfP0pLqQPPRzbQkWdCaakfHaXtId4DTdhRHbWK3+3ps7G2ZahGOrlUCAz0Lul2yWG3Rd1yuWI9mxXoYvZb48T+mG9F/jScjvM8wxLsIWccjC8DkomVWi6UeKr1He0cXUhYJ3HlR5Qx9DQvVVS732dlyT7jaMPGJfRrvGQTRa6mfWvD1PIhamLJVDfllNsx/Cqj2+LKVCSRuWJJHeUhtumJ3JSP8vmdSJECX2ZMeshHSbWk5aUlruidtBdF0XMulq+WhAtur9Uwg8ui4nkfn3Qo6ruXRVrCTlmQbWpKtaUmxpTXFVgM2y5H6Y+bkR24kMdCUjdbOTNrmxzD7owzyKWFYQBl9XbN5T1YhGATz86UB/Lf59rw/3wgDI2N2Oq1imYU7gz3OKglMLlQGVpZiSmLlknxVLQgru9XI9pxbFF5vYNHOcgX/eWVLT5c7zDqRccHn1fHE1crAyvG12XnPAZd9+d4+avmKqDZPCxXfrk7oCbMn0HkL5jPKJRVd8VY97sN51r64fUnyvncduiyM3xrYkxZsCOnCxoa2/Ajaq04pbp11V+nqaKNX09H11Af3oWnPTJqPraetJJaOu2V03r9Ex5VsWvNCaTntTEuKHS0nrWhPtYVMR0i34/YBY87HbGGXrxkrjKyYbhlOH7sk/vsSF/60cCsz1mwizs+I87uMeXTcipZjJhi7+PK127dartZShvsWKqjSdlocXc76fZcovdnIgtcAOtTqIBNDy9hbeJfVey7wlUe+UmwEqAzo01qrFqhGhnt9oOJyRzgeZ5B3MUN8i9GR/KJbo34WVHntdYD+ckX3jVWydGeRL7/VsyYzxgFuZtNZW0NXw13arxfQdMSUhpgFdDbcoVfzSSMawgbRENKP+qDeNETo0LhrEs1H19F+4Sidd0rpvHdRE1vPhtOS4UnzSStaTlrQddoOMhxoTbbiwWEzzu82w8VuG77OW6neb0btUSvNe2QCZDpy76AxW5x8GNADaM8Ll2WVEodkJstgC1hJNETQfiULtUmkv2chpy/W4ZF6lZnh5zlcel/1PUX0l0kjlivZr7jENwH6/lIbYt3W4+u4ldWmtky03cNglwwGeuQzxL8cXemRPqMyeBlQTZgKVR6u1wJ3frHAld+udGfcVi+cw+J4cOU8nXfLac4K4lHIWB5696fW7nfUuX1G56Ob3UC3D6YhXB5DaNg+kIbQr2gI/VrzPHIYLaesaL90nM7bJXTev0j7pRTlu1vSXGg+YUpbshWdp+3Voy3Fho5TdpDmQGeaA62n7GlJtacjzYG7B4zY5OzPVx6FDJNS6AVuSgZc3WH2EqWop8uVsqW/R6FSraJyb6maVlYmWB2t4c6jNpWEyYSZE1mm4MpSE3G538dCf7fEmnO7zCHTjkfHLTnhb4iXwxZW2vkz0jqBgbYnGOhdwtDAiieu9XlAf7EiVLPGarE378204p8W2zPZIhCrkL2cPp1C++UMOop207BjJrVOH1Dn/CG1Du9T5/hH6hw/4KHPADof3XoGUIGqfWwf1A24v7LexpiJtGZ70laZSMe9im7LTaPtXBTNEm+TzGlNsXkMUUBqH+2nHXh41BwjS0v6myYgxfjQgApNjfsCsBo39WoWKkAHehcpcMfLHpBx+SHBmTeVxNjU1qkWiG07eFnFZrkZarB34RsBPRtjBlkOtJ+ypyvNHjLtubLXiETvdXg5mrDAKogRZjEMdM5kcECFqldH+pc+7ra8J0tABaR+EL+cbcs/zjJhxFZPXKIOkJiUyr3C41ASS+fRrdS7fMhD+99qADr/iTp5uHyseTh9+IpAtWC127AB1Ad9oYm5CYtpyXCm/cJhOmur6bx3gfaqNFpzgzXJlCRVKfKwpSXVjtZuuCW7jNnpZYq+qRPjjYKVFqrg+paibvR9Rgx6kVL0i+Uh/MIggN/PM0GADvUtZnJICedvNVLf0sHqPRcxTrzMuav1Smc9UnafTrqUBv2VR8GbA810eDxptZ6ILCc6Uq0p37WZ1JAtuLg6MH2bJyMt96DjXchH9mn8YkUYP1/ozj/NNuarVTY4R+4lOSOXmuIsKNwBKRY0hYyk1vpfqLX7zZMAtSC12yeBGtPQ0+Vq4b1wO1gTcwM/pyFSl6aEJbSm2dJRk66CtcDtuJhEa7YfLaedNBmzxF3JljMc1cVe3buNkhgjQjzM0TeyY4JFFCIJSvIiCYYSMLrhPg1U3KwsA/2ZrFRfGsh7S7z5ZLahAiqufKBXATnVD7nb0KZipqhOx8oecOpCHTUPmim91aiUHFl1/yYuV1noU0C1HqntlIO6VjIdVGVwcdcmjgVtVR5q1Hon+q+wYbPndvULtWoqi2kvPQDHNtEeNZWHzn+i1vpfqXP4w7dWqIX3rO2bA+3hlsMGKottCOlPY9QoGuNn0ZLtTqeUQbVVGsutOEJrXrDKlpulxk220pRB6Q40J1nx4Ig5Gdu34mi1hRUmdoy13ccg53S1DGSofzkjAsv5ncVhehkE8jNZBqrnrzTVf1zixLAVW1lpuJYNa5cz3PaQcuFDvQtZEFXGlgOX+dI1X8GT/q0IFgJUFKnAjBvqNoofCqgCqyoDS9qTLSDbjc4zQTSUHeP+jSruV5fQXHkakq1oCx1BvXdfau1/p0lwnD98NZBauK8GdCgN4mKDv1Tbx3H1uZY7WPM+SajCBtIQPoimvfNoPbedjqvZdIlbvlNGe8VRpUSpGveEGW2pNip5kkSq45QNdccsOey3ERerTehZBzDCOoEhDqn8320H6TXHSS2c1llpzMZthkS7GVJ71IKuVGsC7DagY534OCZrVSERP2TFoqy0EIiyhCYo86ZaafGDWWiytUoWJeS0ng2nvfIInQ+v0SWP6jS6pBQMGUG960fUOX2gSW4k0dECet3tqwCtDxtAY/xsmpO20rhrIg2SID2G2Z0RP37ew2LlNXHh8v6wATQE96E+tD9Nh1fTdi6M9l/iHckAACAASURBVKsZ6uI6b5+nXbllf5qTzDTKR6qdSjBIt4c0Oy7t3sYh7w24OVkyc6s9RmYbiXHfyOU9Jogrk5KpM82R9hQb/GyfBCrJlNSfUqpoSyGR40SdMjtUjcvJq0rpemsWKrnCSUuaT5jRmuNP+4VjqrwQBaft0ilaskOo37WIWtvfaqxQZaqS3Hz0/UFqwT8BNPnZMbQ+pB9Nh1YotymJT0OEribjFVBS0ggsLbzngdW+LoClzg34hIbI4TQf20hrnh8dN8/R+eg6nbdLaa88RstpF028lZmdaqvJHLMcaUqyoireiM5TtpDjRFf6t4mIxKrWZC1Qjct9XjkkIoaoUwJWswz1zcqWs9EmkCEgrWhNc6W9PFGVdl1N9+m4U05zug+N+9dQ59GbWqv/Q63976lzeQsAtSC12yeBmjw7KVIWOUgNuoiEjTHjqQ/qQ1P8bFpzfWg+vFoDVNxySP9uN/uUpWqB9txKzA3qrSmDYifTlLiM1rMhdEoZVFtNx50y2kr20pLmSnOqgxosccWiKQs8bdKh3WqBeluvZ4D5AQb7lXUnVC9q92ms9nWFBW0y1ssghP87z5Qzu6ygLI6OW8WI9NZZd42W/GgaYvV4FDhcExNt/k251e/tTrXQXrR9JaDhQ9SgtxVFq19R03x8I/X+n9CS7qjaN+1VyTTGfUNzsilNB/Vp2DGih1t+iUvWAg79ivqgL9XnGqPH03hAj8bCXbTdLKb2SgnXi1NpPhdNY4YPjSdtaD1poepcLUzZinAhJdFBn43obbVhlP0RBjmlKbVJ1bkvaPe9KlCVUUsytsiLXvNd+YflfowwdKE0P1tZYlvlSRr2ruShz0DqXD+l1u631Dr859txpy8Cqf3ZqwKVzLX5mCFdzbW0FUZSH/oVbRUHlKrfku5AY+wUOutqgC5ltSpuinsN+5oGkRFD+3+rQGkhPmurdePdCVVjhA7396/kfn4szVfPcrWigLrKDJoK4qhLdVdxqi3ZUnWEtHBFuLh10IL93htxtTVikW0IOpb7GeR4WlmtjlJsNL+hTOuSXwRUdNSfyS2K+oH8fLY9f7/AER3TUNa5hBLm78r19CjqjlhS69FHY4Gi2EiZ4fSaGaoWyptsXxmoDPSOEXQ9vErHjXya9s2j69F11aoRmKIcdTbcUoA7bhUotyzSYUuKKa25vjTtX6i0YU2d+wruWGA/Tqi+pjGkD/URw7h/xIiWkjjuVGZys6qc5uocHuRG8yjZgbaT3eqUJFSq3adJqMp3bWWf5zpcnG2YbhaErukuBnucUe0+WaUn7b6ngcr6XllvK+2xny105+9nmvHpane2BMQTGhZK+QEXOtLcaQwbR4P9f1An0psAVKrNDxAbXxXyk0BNnx1DlSUNVlbWfilJgWw7F67gtZUn0BD2FU3xc6Gzna7Wejrrb9IYP0dNAImF8k+Snsbd0xBL/zZDfkWwWkvePkiBbQz6grroyTScNOdR/k5uXDhH051qaivTuZsZTrO4X6VMaRIq1cfNcqTxhIXq5R4P2so2a1u+2ebDCNuDDPYuUssveztn8TdiiUsD+NlSP/7HfBs+XGLBcvcd7DtykuxdrjQmbqVz71Ia3T6izubfeOj0xzfPTF8V1qu877WAhn1Ny2kbutqa6GrV/FKH5mQT6n0/pGnfQg24O8V0PrhEi4qnBo+76J1N92ncN5cGUZTEDWshfc9tY9hXCNj60AHU75lNU9I2bp/ZzaNbl2m4dYFbxck8yglT2XJTsi0tyVZ0SGYs3Z4Me+4cNObCbiP2+hmzbpspc0y8+NJ8H/+4zIfPDGyYYezG3qMnKD59gJu7N9K5ez6tQUOpd/gtdXa/fbH89ioD/0O959WBDlEgJPkRK1RWd/e8ip31AZ/RdGCpeq2tLJ6OmtO0XzhEW+lu5YY771eqJRJN++bTuGcmkvQooFLuvClcFXP7UR/Sl/oIXXU+tceMeFB+ktZ7F7h9uYR7pSk0nYmg4ZQrTUmWSMyV2pbTVrScMONBkiM1p8Jx9AvGKyySK4WnuXnci8bwKbQGDKLB7WPq7H+nEcN/KBBv67ivBVQGL2KoiokdN/NpzfPXlCmhX6m2mhBtOWVJa9FOFVulkG6/dIK20jg1CZoO6NFxJRNx2w3R4zTyYPRYTUYsx5bH97RY9TnV7uuui7cPoD56IvdTXWm5nErt1fMq5jZcOMWjnO08THWn8exOWqqzuFdTRktVNk35u6iL1afJ/VMaXD/WuFNJcHp2M97WwP9Qx3kSqImmwR3+ooEdjAgNDZHDFBAl7YV+rSlhFFAbmlPMlLXKf80ntqg2m+yLFbeeDUKK7ca9c2jN8aKjJo3GuGkakAJUji1QJSHS9mVfG7KoU/IYSGNoP5Vl1+2ZT2O2D02Vx7hVU8bdmjLuVObQnB9D7SEz7rv345GtxMQ/aAC+DdXmh4L2ouM+AVRWLKhyQTTYAS+2GLEGrUWFDaRx9wyl1TYdXkXT3rnQ2kBn4z3VgRElSAFNWEzT/kXIYjSJxQJT/qn6VVlvOmrVhBxbuWNxyaJCvWIt+wLwjaFf0RjwKY+C+9KU5UXrnQvURi9ULak623//y5QYLwLzfX4mnsThfR569tWsWFDS26XjtKdZ0bbnG1qidGmJGERLxECaXjaoCsBABVDcstSmLZmu1Pt/rNQfDVA9GqNG01V/U7MQ7X4ltDfTVhBOa5a7git9VdGM2y8n01YcQ6OUOzLJZPKI0K/E/tfMjnuCDv6S1uMbaLt0moe+gzTlxvcZvHfkMw9dPqbe5U80uHygBP6Hbp/zKGgknfW3Nb/RurW9i7oH97hankdhghOlITO5GTJCucH2iAEKbmPPAeq5L4OuHt2CfLfC1JJqSefDqzTtX6zcYMflk2pVWufdMtovHkficXv1Kboa76h+qpQ8rYU7NNDvlaOUqdCv1WQQ/VeJFFL+KLf8mnBD+tGStJW2qgweBgynzvEV+4zvCECtbPjI5SOaXD6g0eUD7jp/ynUvXeoOm9N5JQea66Crk15NTc20tLRyNDWdbXZurDayYauVI56OJhz0NKA4YCq3Q0fQFjEAgdsU8QJXqBUFBLjEspgJGklQBvSUpbJGEfqbjqyls+keXW2NiIRYHz5EE2tzfVRHRnmN+xdUDdua6UJb4Q5ltU1S5wpcZbkSHl5wLj0n3Y8caIPLh7S4aCbhZeeBpDtOJNJ2GW7uLkTuOUhl9VU1tvJfr5Do3fhFxBAcvZuUjGzi9h/CwtmLtSa2rDN3wdjaHn+nLRzy1Fdwa7fr0hH5tXLLjS90ySIBSl+0u0+6c4xasiJifMOOkSpJkhNoyXRRnkD6pfIrXTuuZikRg45WmhOX0XZuO3R2KGvvvHteLTetD/qchp1jNeWPkhdfYrE/QqBijWKJTS5/5KpzPzIdJxJjtxQnayPWmzuyzsIZJ98QjiSlUlZ5kcyz52hobKLXKhMbfvfVCAZ/Mx9DK0es3P2IP3ScrLx8AiNjMHXwwNDKlXUWrlhaW+HvuIVET33KAyfTGDFEgW2OGKQs9/mAhyqrkvVIDSF9FeSWpG20Fe1UyVRD+FA666rpanpAw84xam2wwJaOTuuZADX7RLhoLYykSTLl/BA6bhXSXp1C86GV3fH2Bdb6GGj6O+tyH7p8xCOXP6nYKCDvuXxGnuNYYuz0cLHewjZLO9ZauqlfcLlrXyKl5ZXkFRQTEr2HtWZ2TDNYx43bd+i10doJ/Q3bMLF1YsI8fb6eOJMJi1awaIMR9j7BZOTlk3g8Ga/gCGw9Athk68kGc3ssrS3wd9rKCe8lVIeM41H4UJVEtUYMRAA/N+YqV6jpj8oaYIEp8VESKrm/puPG2cf6sABtOxukgLbk+FAf+IVSo0Ru7LhdgkiQ0hxoPrq+uxHwHEt9R4EKREluBKDsC8QSp2Hss1+Aq/VmjM0t2GTjjqVHMKHR8aRl5VF5qYq9h0+w3sKBKXqr+XzkFP6tjw5fTZzFrTt36WVo6YihqTXxe/cTGhGFT1AoWyztmLRgGcOmL0Rn+kLmr91KVPwBUjJy2BmfQOjOOBx8Qthg4cwGUxvMra0Jcd5Emu98akLGIm5ZwLZFDnhBpqypGR+XJ9sH0XRAX3VtRHHqarhN86EVqsujcc1uSm5szfZQwb/jTgktmW503L9IpzQGokZ/23TvGT9lvxtoe9W7YaFiieJKG10+5I7LF1Q6DeGYw0y8bAzZamahMRj3QMJj93P45Cnyi0vJPluApZsPY+cvo//4GXwwZCwfDB7LJ8Mn8cmwiQyZOv9boGuNLNm3P4GNZjbobdiGnZsXgWER+AaHsdHchqlLVjFw0mz6jZ+JoZUTsQeOEH/oGAlHThC99yCWrr6sNbFhvZk91rbWRLmtI8N3LlXB46kPH9oj5j7HgmTQtYmOrIbYPlDpxI0x42jJcKSr4RYtWe5qxUNz0ha6xEIfXKLjaia0NUJHi0aoeF48fUeASpnR4voHHrh8QoXzEFIcpxJmtxpTSytWG9uwzc6dkJ17SE7L4lRWHqdzzhC8czdT9dfy2YjJfKw7gY90JiiAn42coqxTLPQ7QNcZW7I/4QALV2/i/UGj1RvHzdNn+WYTHNx9CIvciU9AiAI+edFyPtGdyMjZeli6+xIYtYuDx5NJzcghdOduttm6ssbUAUMLJxztzYl2W6PgXgkZq+KtZMtS3z7fJXcrPqL3itgQOYzmwytp3DdfrU1qiBqlpER1O0CKKS3JJrTmh9IQI+ueupfFvCMWqo2LqtRw/YDLzgNIdfiGSLvl2FqbscbMiXXmjrgGbOfk6Uzyi0o5kpJGaMweVhlbKw6//3okH+lO4NPhkxRUAfj04wmgGywd0QJdvHbL4w//SWcCHw4dT/9xM5iwwIAVm01w8wkgJCIKd99A1ptaMWLGQj4bOZk5qzezzd5Nzabs/AJOnErHMzhczbj1lm5ssbTH2c6YaNc15PjN5k7YCBVnJdZq4u0LEprtgzSyo7o1Q1Yifq3KmfaqVOWW26tSaD5pTEOEWP9z5Ms/o4Vq46Km8P+Qm85fkuE4kR12BjhZb2WzpSPrrT2wdg8gLuEQJeWVZJ7Jxy8yRiWlI2br8Zt+w3h/4GgF8Wl4z3r+JFALh+8AFfPWfvDjYRORx9h5Sxk5azETFixT7/f0CyIwNELBXbPNHN2p89GdvpAZyzewztyegydSOFtYSvzBI3iFRGLu4o+hpQtbLaxwtDUlzn0VBQHTuRc2XJUtEnNFnXp+ptzDXYuKtGO4UpdkBUVLmn13I/35QJUSVZXOox9AWBCIUiuKS5V9iYvnnEYRa6eHk9U2tppbsdHGHWvPEMJi9nA6K5eKi5fZdeAwa8xsmbh4pYqFUm38SWf847HXMnjZ9rWACtwvR09l+RYTDC1sWbh2M+MXGKA7bQHf6K1UblgsV2KuWO6yTcaMmaPHiJmLGTd/GVYefqTn5nMyLZP4xGMER+1Wfyxgvaktm8yscbYz5YDnMs4HfsPt0JHKHUudK5b7wi6MuGQBK1myypZ7AH+Gy9UAzXirQMUKm13+qO47ueX8JSXOwzjoMA936y1sNrVkg7md+ksXEXEJHEpK5UxhMaez8zBycGfU3KX0GTudD4aMUwmOuNSXgXvez78X0BVbTTBzdMHE3hlje2fWmVoxZ9UGRs1eorLhGQZr2Ghui4dfEOFR0bj6+KtyaMycpfQbN4NJS1YTErOHpLRMjqWkKbcctCNOxVxJCDZZ2OPjuI2jXks5HzhFueX2yG516rkCRrfcKAnV0xB7Pg/pp9GKq94cqFiglBmS3Nx1+ZzzTjocd5xJgO0GtlnassrYFiM7d8Ji4tUkTs7IJjk9G5/waCYtXqVC2se6Ex8nN8+D9DqvPwFU6pmnY+hnupP5bOgUPteZwmfDv7VQEwdnjOyc1EOgmjm6YmLvwqpt5sxcvo7hsxYxcuZiZuivYbOFHQEh24mIisHB3RsDQyN0ps5Ts1J/s7lSpvYdSSL3XCHJaZl4BIVjaOnMajMnTKxsCXTaxFEvPUoDv6Fuuw4CVxtvn59QPcdK3xCoQNSWGuJapcw44TCDULtVWFlbssbMmQ0WTrgFblfXkldQxMETyQRFxWKwxRwB+PsBI1WWKh6vZ0h7HXDPe++LgepMoLfeRPo6jufL9RP5bPQkeo/UuNyeQLVgZWvq4IK5sxtbbRxYvsWUaUtXq3g7YuYiZhqsxczemdDIKEIidqiSaPHazXw9YSbDZixilbENbkERynLlj7MeOJqEs18Im2w92GDpgqW1JQGOGrgXgyYqS9QmUy/OlnvA/R5ARXoTl6p5fMgV5/6kOn7DdtuV2FkZq8lnaOOJjUcAcQcOU1JeQVrOGbxCd6gcYui0BfxHP13+MGjMWwf4NNgngZrbf2uhq7fw8YgJ9PMax4Ck0Xx9cAxfWo7jy/FTWbbJhOcB1cLVWq2powubrOxYttmYKYtX0HfcdIZOncf8VYYKaEh4JIGh4di5ejF3+XplueMXLGfReiP8IqLJLz5PXmExsQmHcQuMwMjBR7lkc0szAp02kuK9kJqQcTzcrqOsVqtOPdftyl0A3d2WFyVF3yY3mqWYN5y/JMdxPDvslimIm82s2WjrgZ23Jrk5lZlD2YVLRMTtZ6WRFeMXLFMJpCo1vkdy8zSoV33+fKBStuhM4Ms1E/hqzxgGHB9Nv9Ax9Jn2DcsMXw5UC1a2At/cyZUt1vb0HTudPw0drzK53qO+QWfqfPQ3GKkaNyA0nNDwKGycPZizfB0jZy1BZ/oCFm0wZnfiUQpKznM6O5d9R07gFbpTlULrTKwwtbQgwmU9WX5zkRpX4IpbFrjfyZRfAlRuppXkRtzqdee+FDiNJN5+EY7WRhiaWrHe3B5br2AidyeQeCIFcanHT2eoXxoybOZivhwzTSU3Hw4Z98qlxqvCepX3vRSo+Pje+pPoaz2eL/Qm8OWYqUpkeJmF9gSqoNo7s9XGnv7jZ3YXxlP4dPhkBVZKIYnPo2YtUdZv4+JJSPgOtkftxNzBlbkrNqAzbT4DJ89hs40LB5NSla6ck1/IkeTTuAdFsMHCkVVGNljbmBPjtoYsvzlKV5YW3xOZ8jOAijWK/CbJzS3n3hQ6jSDRYS7etptV/F8tyY29OxGx+1Ryo5K51HT1vaPn6qsaXSU3uhPU9bzKwP9Q73kCqNSM30mKhk/mc90pfDbkGz7TeXZS9DS8Zz2XjFgs9KtuoHJBPZMC2f9Id6LKggdNnsPo2XroGxph7+5NVEysAmxi58wsg3VKvxw9Tx9bzwDiD58g91wRxWWVHDx2EnuvIFabOrLe3AEXexN2ua0my3cON0JHa2TH0C9pObmF9upMGgN0aXb8jVpXK0L4IYc5BNquw9TKhjXmLhhaOuEetJ2U9Cxk8uw9ckK1FxdvMOYPg0bznwNGqSSn53X8UKBe9bgvB9pDWJAT19ah38dCFdAJM5XeKNb5xeipqt5SFipAdSYye8V61ppYMV1/DUOnzkfgjpu3VKlTUgZFRccqXdnIxpEpi5YzYOJsZq0wxNLNlz2Hj3PhcrX6q3+79h/C2iOQ9ZbubLOyU7+RJdZtJXnek6g9bqruzazyn8Zx28kE267BysqMDVYuqoMknSRRbuSvB0qp4RoUzhpTWwZNmctv+g/jj4N/+OTmVQE+/b6ngNo9tlDRcj8cOu6JrOxtAJXugEiJM5avx9jeDf1NJgybsZjPRkxRMXve6o1YuXpg4uDCZmt7lSlPWbJSJVKDJs9FdOV1xlaqEyTZsjQNtlrZM3HBMlQmvXwDZi7enEjL4kJVDbn5Bezcm4iddyhbbN0xsrDE2dGSMH8X7GwsMDSzZrOdV3dys1spN8VlFQRFxaG/2YzRc/RVvSilhuioTw/gu/b8O0ClfXbgYCLLN5moeCDqhcQHrVsRC125zQzJXp/lWp/3mrhcAdRnzDQlCTq5eTB50iSWLFlCUOh29DeZ8vuvRzFvlSFmTq7q2OIFpAwytnNSn9XfZMykxcuV5UrHZ9LCZWwyt8HLP1i1+yRb3mRmw5TFK5U6JcW7o1+oirflFy+TmXeOuAPHcPQJZqO5HXaegUTtOcDBY8lknS3gYFIKa81sGTx1vvJEcu0yqT/t4aXeNYBPn88TQMWtLFm3lZ27YtUAbbGyZ/rS1QyeMlfNTrlAOcDCdZsxsnfCwtlNWdLzIPZ8XYBK+TJg8hzWGJmzfu0a+vfvz8CBA/hm8mSs7Z3oN24ms1esewxU+3ljeyelSGkBy8RYsn4rExYuUy55wKRZTNNbxTZrR7wDQ9gZG4d/SDjrTay63fIsZi7fgH/ELlUfFp2vUMmU9Belo+HkF4rOtAVKdpO2lDzeRH57epD/nM+fACouRl4YP1+ftUYWanCi43bj6R+EoZkN05euUR2XPmOnMXL2EuauMmStiaWyIlNHVzXoYk1aED23mqTIgd5KCzbHxtqKL3v3ZsiQIfTr1xc9fQM2WDopTVhroT0/33NfalwlYDi5KU150botjJuvr0oGmXxzV25gq5UDwdsjiN29R1mwNA1GzlyEnLtb0HYu11xV9aIkNu8PHKXpK/6ILPFZk0S86Ec64xkwaQ43ZQlKScUF4g4eZcU2S5VtfjVhhlqtIM3uoO0RSpcV8V1mvojuAkdUntFzlrJg7UYMLW1VzSmWJA8ZeC0ILVApe3RnLMI/bAeGhoYMHTKE8ePGYuvgyKxVm5imv/o7Fqo9xrO28j0Wzu4qBIyeo8cfpXsvsX/kFNU0mLNiPRaOrsTE7WHnrjhmL1vHwvXbOJWVq2pccanPGpwfy2sCUZJK6cxIlSBxXrxRbd1DzbpcWeJR39BI+cUqtsfGM3/tFgZNmafcrjS0jW0dVassaHsk7r4BrNhsqgR5SXa+njiLMfOWome4TblXsVaxXElwtEC/njBLfakcc6OlA75BoQSERrBsizlSjIvVv8xCnwYrE0e+Y9z8pY8TF4l7Iox8qDNeqVOuvgEkJBxkxSYTlm4yJT33LKPnLv1eLap3AbZ40j8OHqtqYBEzRs1ZipWbr7qu23fvqVWTz/xzk61tbRSVVeAVGsXcNZtVQiJqz/Slq9TM9w/ZzvYdO3Hy9EV0WVl71G/cdL6aMJPJi1awbLOJgitKkQy8AJX4JDNJypaBk+cqF/H5qG/4cMj47w1Uji192j8MHvNE/PukWwB38vJl774E1Rj4sQIVaxSPImHii1HfMGauAbKw78DxZO7ef0BnZ5daRKf975lAtT+UbUtrK5lnzuEeFM6CNVvoP2Gmgrdg1UasnNyV4C7tMtmX16RPKrNZFJ5Zy9dhsNmEryZqlCJ5XU5QLWzqXlIhFvV9LVSAjpmrh860hSoUiBAurkgsVSRGF2+/Hy1QsUZZtfDHQWPUch+RH3fuPcClmm8XVffkpN1/KVDtG2X7oPYhqVm5uAWFM91gvVp+Irrs4nWbldC+I3oXQWERmNo5qyRFygyZVZ+OmNQt/X27EkLrwt4EqLjhEbMWY+7ijatvEJutXRg5Zynvd3c4fkxAZaKLF5O4KCBFLl1tbM2OPQkUlJTR/kZ/g7snxefs37h1W/luO+8gRNsUlyy67NINW3H1CVDJlFdACMY2jsxetr5b/pvMJ8Nk2eG3C54EqAgL0n57Ok6+6LlYpxaog28wWzZvZtXq1dg4OOMWEMKYefqqs/Muu1yV3OhOUBCl7hfPMmfVJtUrPldyntqHmjvmn4PgmS+/loU+6wgdnZ3cvnuf5Iwcttq5Id0Hke5kAdnKLSZ4+QcRvD1SJUIi3UmMlWRKMlKBKWtLZy1frxIpSaaUqGD/7DKoJ2AtUCml7LwCGT16NF98/jmjRowgKCiIBWu3YOPi8U66XAkLIiWKNfYdO41Ji1fi7B9KXmEJ92vrnjXMr/zaGwPt+U0SoCVQ7z+axAYLB8bON1CJ0sgZi1hvYqmWp4RFROEbFKbKoAnzDR7HZOkl6m80ZqOFlEEuqvUmWXJPiD33HwOdtQQzZy82bdrMgvnz6Ne3D5ZWVgqoravnOwNUrFEWR0tyI2uJBKKc94nTGdR9D0vsOe49998q0J4Hlv3qq9eI3peolu1Lit171FQmLjBQ7SlZob8jOlYtDVULy+Yupe+YaaoMmrp0Fcu2mCjpz9zJTdWbohw9DVSgjp69RLl8EeodPXzYamzKzqidzFu1CWnJ/aVdrlijQBSYMmm32bmy59Axrt+6/fRwvZXnPyjQnmdYWnGRmH2JjzsYUuaIxLjNygGpb8N37FSJlb7hNkbMXKgUoKHT5jNj2RpWbDVlm7a+7V6kJjDlIWWL1GaSSEhJtNjQhG22LgyfuUgB3rs/AYONRn+2OlSbxYs7/c+Boxj8zTw2Wjmx++BRzlde7DkkP8j+nw2o9uwbm5rUhUXuSWDJRhMGTJrNkCnz1MIyc3tXQiN3IKsYJP4tWruZId/MUzF3+IxFqgxaa2qlhHtpFEjMFaDajogkFRKTpS79YuQUtfLwzwFUCRqPk5sJqoSSxkPU3gOIEie3+f25/v3Zgfa8sEcNDQquf+Quld1JCSRrj2YvX4edq6da6ysihqWTu3pNfibK1IhZi5i/RiM7Sh2qBaothT4ZrqlDXb39+aGAqqROd4JKbkTYlya+yG++4TuVKPPwkebXAPW83j/H/l8UaM8LbG9v50xRCc7+YQqu3E01cOJsFq3ZhL2bl8qUxTVLGSSrCkWQF+vuPfqb7wDVCgtSPr1toFIrSoYqcVFqxekG67D1ClAlXEPTn88Se45dz/13BmjPk2puaVEChqNvCLNXblJNgyFT5rJsozFOHr6E74jGLzhMNaqlhSZlktyHI010gflDABUrVA1vnQl8s3SNWi0hq+Hv3q/teep/8f13EmjPUblz/wEn07MR8WDKkjUqPo2evZiVm83w8AtUC7nd/QIxNJXb+rakTwAAD69JREFUHldqbi/oXnWhtVCZCK+r5arFbN0dDbHG4TMXY+rspe7ZuVRzpecpvlP77zzQnqN19cYtktKyMHf1UaXKgImzVBm01thSCRfB4ZG4ePsj97uOn2+g7rWJ37f/lbNc1UDQ6VZuhk3kqwmzVFa+O/EYsvqhtfXJvwTY89zelf0fFVDtoLW3d6i7lQ+dPKU6D9ISk2xYhIrNFraqSS/tuehdceq+1+Wbnm+hUmZIiSHCvjQNBk6aw8J1WwnbFU/Fpao/a4aqvb432f4ogfa8YPnNKddu3lJ3lct9OqJODZg8mymLVrDV0l41C5Zu2PYdlyvWKMsypX6VztDc1ZtxDdzO2aISWltbe37Fj2r/Rw/06dEWq5IaV34ziKwsHDBhFl+OmqJuGpIGt9xP869fDlWdjdkrDZHEKyk9i0f1DU8f6kf5/K8OqJaCtJsKS8uJij+orFMaB3JbnxT8oqEeTUnj2o2b2rf/1Wz/aoH2JFT36BFXrt/k2s3bavuqvcWex/ix7P8/AfTHAuNtnOdPQN/GKL5Dx/gJ6DsE422cyk9A38YovkPH+AnoOwTjbZzKT0Dfxii+Q8f4Ceg7BONtnMpPQN/GKL5Dx/gJ6DsE422cigLaeesIxrNm4Z2o+cN0Txz4RgrL9adi5xmCp9Eeqp+8lULz1q4O7ldVcedRPc/68RPHe86T9ocFRC1ZyrHKp4TxttskRLlic+gVFljdy8Fz7RB0hm0l4dybrW9Vp9nVSf3NG9y4eYu31jjr6qTuSg237j+g4zlj8SYvK6BdbVcImPYRk5f5cespIpeipvDBeD1Sq2upu99A+7O+7eYRFm6x48i1Z/70WZ/4zmutd09i+f4HhOU1P/mzrg4a6ut40PjyIT0f4cy8CQ7kVt3i0VPz4smDvuKz1ku42m3BIukZE/0VD/Gdt9XlsM7YlLDiH6YZ8Njl3jppxscDZxDR84vaqvHU1WG5y0ke1N2gvKAaWTXTfKeQCzfLydu1i4MH93Bi51Y+GDiSFc5Hqb59l4oL2ZTe6x7RzlauXszgzPWH3df2kNSj8URGRhIZGc3h3HJa5C8Z1p7C4Ys+7Mh/CmhnM9eqyym9IQPQyo38bK7fqCJ75071+eRSzc07dRePsnL8eD4YvJXE/Ivcu3eNs9drKDgaScyRdG53Avcy2Bcj3xtJVEwixTWNj8f7UfVporrPKa3qgXr9elYQo0Z8jc6qIAouPeBB7RXyai6SlxDJnlNF3LpZTW7ZFRq6Ta3r0VVyii9wp1G+DKi9TEq05vv2HpbzbKPiiA29Bw9lunEcF24+5OaV85zt/j75yMMbZWRVyJrdZq4X3+RacT57E2LZl635i488KuPoLjlmFIdSrmu+p8f/j4HSfoFNXw1lpX823adDQ44tnwxeQnxVE9cSPZjb35wy4MreiYyYMJxVk5ZjabkJN5v5/OsfPmbkwgDyilNZt/FjFh/pXkjcehtfsz8wJLxQrpB0d0tGj52Fnr4++gvH80m/UbgkX6OtKRun3s8A2lKFm/FsJvoVAbcI7PM+Y3U2Y7tiBXqLxvHxqDXEFdVyIyOY4Z9/xj+/Pxrz8OOc2WfGh1OGsWHZIlY7hFJ2IQt7o/FMmrsEfX19Zul+xsDZVhTeb6P+chYb5i1mlpzT4rGMHGtC5sUGig+a8enH7/Ph8LUkZF0hM2YZv5k0hm0r9dgUeIjcvZZ8buBFebexdeT70mfuVg5f74Bb5/CaMwGdsQvR09NjeN/RmO5PJyVsBf/5wYf0m2hNWlk1US6L0HE81Y2ki9yI5XxsGE8Xt9kxZylfj5jLrE3rMIrK52FREuHr57JkmT76+ouYPHQdbvtrHvOSg3wLlA4u+ukxRNeJc+oemSaObVvCtM1h3O2Cq/u9WKxjR6UCOpX3v5pFivZemuv7mLzGnMN3ZWKdZePmL1l+4o7mJFvvEGz7OaOjimX+cWZ/KhcfLxpvIGTODBZsOc6DlnO4fvksoDX4WC1mRkgJcJuAfn9CZ1o0mkWSTfhN1GWVfbL6riQnO0atyFD7d/Zv4g//MZXjWsdw5xy70yp47ImvRjN86iyCzt2lKHAtv+u3A61vqDh0muKrLdBxCSuzVWxJ0lhsrvtcfv/xako1V8at4xb0XulPZbehdxQGM0TfkrQ7jygNt+TjL0zJ67aO+xW72Jl2Geqy0DPcRGCZ/KCBXS56jHFP7z5iF2ej19PPKIEuHhKz8DP6zPdE8+1N7HHZwNSNux+f540Tjkwev4STN7o//iRQ4P5JFn3SG8+cBniYy/rF+tgnat59Md6TJboaoDV7p/G5qSvV2lWLldGM1d9M7IUuqD/Dpi19WPEY6F1C7L5gzI5zj7+1+W4WXhMnMHyELr3/vTdrnDOpa8l/AdAlzFRAbxE29Auc4iu6j9XC8QWDMLOWPyPdxT4LE3QXH1HJxrVEU/ouCqOqZ1jvbKHiaAC6w4czcmgf/nmgPrsuNFJfHseif/2UQbpD+GazD2X13R+qO8fWjXqs2Vulvi8zdC1frT2ANvpdP2ZJn1XfAu0sCkVnuS2nL11ht9tqRjvlPb7mxzvXjzFnxSrcsmS14CN2uS5lbA+g+TEb6a+A3iVy3nxM7U5qALZX4bphGP/SR5cxI4YzfPgIRun25cuRY4m78PjoPS1UXuzguKsOur4nKYy0YNnkrRSpXKSTC08DtXLncQgqj2LM8s3sviTnmIvhti9Zfap7eWPHPcJtv2BMdBm01eBtMJne/b7EMDCVC1XFeM5dzGqLZB68ItDtQ7/APa682800cnDeEExtD30X6CFT+hqGcqXbJBvzg/lG9wv6Dv7/2zvzpybTO4Dvn9D+0pnO9Jdaa7U7HbTqioosoLasMqigwaKoCIpyCCxiMFBQV6SahFOQsuCBlcOsF4JCBxkwYrgPw5FyBeQYZDkVQRT4dN5corXOrjM7bmb8hTDzvHme5/1+8r2fvPEno7IVrSqFDbs9Sa42qPBYL21l2XhtW43lF4vZe76Wl6NqJCGe+N/S+6+Hlw5hFXFLF0cI0uq5G8GKgAtohSBA2EHDOdYejOB+WzeKGB/s5RX6gbl/u+/i6utDbLkQhY+RId+PY+Jr8LXZB1kpucEsA6S7+RL2D6UuxmC4lEN/+xMiWTEdLRo0Gg2tnX0MTbxk2ugj/0dDBS9Xd52tVpvZsGknoshqw1beAfRYNJ3GmKJTwV9dJCiE042v1ATvW4zLJeHH1oUJH+C8fhH2V7ugO4s16w6QWm+IIsaUbF9hzbbTKiamapD9X5P7WkMFoPLs5h8G1D+VLgPQcvk6bI/GYLT22mseLLLbyJWmcYb+U0lRpfFmoP3yLiwPZzA60kSYnzc+Cr37KLvgy6qwmxivHCg8we8dA6g12GpNmoh56z0oG3lOdUo4a2yjMZ2JGO8kL7+NqcEiXN0CkZcLMphCESliWVCmQc5jJHn8gcUB2UIER7rbQUKjSvQfoOluUt23sMot22QhmOqh6t59vp+TAMzxoYY5GSRN9Es++7UjGX3GK2fQZJ7GZfnfdUGRNsue34lP0WG0PVMthK52xM7Zj5LHz1ClHsZmtQ3+YjHhsmNYWP0G63QNjDcQ4+GM4y5/JEdDOep7APtF83H2Tkc7XEHUwoWkVhjtuGE/k1pkR11wSBSCqj6Sl84n8nKDAeg417b8maCwGzoNzRZ/zXJRjs7kPr4RxELPRLQGoD0PExFtdODAEQkhYRJ8PDcyb74jp/I7eXw/FcfV1uwPCUEiCcFpvysXVIJWPud6kC9LFruSVdpEUaovFkFXTQKd6avisMgCK1EQ4pPxRHg68CtrPwoHZ3jZqSR5+xbc94sRi8X4bD2CV5SKCZ6Q4OSK5VpPchuH0SpT2WBrwY6vxUiiZexd/wULfBTAAN9u2UVgeKFpvWfVt/C2Wcfmffo5vV1s8Rcn0Wr8hL1LQ2GGPnUptws1rwMIZnna2URpwSMEAzXeVcztukaMrkbwXwPKHNJiZVToXO4IlbkJyKRSzhapadXcpbhjSE9oWEnmP+VIpXIyCtT0ayp5UFjJwPggzXl5tA+9lW5Pj9NcV0pJi2DCJ2jNv02jdtRQwHhFtzKf2kf61KWrroaC0h7d2PPuWnLLWxifY4767ihIkEmRxqVT1t5PvVJJSYN+X13lScilUqRSKfElbaakf7KjCkViDHnVbfR21JNf+/iNXHy6r4LkWBnSRAWq5gZK6hvoGdMvOtNbT7ZcP2diaqUpmBmtvUd6QjRFrfriR1fFdWJkUuSZSpo66vj3ox5d2tKmVFHzqP+N9V40Kkk3zJmUfs1kcYzq+A4NNQ59ejVHCXwCao7U3rPnT0DfIxxzHPoE1BypvWfPn4C+RzjmOGR+QJ83ECvazsHvjNWiOWIfLOLEDifOXG/jfqYPu87lMPJW9wheUHwugM3ex2k3FATmzGD2/5of0Jmn3AndxufWcXTOLesJT11RRPDVAkdyeqcoOW6BzVYRp+++2RedGCslYNXnOFq5UvVWymv2NN+dh/78b+tp3UWcV1pwqtTYHRA6U30kBYtYHXhbV8kpirJhZ3g4KafO8cRYkZ+doqUwlkNBXoSt34ux9dpfriAlOZnklAwqND+vb2T/WBrmp6HCHU73ER+4li+DC0wnCSbUV9jxpQVn1AK9V+Se+AvBcWmkX/QmslZf0poebeDc8ThupoVxdL07NS/h+8YU9vluwsvXF9+dDti6R1FkKlL/WHF+/OvNEygztN86g+UmN6726J1k1ZUA1u6JZkBXrXxBboQNkqwCShQ3CQ8p0VVpRlTxSLLKUSu+IWTdXupnoSjSgnnffGcgMUlFTRWNA+brXM0UqPDEZhWHvtqA11mhQztMip8dQXnGR48KQNcQmFXFcH0u56MCdea1XBZKdnMPHTlRHLHbQ8200J48yxLLpVivWcXOQ+fRPjPWrz++tn3IDswXKLNURe5gv4+calUG1vYnqTEVbvVA/S6WwVQ3cd+mEHftJrHyKzQ/m6I39yTBtrsx9gFmxgZoeXAZf4cVrFxmRdi/KpicUwP+EMF+rPeYMVB41X4JNy8nNm78LZtSCk3+VEhNBA31S7uvk2tDcgp+f7TkgEKlO+nQe/MYh233UD0F3TV3KOg2to2gONQJ97AL9Jupopo1UKGfmOu3nM9+sYB09dwnd01y48hiPJIKdW22yfpolixcSmiO/vSFNluMz7JtVE6DpkCM3Up7vPwDCAh0Z/fWYHLL+wztuY+lZx++rpkDhaddD8kva8LQsTJIYoZe9T2q25/owbzoR6VuRDumb82Nd6upLSpjSGdWp2lTXCYhPp74+ETya3/A+d8Pl/dP/k6zB/qTS8jMFvgvNuoVlGm96aQAAAAASUVORK5CYII=;" vertex="1" parent="1">
          <mxGeometry x="470" y="178.83" width="106" height="130.67" as="geometry" />
        </mxCell>
        <mxCell id="Ez7FeFpJxv9Nc_yo7gzA-11" value="" style="shape=image;verticalLabelPosition=bottom;labelBackgroundColor=#ffffff;verticalAlign=top;aspect=fixed;imageAspect=0;image=data:image/png,iVBORw0KGgoAAAANSUhEUgAAAHYAAAByCAYAAACGNiUHAAAgAElEQVR4Ae19B3dUV5rt/JKZt9YL/WbNe6+7ZzrZ2MYGGzA5mQySQCAJJJRzzjmWcs4555xzvpWUSSbnaMCE/dY+pQIhgxsFbLWbWqvWrXDr1r1n3y/t7zvf+Rd8fPwmR+BffpNX9fGi8BHY3+hN8BHYj8D+RkfgN3pZH0RiX758iYePHuHi5Su4duMmnjx9+hsdvpV7WcsG7PPnL3Dj1m1MTs+gvrkNMclpcPUNgldgGLILSzAqV+La9Rt4/uLFyh2N39CZLQnY58+f4+KlyxiS5CirrkNEXBIcPf1h7+4DR08/OHn5i6eDh6/4LDgyDmU1dZBUaty6ffs3NIwr71IWDOyzZ88wc+Y82rp6kFNYipCoOAGajasXHDz94OwdABefwJ88nX0CBdjcj4BHJ6Whsq4BCvUYHj95svJG5h/8jN4L2B8eP4Z6YhJVdY1IzMhGQHg07D18Ye3iCUrju8B8G8D8jPvbuXnDxsUL3kHhiE/NRE1DC86ev4AXL17+gw/pyjj9twL7ww+PcefOXUhKFQrLKhEelwjv4HAhcbaUzEWA+S6QqbJtXb2FFPuGyJCQmon27l5cv3lTOGAPHj4U2iG7oASXr1zFk4/S/V53zhvA3rv/AJeuXEVbZw9Co+MFgBx0u1mbuVDJfBeYb/ucxybIjl7+GjXuG4TQmHgkpmfD3S8Ylo4e4nxkcUlo6ejChe8v4f79B+91kf+MO70BbFNHD6KTM1FR14TC8ipk5hcJh4i209bNe8Eq920Avu0zes98Onj4CfVs5eQBQ3NbJKRkoLOrFwUl5YhJSgNB9QuLBLWGlbMHohNT0djSjonpGaFh/hkBfNc1vwFsZ/8QjphYY5+BGTxDIpFRWIqC8iqU1dQjM68InoGhQnrp/NAZehtI7/sZgXTzCxY3C201wbR0cIOpjSMsHVxwytIOuQXFUKnUUCpVGB9TQy6Xo72rG/nFZYhPywRV92lbZ3HTxSanoaK2EZJChVt37rzrev9pPv8JsPqWDthrYIrd+sbiaezgDv/IeCRm5qO0uh6VdY2IiE0SgFB9OnkHLEqS7d19YWbnAnN7F5jaOsPUxgkW9i44aWkPQ0sH6Jnao7CsCuNjY+gfllDbLUGS5FArFa9A7ujqRmlVDVKz84UTZubgKs5FFp+MgtJKDI5IuHX7nxPktwJ78JQldE/b4MBJC3x33AQ79E4KSbZ084N7sAwZBaWoa25Dem6BkBqPgBDh/NBGzrXDrj6BQsVSisVN4OUPC0d3mFg7wtzORQBp7+YNn6BwxCZnwtkvHAY2bjhkYo8jpx1QWlWHyXE1KrskfJcowTBTQni1BuShETlUSiUmhCRL6OntQ21DE9Jy8uEZGCYcMnf/EATKYpCVX4z+wRHcvHX7n4YgeRPYvkEcs7BHgCwOpZW18IuIgbG9G/RMbbHnxGnsPHpKbPUtHGDq5IWgmESU1TSgoKwSlJLgyFgBJB0gqlpBUMx6vZTEk5Z2sHZyh5tvEALCI5GckYPGtk40tnYgu7AUtU1tqGhogYt/BCycfdDU2o4xtQpJ9SP4PEISz3XREjbHSjDIlBBaJaGiU0LPkBwKgqxWQimX0D8wiPrmVqTn5MMnJEKcC8/HKzAUadn56B0YwrUbN/D48W83fv4psOb2CItNhlyuhFI1hu7eATHoHkERMHFwF5K785gG4EOnLKFz2gY2Hv5Izi5AXkklUnM0apFEBO2foZkNLBxc4Rscgcj4JAFmaXUdGlrahXTNHXgBeFgUCkrL0dDajuGRUczMzCC5fRpfRCrwSegIvpSN4stICV/NPjfESDiRKSGoUkJRu4T2ATmUCgUm1QqoFAoMDo2gqaUdGbmFCJbFCoqTXj61SWpWHrp6B/D9xUt48PDRb8r+vh3YuBSMjsohV6jEkwArlCo0t3UiNacAHsEynLJzxd4TpkKC9xuaY++J0wJkP1kcEjPzYOfqDa+AMCRnZCMtJw+5RWUor65HWk6BUJWMhYUTNmujqaq1Tw0dGSC0QEVtPQqb+xFQMw6r8vPYmDAmAF4tG8XaSAlrIiV8KdNIswA5Q4JPmYSsFgmt/RLUCjkmVAqolUoMDY+iubUd2QXFiIxPhldQOCwc3QTIyZm5aO3sFlw3Y+d/9MebwPYP4qi5HTyCZBgelQsPc1RSgE9JSLAaY+MTGBgaQVV9kwDZ2S8Uema22GNgKoCm81VUVS9YKqo9etPJWbliEBkyLYTcIMCCnQoMRmZWNtJKahFTNYCAhrPQyZnGFzI5Vss04GpB/lwmx6fhcnwbI8fRdAluJRJSGyW09UsYU8oxrlII9U5t0NzWgfySMsSnZMDNLwhm9i6gv8DYubaxBaqxSZCs+Ud8zAN2CEfN7GBk44Ke/kGo1eMCUC243CqUanT19iM8LgVhcckoKq9BXVObCIlyisuRmJkLWVwyohJT4BMiE9QhVR+95/cNhebvR8kmBens6QNZdDTiUrMQV1CHxEYlbMtmsCleibXRCqyNkmOzrAfrokaEql4VoQCfG2PlOJwqwa5AQlK9hPZ+CQq5HCqVEuNqFUZHRtDW0YnSyhokpGUJTWLt7CHUdlR8CkoqqqFQj4PU6j/K4yfA0nmiiqWd7e0fEtKqUo1BqVRrpFapRmd3H/xlcQiOTUJ5Tb248OikVJEQ8AmOEAwSuWQCMh+kpbx39g4UiQYHd2/4BAQhVBaNqJRsJJU2wrOgDyfCy2DqEQZb7xCYBCRje0QH1kcOa0CWKfG5TIkNsXLsSZJgmSchsV6jrodG5VCrNM7X6OgIurp7UVXXIGJlrRPImJvkSEFJBRSqMdy7fx9MiKzUx0+ApSrVt7DHaUcPWLn7IjRGA15v/yCUKjXU6jGo1ONQT06hpatHsFMxSamCbCAbxPh0KeC9z2852NyPUuzg5gVXLz9EJ6QgLikNgeGRcPcLgp2rp8g6WfhE4mhwIXaGt+BbWb8G5EgVVkcq8XWUHNviJVjkSYivk1DXI6F3WKOuaZflcgl9A4OobmgGb1yvoDBBb5Jm5ev80gqMKlX4/tJl/LDCPOw3gZ0Nd6hiWzu6kZKdD2ffEJg5ecLeKxDRyemC3ZmYmEZKbiEMbZyRml+MirpGQUGSqA+LjhcDypzs3Jj2fQD7uX0Ippap4sCSVrRwcIOxlQPsXTxRXVMnyIy+wSEUVTeJjFFITBLsfcPFvo5unrDwjcGxoHzsCavHpogefBWlwOdRBFmBL2QStsRJMM+VIKuRUNohoXeIjpcGaMbM/YNDqK5vRFxyOkKj4sX1mdm7Cnozk7Hy0Ciu37i5IoT4p8Ca24MDQmdpfGISkqRADe/Y5HTYeQYI+xuTmo249Bzs1DuJ3cdNBJnhGxGL9PwS5JdWoozeb3aeiFcpwU5eAXD2WZyNJaB80k5bOrnD2skDprZOMLd1ho2TO05Z2sPO3Rf1Ta2CelTK5ZhSKzExPoaugVHk17Qhs7AMAbFpsPUJg4OrB5w8vWHuG40Tgdk4EFqNzRHdWBOlwBdRKnwmUwjni5JsnC0hoEJCfquEviEJ48L5UkKtVmFwaBiVtfVIzcoVnDXpzSOGpgiLSVq5wIbGJmOEXrFcKZ5UvfSG+weGBM1XVFGDyORMwUodPGmB/YZm2HXMGN8dPw0zZy9oQp5clNc2oLy6ThAXzgSXFCR55vd0pLifpaM7TO2cBfV42sYRVo5uMLN1hoG5HY6bO+CAkTVsvYJFRorxa2azhLBqSbBV5JYn1UpBQXb2j6C6uQO5ZTXwic2Eg28YXN094eAVAKpro4A0HAypxGZZt3DCKMWfRijwWYQc2xPkOJ4hwatUQl6LBmSVQg61Wi3MU1//IPRNrPH1tv1IzylagcDOhjtOvsEi3GEcO98jpqc8c+asiFV3HD0JF/9QWLr5QMfEGgeMLLBb30QwVLqmtrBy94NXaBSyi8uE1DOM4J3t4a+hIAmyq6+GdqRUEkg+GRadsnIQCQGSG7YunnDzCUR0YhrqmtvR0dOPxKwiWLgFYp+hFWzdA9DXPyA8XeciCd9ESdger2GnQiolVHVK4nrGVCqoVSr0DAyjrasX2WX18InJgltAGNy8fWHrGQhLrzCc8kvC4ZBybJF14evIUayWyfFJhFKo7C1xchxJleBSLKG4TYKkUGB0VBKgrtt5CKMK1UoEVhPukDKkjZ2YmBThzVxwqZrHxicRnZqJbTqGgnRgzJtXXA7f8GgwaUCemRwzKch9hmYQFKSzF8ISUkUiIauwRJAP9KC1uV6m7EztXGBkbiuk08XbH34hEULNUbW3dvYgr7hM5IkDIqIF8d/Q0iEYr+TMfExOTQkba5Axik9CRwX9yBiXIG+KlaCfISGoYtZ2DsuhVCpFQmF0ZBTdfYPIKGtAQAJvvEg4+wQJNs3aIxAmfok4ElKGbRGdWCcbFCCvkqnw13AFPEs19ndoeATrdx7CzkPHhSO1EpB908b2DwmumFLn7BcivMH+wWGMjU0Ib5iqmSCPT0whJi1bAFtV14TJyWkNQzUbCqXlFMI9UENBHjAyF2qaGSNSkEwL2vsEIS2/SFCVJOr1TaxgbGUvbHJ4TALiU9KRX1KOuqZW5JdUICAiRthZOleUcm2ygdIeKItGSWWNIE1UajV8amawK21KqNDPwkbwlew1/UiGan20BmT/cgmFbRI6Bl9TkMwcdfYNIa2sEeEpuQiIiIW9d4jQIHYe/jjtlwCd4FJsD2/FV2H9CK9V4sL0uAiP1m7dhwP6JiumfusnwDLcMXP2hK2nPwytnWDnFSBIB5aUSnKFIC3Onj2H5JwCbD1iIJIFgsiYZaeovlVqTdxLcj8xIxc+YdEwsHYSUswYmVK8VccQxg4eyC4qQ0ZOAZIzc5CRV4ii8mpBP1IqyVJpC+S0anqu56z9jPsRbCbei6sbEFfVD5/qCZiWnsc3sSp8KgD+KQXJhMKxDAmepZKwzc19EtRKOabHFBhTKdHWM4Ss8iYkZhXCLzJJxMf2rh6w9/SHsW8CQtKK0NzSgqLSCny+YSdOWTmtBGEV5/AmsAx3zO0RkZCK7t5+MchB0QmC/D9p6wq3wHCk5xZheFSBtLxibNUxELQieWStNGvVNt+PjY1jaFhCTlEZCsurkZJdIDQBmS06WFTn2UXlKCqrQkpmHoJkMSJUsnPzWTC5QZBJiti5eiEoJBQZ2TlILKxFVNUgfOrOYk/ahKAgv4qUC+dobZQCX0YpX3nB62Pk0E2TQBud1CCBINMLnhrT2OXWniEU17Uio6AMXlGpIvyzc3EXmoS107onzeEdLMPDRz+sCHDfCiy9YoVCJcIdgkZ7m1tcDp9wjeSFxCYjOiVL2FAHnyD09g0K0oJ041yASWbUNrbiuJUj3AIjRMlNZ08/MvKKEJmQipjkdASER70C81W90xKrM6iuSV64evkiMjoa0SmZiCusR3yjCqcLJ0XyYEt4OwwDM7EnrAFfR2nUtZaCJDt1IEWCdb6EuDoJrX2SyBiRflQpVejoHUJ9SweKy6sQk5giTAgpUzffYFGEUFBaIQoBf82M0VuBDY5OfDPcUZFtGhOeZWNLBxpbOxGVkikqLGgz3YMiwBCop29Q2GCqZoLMkhY6Jvnl1YLYYN2SX6hMcLAcfKFCl5l2nK+qhT329IVfUAgCwmTwCouDd3QGXIJjBGvFlKOFjwzHggqwM6IV6yMHsUY2ilWkICOVoCTvSpBgliMhtlZCS7+EYTqQKpVIKIyODKOjs1ukAFmTxSQCtQe9fEYAOUWlIpnCJP8vyTW/CexsuGPj7icAmh/u8D3Bmpk5g8SsPFFZERSVAN/wGJx28oS5i7dIDlTWNgqQpyanMTA8isTsfDR3dKGyvglJGTmiKI0sEhmk5ZLSuYDyNQdWw1QFCs/bxtVbOGgevgFoa2tFVU0touKTERQRDRe/MNi4cwaDFyx9IgU7tSu8CRsj+kRa8LNItaAgmWQgO2WaKyG6VkJ1F5P8BFmBMaUEuSQJdqquqQWswaLXT+eQ2oNMWVxKBkYUKpz//iIePHj4QR2tecAOibSdnqmd8EgnJ6beGu6oxyYQmZQuvOLq+iZMTU6JKojEjBwwBja2c4Othz+SMvNQ39IOl8Bw4TjZegUis6gMpTX1ouoiq6AYgRHRwuukfZwPzmLeawBlxaMvmOy3cfYSTJWZrRNOWzvANyQcI6OjUNARVCkxOCwht7od8dklIvFh7xcBW1dPOLl5wtInCseDcrE3rA5byE5FygU7xaT/5xFyEUadztFUchS1y9E9xPDnNQXJJD/LdeJTMxAemwgX7wBR58XrorpWT0x9MHv8E2C1xWyWrj7C6enq6ROVFEy2s6qCNpThTmxatnCeKJ3j44x3VZgYnxQqvLK2AVFJ6cKzDoiKh0dIpKh8pDfMIjnGtSyQS80tQl5JhWCnEtOzhAojIFpv932B1ZIc/J2Vk6dgq8hQkXq0dnSHhZ0LTlk54qipHbxDo0TlI6VLqNVRjRc8OaZGz5CEwrp2ZBdXICguA3a+EXBw84CThzcsfKNgEJCJg6FV2BLRpWGn5lCQW+MkGGVJ8C2XkNMioXtoNv+rVmJMrQZj3eq6RlGuw8qS46bWOHvuwi8L7H4jc7AqguyRhYsPgmMSUVJZK2JFOlVnzp4TSQB6xQxPaH9JXNAjJvi0sYx9WVtU29QKt6AIQTsyjiUFSYBJXjD0sXTzhU9EjGCyWAHJmQf+YVFCegkUbTG3PwcySQ6S8aynsrB3FYVyBJbslaGVE/QtnKFj6ogjpo4IjkkRXO/IqATbAgnH0iUEV2pqp0YlOSbGSEGSZx5BbWsXCirq4BefBQe/cLh4esHByx+WPjKc9E/FoZBybI3oFM6XloJcFSHH1nhNkt+9REJWs4SuQUmUzo6NjQmOeduBY4LQ+JBzlt4qsQT2sLGVAGHPCVOQZKCUWbn5QpaYhu7+IRHukHmKS8sW0jrfHgsiY3xSOA5OfqEiDZhVWIrIxDRRVsNaKS15QZD1zO0FBekTHoO8skpQE5BCpANCOyVssa+mlplJBb5nxaOZnbPgj83tnEVtFUtZT5jbQ9/SCUfNnaBr5oRDxvbYpWeC7YeNhA/AGuX2AQkHkyX8KeQ1BUl2KrBCQnmnhMHZHC0pyL7BEbT39CG3sgG+8TnCw3fz9oOdZyCsPENgLNipUmyTdeKbSNZlSfh0loJkkv9QioT0JgkTKiXqGpuxYddh7Dh0HC8+4JTSnwWW4PJJSSMIlGIC7R0eg6iULOw6dgqmTp6gp6yR0nHBQGljWapvlok6+obAwtUHHd0atU7vmYwSeWQjWxdRBUkKksdjyesxCweYO3sjKjUTJdV1IjwKjIiBvYcPbF28XoFp5UDpdBZ2y8DcHsfMHKBv6SKk87CxHfYaWGLbYSNs3KePb3bpYPP+40hKz8GEWoWKLgl7k6RXpTWkH7UU5MZYjSSTnSrpoFqVQ6FQCidJGpWEp59Z3oTAxFz4hkbB2TdIOF82HgE47RePI8ElmiS/bBCU4HWxKmS2KDA1rkJuUSnW7TwIZ6/AD6aGeeD3AlYLMLd7jp+Ga2A4IhLThEPE0lQzJy8huayDGhwexfj4BFh1wazQXGA5J4ifUZ3zKVcoRVaGpAfJD5a6Ulvs0jcWNllLQVKVZxWVw5uVkpb2sHRwhomNM05SzZra46iFM/TMnXHI2A77DC2xXeeUAHPDnqNYt0sHa3ccwucbv8OmPbooKC7DxJhKME3b4jSFcIxjtU8Wx2krICl5ZKdYO8UCubxWVlwQZE0VpFqlQFf/MDLKmxCZmo9AWRzsfUI1zqC7H0z94nEwsAS6MS0obu7DmelJBIZH49P125GQlr2ygKVdZNE4gWWqLjY1G9HJGbBw9RaJd3LMpBE5p4b5XLlCDarik3auouSUkq2VaDpiWgqSn7GALD2vCB4hMhy3dBTagRwzpfmEtROSs/Ph7h8KvdM20DN1xFFLVxw2scc+A0vs0D2FTQeOYz3B3K2Lr3ccxpqt+7F603f4bMNO/GXNZmzZp4eG5laRr2W4QtAIohbU+du1Ua+rID+L0OyvlyaBtjOtSUJjr6YKcmZMIWqn2vuGkVPZguScYgREJ8PWOxSkIB29/BAUFY/C0nKcsnTAFxt3iSjiQyK7YIkVwAZpgN2uZyTAmJ6eQWdPn5hW4RcRKySP0keOuKC8Gm5BMiGBBWVVImM0l50ioHxP54tJ+piULMFyMaNDCpLMFkkQetPWHn7wlcULm0k1u1PPBJsPGkBI5iyYXwkw9+Dzb3dh1fod4klg/7xmM3YdPo6BwWFMq+XCe2UROsGbD+i73lOaWWmxKlyTTGD6zr5QQny9BmRWQZKCZJF7W+8wyurbhKYJikuDh3+wmE/MeUr0AxLTsjEiV+L+gw8zY3DJwFbUNIhwh8Vu5IYJlJaCpHplWMNwZ/cxYzj5hqC9q1c4W2SmtBSkAFauRFRShpBSQ2tnuAaEIzY165UUU+XTxtMMnLBwwtqdR2Yl8wgEmJt/CiYB1T7/snYLdI3MIWf8qpQLQD4Nf39Q54NNkHljUJJZz7wvWVNWE12j4ZmZ9CcFSeeL0UFHZxdKK6sREBYNF2/N7H6yVCGRsaIzwIikwL1798HGLMvxWBKwnNPDOJRFbnPDHWFfVWPgyXb2DsA1MEI4YMzw0NkKjIwX83J6+gaEKqZ6Vo+No7q+GUeMrYWK55QS2lh77yA0tXXCNyxahEghcck4beeOVd/uFmqWkinAW7/jFYhaMLVbSu6n67bDwsFdcL79w3KYZEv4bAnAzgWa6pySTOeLacEd8RJMciRE1Uho6JUwMKoQpa4skBscGEB3Ty/ITiWlZ4tCA20oxwI5kjbDklw0Ynn0w+ITCksCdufRkyITRHKC0qe1ndotGaoRSanxil28wdwt5+iw6oLTRVgFSQarorZBxMiU+qSMPPEdqzFowymlSVn5YgYB34fEJuGEmR3+9NWmdwKpBVS7/XQWdGZhmHNt6pODtpISNxegpb6ea5MJNovY6WGzdiqiWhNGaShIpZidoFTIMTA0jIbmNkE3+oVGCq6Z9KO1sydiktLFjMGr168vWJKXBCztHm0pO8aIuqixiXeGO+SRqYYnBE2p0lxMWpbI95o5esLRJxjxadnCwWIeNyOvWEwlMbBygldIJJKz8oWdZS0zgf3zQoBdt11IN7lhzgQo65RjT6JGwpYK5rt+T5C1sxPoXVM7fBsj4VS2Zp4RC+Q6B+SzBXKkN1WCnWKcm5iWhYjYRARGRAk+3djaSajphajoJQCbLubtULKYqw2IjBMUZN/AkIhpKcFvC3cY29KmCps8PoGhEUmQEbKENNh4+gvvmpOuKdlNrR2obWgGKUqWwjLOXQywn3yzDWu27EV2fjEmx5SCDaIksbriXcB8iM+F8xUhgbadyQSD2QI5LTulmYKiBCtBqAVZTfLtd0fEjbzQ+URLBpaxLWNPhiR6ZnawcvMTFGR5TYNQz1TFDHdOWDkKR0jrYGnVNcMd2lgCzd4SpC5DYhJBrtra3ReBUQniM3rLVMWLAfZv32wTxWaUhplxJWLrNDZxIR7xcgNNVU3vmuaAPDNNAwvkWGXZOyTh7JkzYGXn//zTasSnZv2SqlgjsXPJC/LAdHooxfoWjqLKID2vWMS9JDYy8ouFKiaIc0Me7WvGqa7+YSI25ux5UpBMCZ6ydxOVHQy1gmOTF6yK//b1Nmz87gi6e/vEHFrShkvxiJcTZN5cQlXPetgHUzTc8pnpabj6BOE/Pvla3NgLUcPc9w2JldTjYhBJ0s8FbO7r13HsT4HV7kdvlrXGBNglIFzYSNpjOkyUSBbIaaaLaChIbbhDYoOUJY9jZOsKz2CZqIJksRoni7FueTHAUhUfPG4iPFLGjk5FGmlZToCW41j0rMkrs6abiQgW2//H39aKctklAXv33n04+YeKmFML0vzt+wDL32jpQJeACCGxrKWiej1l5wZrN1/EpWliVNpYZoJY0sr5t8ctHAWlyBuDT3LJnDvDSWK8ORYK7KoNO0FgT1s7Y2R4WCTGT2cvv0e8VGApuVTPZrnMBCkwNDKC0zbO+K8vN2L6zLmF4vqmxPLXhZW1orkIpW0+qHxPYMndklKk2n3bPnOBJaHgEhAGa3c/1De3Cw86ODpBOEmkGZ39Q0VCvrmtS9jk0so6uPiFiDm3tNu032xRlJ5TuCgbyxj2k2+2i8nNCmlUhDo6aR/WI14MyPSg+SRdyZpnltvoGJljy/6juHTpytKBJcUVmZKBfQamggak3aT0aQFcLLAWs+HO5NS0cJZIQTLD4y+LFVJMO0rVm1daIXhmzheKS88Gy3RITSZn5i0q3NGSE5wsRq+zskuOHQk/zxEvBpil/oYe8zfRmniXifnq2gZsP3BM+BOL6Xzzho3V3hb3HzxEbmmVkKrDJlYiZUegmbpbCrCkGkW4IymEjaUKFhRkexeyCkpEhkc7fZOql/N+GPK0d/YgNbtAME8L9Yq1wKZn54m0WX6bXNQx/Zoe8dtuAgJL1iqjScLUxARyC0vwxcbdcPUNwWIYqLcCS4DZrPLO3XvoHhiBLDlDTLZiRQWT644ss1yAKqbqZh0VKUOm9LShDresuNBOrG7r7BYz9Wh/2S6BUm7rGSCIC1ZOamzswggKwTqt34GK6lpMjavFZGfyu28b3F/zM9rX9TESqrokkd7jVM3/88nXiEvJXHCoQ/zeCaxWerVbdgqvb+0UpD5BDU9IfW8byyTAd/omwpaSeRKlNLPTRQiuNtyJSs6AiYOHqHIoqaoV2SJWaJi7eAlbS22xUOeJHPH6XQfR2NwiZscx1FluKnE5bggCy3iWbNTk+JjI2/6P//xccOpaDBayfW9g5x6Uk3sTMvOEM6O1vfO3Wq+YzhOZJIJiYOOMlKx8dHT1CkKCxD8JCm24Q9qQ7f6Yg0/BkHMAABZZSURBVOXxONk6r6Qc9S1twjumM7VQYD/5Ziv2HT2J9o5OjCjUcCjUkBPLAcZyHoPA6qRqZtSz0I7kBCWWBfaLeSwKWP5RdnE5mASYD6j2/Xxg6d2y7IXfs4CNGR72hWJKizMGyEi1dfaK2ijeBLTn3504LeLXytomkcxfDPP017VbYWhuh76+XvSOKHEy66dVE8sJ0GKPRWBZrzwoKdHXN4BTlo74asteyJVji8H1/VXx/KNnFZUtGFiCSsApkQyVtLEtWyOwQpGSy5npBP2krYu4EXhDhMWlLDrc+cuaLbB388Ho8BDaBxU4kLzyPGJtDMtQR65Uo7WtA3v0jLBXz2jRJapLkNgKbNc1WpDEaqVZu6UEE+CDJy1x3NJBxLpUxwSXZEV2USncA8NBx2mx4Q4rJ/xDo0RyvaGX/Z805S6LlawP8Tstrcg+kSxRra6px5eb9oBZHU4NWcxj0cDWNLeJbMuhU5pKRi1Y2u3bVLH2u/lb7qutguR3LHWlXc4tKRcxLasa03KLwFZ/Cw13yNxwasXkxBgK22dDnZ+pc/oQwP29YxJYJulZojo9OS7a9pIjZn3X00UubbNoYKfPncdpJw+R1ZkPFN9rgeX0DoJElfq2/eZ/xt+RFCHzxd+QuGCzEx6DE7IXAixj2L99vRU5hcWYnJwQLX8YL660GJbnw/Mq65QwOaZCQmoW/tefViMqIW0xwip+s2hguTQL6UcmDMjpvg0gFqEtFNi5x6E2IMi0yfyPhYY75IjX7zyIssoqqMfG4Fc+255vAQVsf0/aluN7Ok7smVHfJxe9H7mYBsn/3KLyXx5Y/iMZETpRtJFi8I3MBRCUusVK7Fxg579eKLB//Xor9ugYor6hCXKVGjb5GsdppUks03acdN0+qBROHieSUduwQ+xiH4uWWO0fPv3xRxEfJmXni2mUlFLNjAGNU7QUiV0qsHSc9I2t0dHZiWG5CvrpK88jpsTTvjKr0zfKUKcPOobmorh9YETSDvOCt0sGVvuPVM23795FZ/+goBtZjUgK0s47aEE2dj6Yc98vVGJZ8MbKxMHBQfSNKLErcWUC+0WEBNdithZSCSLlmx0HcfD4acycPa8d3gVvlw3Y+f985foN1La0i25tnPH+vs7TXCDnv14osH/84lvRPoDt8ur7FGI+K+3ZctjF5TwGS2RCqiQx3bKmvhH/ufpb0aiEXP1iHx8MWO0JMVPEfOzPVWXMB/Bd7xcK7H9+sQEhkXGYmZoUBWzs+cTu5MsJynIcixWMyQ2SmEXAZeX+36p1cPAMWNKqYR8c2Ju37/wqwJL8X7VuOxJSMjE9NSliRE6bpD3jk5K7EkIfngNvOKYT2e4+KjEVv/9sPYJk8VrZWNT2FwGWVRK/tMSygI2hDtfomZqaEu1qOYmKpZ6sBuQUSkobAaZXyu2v4S3zv9m8pKKLoY4k5gIz9iYhs5THBweWFRmcv6PN2LxLzb7P5wtRxQT2292HkZyRKwqx2TBzZmJMEABsPN05oGkpwL5O+5MlbIzRgMuUHgf7lwKZ2oOhTlOfAvLRERhZOGDN1r2iVHdFA8tZ2/llVT+bMHgfULnPQoDVTu/4asse6Jw0R1BEDIrLKtHe0SXW65mZmhCz4rhIE+t4KckEmamzzXES6KkyIf+hnS3eSJzn0zOswPDQENjGgPN4efMt5fHBJZYnNzF9RnSj4Uof7wvi2/ZbDLC0tSwY52w7lpqwgxoXcMrMK0RLG2fiq0XXVK4RwBU/egYlZDRL8CiRcDxds8aPtrCb9nA5nKW5x+CxmSNmZquzqxtfbvoOe3SNcOHipaXguvi03UL+9ccff0RlQzMOGVuK2mAtM/U28H7us8UAq5VclqF+um4H/rp2CxgGEeT9R0+JHoxcvGJgcEgsysQ5NCx6Y2fxjll1TSqSCzhxuiSlmOpzuRyvT8I1nWamxpSoqK7DqnU7oHfSAk+eLG1d+19EYnkT/PjsGRraO0UNE/lfUTc8h4L8OUC1370G1nZBs+0ILik6csekGemccFLX2m374OgZgIuXroi+Vqxa4Jo8vf0DYAcZzoabUMqhkmtW/ihq00yo4gJOBHluZ9XFSDPLTXmTRNVKYupJWla+0C7mDu4LkZu37vuLAav991t37mJQUiA+M08UyLGBNT1mOlfaCgstkPO3r4F9v9l2VMOU0D99uUnUFn+1eS926xjAJyQS7d19uHL1mlh8+PmLF2JO6h4dAxhxCbjwaMQmpaO0oho9vf1isUQurTam4MKJEroHJVR0aEBm53H2Q6Z6JUhaaZ6rbt/1mvabTlt6E2fCKxEkiwWL7/zDorXDtejtLw6s9kxJQRLk9p5+hMalwNTZS7QkYPkLQaa6XgywBJMc8R8/3wDtnB29U5YIj0lGV98grt+8hdt37oonlw5nJ5vc4jLR3p7Nw7hIhWbrK1bq4DItbILCvlB8EliFXBJr6PE9V8rk+npscn0iQzPpmUDSKSLIlMp3AUvve3eChOJ2TYt70p/ULuz3vNTHrwbs/BO/fPU6qhpbERidKCSZ4LL/01wq8l0SSzXL5iG//2yd2G4/qC+6ykTGp4mBZ8hFZ6R3YBhV9Y2inyN7RxFANtHUbrUzy9kwjJ9zWXGFisV28lfAagHmdlSSxLxW9pzgGgHDIxLKOjQNwYyzNPEppZIO0ttCKM7VYR+Lhh656I+8R9dQ9M5ge/ylPlYMsHMvZHLmHMpqGxEQlQAjG2dRDUmPmiWs2irFP325ESxU+8Pn64W9/U7XCFxwKSu/RDTtePr0R3HIH398hprGFtEwk8upsWEl+zYSOHZ903Z+I5jzn1xksb6pWYDKBYrZiJu2Vwsu39c3tYD8Lmemsw09V90aU4yKeb+l7RLCqzS9KXYnvhlCMU4mlcilU7nWz9DQIHYc0sfX2w9AUqrnDseiXq9IYLVXwnwvG0mW1jTAKzRaSC/JDqrWP3y2DvuPnUJAeIwAbmxyGj8+04Cp/T23nF3H5pQEdD5wWgnVbvk9+w4TbM50Y/c39oWITU5HUVkF2ju7xMIOnDSlVKnQ1dOLIFm0OC6XTjt77hzOnT+vUd0jI1BKowLkvqFR0e2NLYis8iQxxYRq+i+hGtC5oGJTSxs2fqeDzXt1l2XtnhUN7FyAmOlQjk+ivL5Z2CDaxgsXL//dZcimZ86CvR1oOwkgu6NyqwHPR7Sb5TLi7Lt4/LS1WDuHFYLsCcWpl+ygSpC5qCGbZofHJiArrxCtHZ3Iyi0UalzbEZ2ltOz6woUOWYRGoLmuLVfcUstHoZRG0Ds4ipouzcpcbKrpXSZhelyFvKIyUW7K+TrPnj+fe+mLev0PA6z26hg2LWRNOTppXEKUy3ybO8w2zjS3E7GijpEZjhpb4riJNdjPmL0bOb/ozLkLYn2B7QePifZ4B/WNYWBuC2NrR5y0chCNP9iohOvdalU5l5ThugZz2/mQdWMMf+fuXZw7f0HUTrNNkEquUdk9g6OCEJmcmISlowd+96fVQgvNPYb2uhe6/YcDdqEXyP1Jz0XEJcHCwQNWzl5w9QmGLD4FNU0tIoalHeYNMPfBz7r7BsRCjGZ2rjh+2gbHTKwFK7Rpj45o+jFXtVMjUDOc+ZnkOP/j7r17YiHiyckp0YV1dHQUY+Pj4kZjgTiXL1+Oxz8FsBxQhjiXLl9d1Jix/SzzymcvXAQbb+89aoQTpjav1toTtpl22cMXdc2t7/UflOb79+/jypWr4NTS8NgkEVu/14/fY6d/CmDfYxzee5dr128KW7zzkP4bwBJcttOLT81c8LLgDx/+IIiS9z6J99jxI7DvMUhzd6H9C5bFiWYlDJ/oiGlVMuNhxsdy9eLm28z9n6W+/gjsIkawpbMbdKy4wpe7X/ArYAkwV8xke99f+/ER2EUgcO3GDRwzthTdVBk+aSWWW7bLozqmTf81Hx+BXcToM4Shs7Nt/1HYuHiKxiVacMlo0YlSj08s4sjL95OPwC5yLEmQfKdjIFYHodTSvhJkSqx/eBTOnlt8TfAiT+mNn30E9o3heP83l65chZWzJ4ws7EQHNa6SVVJRIzjiK9euf9CFHN7nLD8C+z6j9JZ9njx5gp7+QXR09wrCgTZ1IYzYWw65rB99BHZZh3PlHOwjsCsHi2U9k4/ALutwrpyDfQR25WCxrGfyEdhlHc6Vc7CPwK4cLJb1TD4Cu6zDuXIO9hHYlYPFsp7JR2CXdThXzsGWAdiH6E6xgr7uIejqHsS+PZ4o7Lzx6gp/vKVAlpcuDh3Rw9GjR3H0qC4O7T8Ka49iXHih2W26Phzp9X2492Z1Cq4ORsOzvB7Xn7w63Ad78fJqN+Lzw1B7/tmC/uPpjeu49+ghZi/lZ357H7fv3AGXsnt+fQgZ7pkYvTHvgn/m1wv9amnAXu6ApeF+nApKRUtbC9raWtCcGw+DvevgmNGDxy+Ax1OFsD+yCo4ZbWhvb0d7extamssRYGQEQ/cOPAbQH74VRqG5uDqvenSqcA/+5hWOMx9mXb83x2o6E4dsNiNoZAF30bVOuARFo/bc31+q7GJVKGIco/E9//XpHZxTncfdJ8uzjt2bF6J5twRgH6DaRBd65gmYIjpzHte7Y3DMNxOqB8DT6VL42BxBxbxZgbdao+C84TiGnwOKxAOwjCnG9XnAzpTr4ZugWJx7OOfgAB7cOIeb9x5BMywv8fjWXdy+/mhWal7i/v3zOHt7drCfXsPESA96e4cwfuY1AM8eXsOdxzdxRSmHXD6GW+oCGLntQ6RcM8vt5YMJsfz2FfHfT3HljBw9vX0YlFS4SfF88QMutoZh7b5j8Mobxk1x6Je4MTWIvv4BDAwMQjFxW5zji0c3UW93AEfX66Fg6jLuP36CB7fu4cmz18BeOatGT08vhhQTuKv9+Mk9XLr9EPfvXIQ00o/ePjUuX5+rG+5DJQ2hv7cX/dOXMLcVyaKBfX61BnqHHBDfeefNUZ/37v54IXzsdFH7WjuLPcZzTHHyW3uMvwDkCQsDVko5Cn1ZMa4KTXYTedZ6OGWRo7mwp+eQbb8aZo0X8PySCjl+hjh4cCu27diHbRusUTiqGexrLZYwtT8Cu13HYWruht7uIhh77EPcFIB7wwg3/AxbjcxRefYxZrpLceroQWzbsRt7tm+EZUg3bvxwAbl++/Fv//4HrN3ljbbzd6DqCsUJ3U3Yve8gDuzfgtX/0xAJI9fw+Fw7vD/9Pf7wu99jm6wUakUtPDY5o+F7qv0HUDVnQfeILrZu2469OzfCRtaAa7y/pgqw3+AEbIO8YWy4H5s/34L9pqmY4M324i5UWRHYsfcQ9u3chi+270VA4Qi0ym3RwD7o8cBWL1PUaSXx+T2M1KfA3cMLPn4BkMVVYOL2czy+UAvXw3/GAStf+Pn5wc/PB57Otjj87QEEFZwRUjYYuzBgn4zn4OCBALRfeY4nN+VIPPkZVnumQP7oBTBTCeNVJhh6eA8tbpZYuz8K4+IGeIme2EPYv9YbM8+Bu+3m+Gr1FmSoZtXEmTwY+hkgqrMD+dY7cMymAuLSfhyBxTZTWGbc1Nyy9yZQKqvCWWJyqQpHHXxRcpZSdAsttWHImXqtdrpc1uNTr1Lw789lOsFH3wcXeZTz1bD92gHN14HHZ/Nx6sAehDRc0xz/fB0s926Hc+c94FIpdv15FU6lKzXfXWvASdMDcO+6D9yswYFPzFE7u8DH075i1GbXQys/iwe21xNbPc3mAHsf8pZs+AcGI9TfFN/+bj/Shh7g8eVGuOn8DTqOYQgL4zMEgQExyK/S3hFAb/T+t6riMxV6WBMYg7PzVDGeXUC20QEUjl3F9y2dqLbyg4VvDnKbruJybxS+cu3Ajw+V8LJ1hH3hBc2g8Ca/3IlEq+0ougg87DDHBhcPDN6a/fr7Clgb/R6//69/xb995oAhrdZ+egWFVgbY9Ocd0DcxR87IHA01U4Ij1h7IUc4tg7mGikQX6B0zwr5df8RnEQ3i5p1KtoW7rjum+Xfna2C/3gUd91/gbK49XEzdMPFKw/6ArrRwWLoP4tHVEuw/7IPSiUeak7yvgI+nNRyqvgcezsBDZwM27d4PXZcQVF1/dZnixaKBfX69HscO2CO6XTsycw98AVHbrJDdewf3z1bA114XNdpbae5us68nCnVhm16KW/Mc0nOlOjidkIOrP/FnXqIrZRsMMytQXZELjxI1FElxyC1uRFnMUYT1XgPujMLFzQpujZdf/eOzq52IdNuBjEngUYcFNvj5Y3S2HfDLKxUwW/vv2G0RBnf9w/DPlfBK9u5cwEhNGVJ9dPDX1Wuw+4QVymdeABdKccTGA3njj4GXd9Cc8B2+/eowTlnHoai0EpH2a7BGViMkdjLJBu46Hm8A2/ngGcbjLOF51BtnXp3lI7THyKBn0oX710pwwDYAVWdmgb0zAk93SzhUahZYenZtBC2VWXAy24///tc12OKajP5ZG7xoYIGHaLA+DoPT0Ri5++p2o1zgxnQJjNdboEi6j4fnKuFjfQAFtF3veDwYkmGnVzTmCgNwGbknvkVoWg9mL+uNX9/oT8OaPxvAIfgoKilEE7nwDDTDntUWaJx+Cry4hOjTNjjs1S0Glj++0RMB22900HkfuNdmhg0+vhiZvS9fnsmHge0+JEwCz9qDsH7NcRRM8o56ghvXH7w6xp3z/Qiz3YNDGWeAa1U4ZOqDYrq6Nxvg9emfEdZ0BRr36wFK3L/EalmNOO/pFBu4HffSqOLva2G33hltt4Eb7UEwMzqJZu2aSc8vIN7lBHTSZ/DyYhH2WvqhYnpWZWmBrToPPHuAKze0t94LXJZnYftmU/hWa27kJQAL4PEYkq2OYZOVD0qqq1BdU4mKJBlOHNyOjYEV4M3zdCIPTkZbkDn+Bi5vvnk0jnjzwzC3jUVVVTVqqiqRE2OCA/Ze6LygPfk3f4JHCrj933/FH7cHQty/j0Zg9NX/xr/tjsK5WQk/XyjDwT3HEVhQhvLyAjgf+BYnXZuFg3G99jg+dXbBwKzpfDmZgYO2mxEi5016H2UeW7BKLwQDF8aQYmOK47aRqKyuR0NFCpxdjJCnegr8qILdFmMYe2VhfKYV0bv3wCWmCvV1VchINMG2Nf8NvztVgDsvgDuDMTDT3wGfaiWuqstgvsoCtRdfAg/lkNkYQcchEWVl5SgIN8Ph/eaopgWZSMcGQ1cUTcy6RLcHYG9rCIvy74FbfTA/cgoOsUWora1DTaYLdPx90HhBExsvDVgx1k8wmOWIkyeO4YSBHnQOB6C8/7UdenxlCBV5cRiY9Q3mwTPn7WXUOFjB4Jg+DI7pQscpHj1XNCc5Z6fXL1/+gMF6X0TUjc+GPY8wGheMnFoV5mru2yPZ8DQ9iEOHT8LJpxPaM7unykZIZRXOzwrDy+v9SCuNQdP3mv98ebUfoY7uiJX/ANxoQYznIejo6EPX2BKB3Vr1/iMmsyNhp6OPqonbuD/TAf8T+jimp4MTibUY6a9FZGADzvCQTy+iJMYWh9wzMTw2jPKIUqhuzV7f80tICXPGwYOHYWTljNqZ2cYil3sRnVuF0WuzV/ToPMrLclEkae7Gu/JCWJ42gL6eDg7bhKJh5rVuWwZgX4/1x1crZwQ+ArtysFjWM/kI7LIO58o52P8HayW9zj2PhGgAAAAASUVORK5CYII=;sketch=0;" vertex="1" parent="1">
          <mxGeometry x="620" y="279" width="118" height="114" as="geometry" />
        </mxCell>
        <mxCell id="Ez7FeFpJxv9Nc_yo7gzA-12" value="" style="shape=image;verticalLabelPosition=bottom;labelBackgroundColor=#ffffff;verticalAlign=top;aspect=fixed;imageAspect=0;image=data:image/png,iVBORw0KGgoAAAANSUhEUgAAAH0AAABzCAYAAAC1ig1VAAAgAElEQVR4Ae199Xcc995e/4Oe/tCf+lNP4e1t37b37cXcOE7sxBA7MTOzJIssZmZmZmbJIouZWbOrFZoZEjPT0/N81usouZZtWYrjJNY5e2a0szszO8+H6fvv8PHvd/cE/t3v7hd//MH4CPrvkAg+gv4R9J/nCTx79gwPHjz8eU7+8ayzfgI/C6c/f/4cjx49xsVLl9Ha2Y2U7DwER8Ujq6AYQ6oR3Ll7FySEj3+/zBOYN9CfPn2GW7dv49SZc6hvbkNsSgY8A8Pg7B0Ae3cf2Lp6w8HDF66+QQiMiEXpsRpMnTyJW7fv/DK//Hd81TmB/vTpU1y5+h3GJqZQVdeIyPgUAdnBw08AJsiOnv7yHsF38vKHo+cPx/heVGIqmto6cOrMWdy9e+93DMX7++mzBv3Jkyc4d/4C+ocUHK2oRlhMopaT3bScTGD5IqCve+k+R8KwcfGCu18w0nML0dHThzNnz+PZs+fv7yn8zq70VqA/fvwYJ06dRkt7J3IKSxAcFQc7Nx9YO3vA3sP3rUB+HQHwGCWAjasXbFw8RfznFZehu28A1777/iUktAN6+gcxPnX85Xsfd2b/BF4L+plz51FZU4+EtCz4hUbBzs1bC7S7z7wAPRMh2Lv7ynV4PDIhBVkFJSgqP4bswmI4evjBKzBMKxW6e3F1GlHM/uf/Pr/xStAfPHyI0up6dPYO4Fhdo3AexS9BIGeTK2cCbK7vu/gEyrkp/mkbmNg6wcjKAVl5hcgrPAq/0Ei5vq2rF1x9A+ETHIGE9Cx09vTh2nff4fGTJ79PJGfxq18J+qPHjxEcl4x9R2zhFhSBo1V1qG9pR0Z+EcLjkuEdFC56nFb52+jvNxECgeZLC7SvnPuInTNMrB1hZusEW1dPtLZ3QFGp0T8wgN6+PjQ0tyIjtwCegaHyXWcvrQ2RmJ6Nju5eXLx8Bffv35/Fo/j9fPSVoJNbwhPTsPmQCbYZmGGnkSWM7N0Qk5qNyrpGFBytQGp2HiLjk1/q4nfhftcXYJN4qM+tnDxgaGEHU2sHWDq4wNTGEYaWDjB39EBPXz/U6hEMDKuhVqsxqVFjdESNwaFhNLa0ITUrDwHh0eImUgrQQEzOyEVbVy+ophgb+PinfQKvBX2r/hFsPGiCTS/A36Jnim2HzeDsH4b0/BLklpQjp7gU6bkF8AoKEyucD/t1nE2OplgmV1s5e4rhZmbnDP0j1jCysBOd7eYXgv2mNtimb45dpg6w8QxG/+CQgJxSp8CpSEF2o4KWXgWjahUmNGqMjWowNKyIBMjKLxJbgFLAzN5VrpWSlYumtk5MnTiFO79z13BG0EPjU0S8+4bHwTUgDLuMrbD5kCm2GpiB4K/bZ4hDlo4IjE1CYlY+corLUFRWhYi4JNH7BH+66NfpanK0ub0rLBxcYWRlDyMLW9i5eiEmKQ1lx2pQXFGFgtJjyC+rhn90CjYeOAJLZx8MDg5BpVLBrkDB/w1U8HWMggPpClyLFaTW/0AA4ySAsVGtBGhuRX5JKWKT0yUoRJXh5heMxIxs1DQ0Y2xiEvfu/f5UwIygU6frWzuhur4JfQNDKKuqRXRyOizdfAT47YfNsUXvCNbtN8Q2A3NYe/jDLzIeSZl5KK2qQ3pOgfjeFPv2Hn4ws3MBOdrcXiu2bZzdERWfjPLqOvEQsguPIiOvCFEJKQiLSUB6Tj6yC0qQW1yO6vpmTE6Mo2tQDZMcFT4JVfBFhIIF4Qo+DVOwMlbB7lQFDkVaAmjtUzCiUmFUoxEJQIJpam1DcfkxxKVkwMnTH5aO7uIFxCSnyz2Mjk/g/oMHvwsN8FrQyckVNfUYH5/E2NgEhhU12rt6hBtDYhJhZOcqEoDcv36/ETYeNIaelaMQRkBUgoh/V99gHLF1ho2zJxzcvRESFY/SymrhtEyCnJiG0JgEIRDqYjt3H5EU3Hf3Dxa7ITkjBy3tHVBPnIBf9XF8m6DBsliNAP95+PBLAvg8QksAW5MV2BQooCpo7VUwpJAARjCmGcHQ0BBa2zvlHmJT0uHkpY0QegaEIjQ2EUcrqjA6PilG4G81P/Ba0A9aOKD0WC00mjEBXKUawYhmFCMjoxgaVqG9owe5xaXwCYuBsb07dplYYcMBI6zZYyCqwM47EMWV1QiOjEVecSmqG5rE52bs3TckUkQtXUD65dNVgc4m4Hs08ui6USwzVpCWV4yytiEE105gX9YY1qdOYHH0CBaEDWNRxDAWRSpYGKHIdmm0ChsTFdjkawmgsUdB/5BawKcaUIaH0NHdg/KqWlEvvAZzA7w+jcLi8kpoxidx89bt35QrOCPoYQmpoCGXklOAiYlJAZ2crnuRADQjo2hu6xDCyC0uQ2RiOrzDouEaEA6XgDBEJmegtKpWACdgOteMIp+vVwGtA/ynW36edoKLtz9cvf0RFhOP4mN1SK4dgm3RCA7mTmFl4jgWhKuwMEKFRVFqfBGpxqdRY/g8agSLoxSsJwEUKEisU1DdqaB3UIXJUTXGNSqxF7p6+lBRXYvoxFQhSt6vtbOn7BeXV0EzOoErV6+Boehf89+MoNNlo8h2CwgX8Tg5MQmVWvMSdII/ohkTPbzX1EZcvM6efvDBlVfXIruwRLiFnKoDmCDPBuifAs//nby0iRsnEoG7Nzx8A5CelY2s8ib4lPTBLE+FbWkabAqtx97AQuwILseq8DYsjB7FwigNFkaoQTVAArDOUxBbo6C8nRJAhalRFcY0dAlH0M3fUVWLhLRMCTuT4GiPaCXAMfQPK7hw6TKePf/15QheC/pmPa217hYYjsLSSnT39mN0bFzEu6IaAV9t3b1o7uzB0WM1iE5Og0dACEQ3u3kL2K8Cbj7f06kAR3dvRERHIy4lE/7JxbDyCIKTqyvc3V1h4ROF/YF52Bxag68je/FFtAafR47gU5EKCjYlKTDPUxB2TMHRNgWKomBCoxIjUDMygu7ePlRW14lrGhwdL26guYOrEAPVG4n9wqVLvxrmnxH0kPgUHDC3Q1h8Cvwi4mBk5wZLVx+Ex6egsqZBXCL1yCgmT5xEdkkZMguPorqxGQVHyyQ06viCq3VcPp9ATz8XRTCvQTeQETxXLz9UV1WhuqYWGQWl8AyNhaObB1zdPWDrGYgjPtHQ88/ClhASQJ+oAXL/J+FUBypsTFJgmKUgsFxBaZsivr9Grcb4KG0ZEkAvjtXUIUdCwlFipFKaMQmVlJGDo5XVuHDpygdNADOCTpdNz0rrspGj65vakJiRAyffYBy2dYGtpz/i07LR0z8MQzsX7DOzhYNPMKKSM1Dd2ILqhmZEJ6VJyJbGEcUjwZkO2Gz3db6+Tk0wI2di4wQLe1eY27lIJC84IkYIcmxsXKunu3tQ39SKuLwKuIYlwd3HD86evrD2CISFVzj0/TOwObQaKyL68JUYgSohgC+j1Fgbr2B/ugL/MgVl7Qr6BlUSDZwYG8WIWoWe3l7UNTQht6gU7v4hsHJyF8OTBBAel4STp89+kOC/EXS6bHTXaMHTeOvrH5IkTERCKsydvZBZWIojzl7irm08YCwhW/r3Tn4hyCouQ21TK+iahccmikFE8OmWva1u1xl//DyteHIVgywM1xpbOeCwuQ1MbZxgYuOMfSY2CIlLwcDgEAaHVWjrU6F3WC3+ulqlkvcb2roRmV0Bn6hkePqHwN4zANZufrDyDBYC2BJajZUR3fgqcgifRaixIGIEX0arsSJWwT4SQLlWBXQM0PgbwcToCDRqBb19/WhqbUdWQREsHNywZO02NLd3/fpAP2BuL+JqdHRcDDhyPI059YgGKvUIenoH0N03CBMHD2w7bC4RPIZs6a/Td2fM/oCFPYLjUlBaXYeC0gokZWSL700wWUI1E/frwKY7RxuBufvD5nYwMLMWrqZfHZOYCr+waBy2ccMWAytsPGiO2NRsCcy09qlglqvAOEdrrB3rVIm1TkNtbETLsVUt3YjOqUBIXCrcgyJg7R6gvRYJICADW0OqsCq8A0siBvFZ5AgWRmqwKFKFpdFaCeBXpqCgRQGvxZzA5OQUCkvK8H8+XYr9xlY4d+HD1PMzcjpdNoZdkzJzMTEx9SOrnZY7CYDgD6s1OGzrCgNrZ/HZ/cJjYeLgJokaAV//iLh+jN4xmpecUyAh24z8Yona0V8nqORkAk1VwBIraxdtXJ5crGdqCRMrB3gGhAjRZBcUo6jsGOqa21DT1IqckkpEJGVD39IFqVn5wnn13Qo2J2mjdp+FK1gdrwgRhL8w1noGVZgYVWFqbESs9dKGLiQVVCIyORPOQVGwcvOFg4sHrL1CYeCfge0hFVgd1oYlkUNYGDWKhZEj4h4ujVKwL01BWZuCqckJFJaU4n/+bTHs3Hxx586HmeSZEXS6bAy0OHgHoadvQHx1cjnBfumrk9sHhiUKZ+roIZTOz9Q2Nosr5xEUAT1LR0nabNU3wxb9I9hwwFj0v1dYDGLTspGeV4SCo+WSsDF3cBPRyBCpkaU9jCxt4e4bhPTsfBSVVoq/X1ReJTo0MDJWkjVUF3SreDw1pwC9A8O4duk8qntG8UXEMD4PV/BlpDZYw7AtX+sSFJjkKAiqUFDYSn9dwdSoGsfHNRhU1Chr7ET20WpEpuTCITAGtvRE3Dxg5R2Ow/5p2BVUirVhLVgSNYzPojRYEKFGSasKJyfHkVtQgj/8dRECw+M+2Irf14LO4Axj7HaeAUjJLkBzW6dwt1pN8a4Bt4paAwMbZ5g4uMt7fF8zOiZE0ts3KAWT/K6jTzB2G1uJGuB5GQOgJDFz9oJHSBTI+S7eAQK2I9OimTniJxeUlCMtJx8pWXkIiowVe4A1ddTvNATpt7Oih4kc/7AorQVdXonm7iFEtZzB7qwpLI5SY1GUSqJ0iyO1cXvG7Bm/X5eoQD9TgS9FdTP9dUX0NI01Gm41Ld0oPlaP8JR8OPhHwcndC04e3rDyCoORbxJ2BhZha1QL6roVHJ8YR2JqFv7b/1uI5My8D1Kf86ZmBJ0uG2PvsfR7I2JFfBvbu8EzJAp5JeXo7OkVwFkJa2jnBkNbF/T1D/4ogEOiEL9eM4aunn5x9aKTM2Du4o09ptZCUOR+2gOOviFi9FXVN6KwrFJKqGkBB4THiN6nCiBXv87ip33AzzG06x8aiZikdKQfrUNO+wTsy09gdaI2Zk+9TClAAmCghv46I3ir4rSi2qtUQWGLNmBDP51p2/5BBa2dvSiraURQSgFcA6Pg5sU8gR+sPYMRGBWP3MISePqF4i+LVqLsWO2vD3Sdy3astkE4uqW9S+rS7L0CxWWj5R4ck4S27j5QtO83s5OM3Ni4NjGjUwE6/c9QbmZBCULjUsT6L6+pR0BUPNyDI0XH5x+teFmL5x0cIeDq4u6vA/pVx2gfSFmXhw+8/YPgHxohqqSwvguhNWPYl6nBhtQxLI1jiFaDpZGDWB7RK9G6TyM0IhlorTNz51mqoKhVQRetdfUIGLMfVoZF5ZXUNiMouQA+IVFw89VGCilxjG0ckZ5TKNU7d+/dA5s/PqS/GTldB3plLV22cTAQQ85loqWhuQ3kWEtXb3HZCDpFtXdoNHr7B4W7yeHT9T/dvri0LJg6esIjKFIieMfqGsDUpod/CNx8g8SYI7fOZNG/CuA3vUcCcPT0hYuXH9x8/EUCMF2bWtMPg+ROrAppwkG/TFj6RGJb8DGsDm/H0sgB0dWfRWrwRZRarPVdqQooAWitN/fSXVNL3J7+Ogs86hqbkZlXgKCIGPktlABUOyzsrG9pk2riGzdvfRDYzwg6xfs+MzupQn3psr2w2kVva8YwMEgjaFj0OUW0vpUTbD38kZiRi6r6JgGdaVkSDPV8TWMLOvsGJD5P/Wzp5C7iWBe9exOA83HcxScAtBlYjhUcFoGU9Cz4BIbAxtkDji5usPMMhEFAusTs14S1iBTQWetM5NAo3J2mwL1EQWajgvpulQRqaAiOj2rQ09uHotIK0MNgYYhPSCQYsqXLyWKOuqYW9A0puHrtu1+MAGYEPSwxDZsOmkgUbmrq+EuLfbrY/sFlcxGRzwQFgzYWrt6i4z2CI5GWU4jW9i6cOnkaJZU18I9KQFp+saRcWV7N0CW5kVzBLV/zAe70c+h8fl6DADB4wuBOSka2VOTU1Tcir+goYtLyYB8QK4To7OoKa+9QGPqlYHdQMdaFNWFJ1BC+YNImUo1/hKnwZZSCPekKHIsUJNYqYsyxfGtyTIPxsVEoKpXUAfDcrNZhXsLY2lHEP7uBSitrpLmDcfv36d7NCLrWZTOGjYc/2jp7JCpHDmcUilWpBJ86rrt/UAw+nctGsd7W2SUJGop7UwcP8dujktIlPr/f3E5cQUt3X4mepecXS8yeuWta3zrgKeLnSgAEmz4/XUDG5i0dXHHExhEW9s4wMLNBdn4RRkdHodFoMDE+hoEhNapaunC0qh7haQVwCIiGs7sHnN29YOUVCmPfBOwNKsK6UB0BqCVq9/cwFZZFq7AjRYFVvoL4GgUN3QoYBWTxhhCAoqC5tQ0lZZXigtIoZXEJiZMZSbaHva+/14LOqBpdNiZaUrLy0dTaITqd4LOQgmKbwRkDG5cfuWwstBgfn8DgkCJuXkZeMXzCYxCRlA56AKyy3bDfSMBnxM7GMwDBsUkoqaxFTWOzlDSxocHNjzH7t9PxOm7WEQ2teFMbbXkWwWYptYW9Cw5b2OOQuQP2mNqDxuP42Bi6BhTkNSvoGlSB1jqTK3TdWrt6UVnXjKCUIjgHRsPVywcOntqQ7RGfGOwLLMC6sGYsixyUSN2n4WrwtTxGm7hhRJCpWxLAoKIS4qIKGBoaRntnF1jAuWz9Drj4BIF9ge/r77Wgs/x5+2ELia6xMJIunFdotNSttXf2CAGMT2pdtsM2zmLRkiB0KkCn+9VqLYEUV9aI3mf+nckchmkZr6fPvsPQAocsncSdS8rOF+5njRxLqXQNDrTmp3P/S6C9A8SdI/cwwEMOsnZ0g5mts4Rsja2dcPCIHQ6YO2GvmSN2GtvJlhmxyfFRyaezzo4pVtcSBblNCtr7VWKTSInVsILe/gGU1LYiMLkQDCy5+QaK/WLt7g8z72ghgPVhTfg6oh+LI4fxaQTDtiNg9c6aeAVHSADVCmq7FMkLjI+PI7+4DH/42yK4+4e+L7zlOm8EfYehpYCjA5+cT4CMHdyFO9tfuGx7j9igopr1dP/ssg0PqzA1dQLlNQ1COCGxSahrapWMHJMdhywcpMya4DNcSwKjC8igTUHZMeHI+LQsKZrUZewIOEEmIdBNYrjW3M5JK8JtnWBq6wx9c3vsO2KP/ebO2G3qiB2GNth48Ai+3nIA2/XNJUdO0ZvWoIjPvjBcu6Wu3pairbSlsdbYq8KQwgobtZRcDwwNI7+qBeHpRWAtoLNfqIRtbd18YC65+3xsCGvAiogeOe+CyFHJ338eocL2FAXVXdpijejENPxxwTKExiR9mKCTK/ki4HwR/I2HTJCUXYAjzp4isvnjO7p6QV+dbp7OZaObx/h9WXU9Dlo6SI6e7h8/1z8wDJYiBUYlSGyeUmD9ASOwgIOShtE7JnSiUzORkV+CzIJi+IZGieXPlCq52cpRK76NrRxx2MoJ+0ztsE+42gnbDW2w+aAZ1uwyxNeb92P5xr34YtU27De2RmNzi4jckEoFX0Vpw7UEnEEbqbUL126pq52LFaTUK6jtVmFYYZUNXTZtGDr3WAvisksQFJsMe99wqf+3d/OCuU80DgTkYVNoHb4J75Ig0MHsUbQPasTid/cLxZertqCytuHDBl0HPrfU+QTd1MkTOw0tRWSbOXkJqBSd1On0zynmJyePvwSdhRi6oI3U2o2OYXR0DG2d3WC3akBkvPjzjNdv1tMmbJgHoLRhMIfgO7j74oiNA4ytHaBv4YiDZo7Ya+qAvebOIr4365lj7R4jrNhyAMs27sXS9bvx1dodWLRqC/761SocNrdHd3eP3Jtz0Q8cTvCnv0gEDNcybMt9EgBr7+NqFFR1ao21E2Nqsdjb+4ZRWN2KjIIyBMamw8Y7DPau7nBw94GZTzR2++XALqkKTR09GB4exqa9h7Fi4270DSq/PtDZ8sQXGwhiUjJg5eYjNfP02Wm1s4hhavI4KmoaJNXqHhgh4nK6/icR0DikX98/OIzahmbkFpVJ2PeQlaNIFnI+myyYv0/LLRTPYJeJLfaYOYn43qxnIUB/s+0Qlm/ah6Ub9uCrdTuxaNVWfL5yIz5bvh6fLluLf1u4XEqy2TxBsW2UreXo6WC/ap8+OittSQBLohSw1NoiT0FUlbbQUkN3bVRba9/eO4SKhnbklh6Db2wm7H2C4eTmAWcvf6mzi05KxZpt+7HP0AJnz1349YFuaOuKI06ekmShRd/Z3YeS8moERCaIVU8jzzc8Fim5hUIM/F/q7UbHxe3TGX464GkkBkUnSJg2v6QcVXVNSMnOB0PAu02sJV/vGhgOS7cAvAR6u56IbwK9ZN0uAXohgf56PRYsXytgL1i+Dnz98bPl8PALwfHJSbHSqb/Jza8Ceqb3qAJoAzBtuyxakTIrZu4ijmmNNRLUmEYjLltX36C0VOWW1iAsMRMe/sGg/rdy9pBMYXJmLnoHhnDj5s33kpl7a0NuuljX7evEO0Gnn07O5Yscy0pZchFbiCmyfSNiEZmUAUM7V9HXgdEJov8JNCN+/A5tAG5JNCzHokinkWfzojSrub0TYXEpoNhnwsY/PA6rtuuJ6CbQi1dvw+ffbHoB9LofAa0DnJz+969WSdPFialJNPcqWJswe9CnEwP1PxM3fLHAgta6YbaCiCptwIa19qMjI9qGy8EhidqVlB+DX2i0dNnQOKVhyrp7dgZR3HMYw8OHj34WCTA/oNu5Cpgsf54usqmvyfncUmyzeoYdMIcsHcQ4Y+CGBhwNuc7uXiEUrRE4Idk9tky9LMQwMENQdCJq6ptFrJPw4tJysGLzXvzA0VpO1gH8qu0nS9Zg8bebkZSeLUUPJa0Kvo2bG+g6AtAZgZQaJAT+vzLmBwKo6FTAMqtRjVqqbVWKIq3X9U3NSEzLgm9IhOQhWEDCcHFmXqFIgJOnz8xr1+28gE73jb3s7IYZn/hnl43WOw25crHeHRGekIrWjm5ppHDyDZH2KGt3P2mWKK+qw7AyAubiydWHbVxEMqzde1j2j1bWwC0gDNsNLaSZgtbvP5auEbH9KpB/+t7fvlqFbzbvQX7xUUyOjyG5TtsMSZB04M3HloDTBtDl76kKmLkzylEQXKnN3JEA2GhBV1CjGZEavtqGJiGAsNhE4X66nuy8pQro7O3DxXmotJ0X0Gm908Vy9guRuTR011hIOZPLFhqXLBJBW4Y1IoUWNPhsPf1wxNED9t5BSM7KR0NzO+oaW6S6xsUvBIetnaVB0j0wXEBn5e2Xq7fOCvS/LP4Gm/YYoKq2HhNjGqmeoVFGcOYD7NedQ+yACAX/CNNKF5Zas3iDwaDOfgXjI1oCYGh4YHBY7jEtOx+xyWlSVLrPyBxegeFzFvnzAjqNOBZD0H8naHS52HI8MKSIjqbIp/U+3U+nLidR8KUZHRfXjmVZLD4IjU0GOZ85e/bJ5RWXy+CBmoYmCeqQuMjp7wL6n79Yid0GZmjv7JaeNna6Egxy5usAm+9jlCwLwrTlW6vjFBzI0GbuspuYu1dAT2B0VAONZhQDQ0MwsnIUn54j2Ob6N2+g06gj6OR49q+z+ZExe/a3Mfo2/iI4w1i7i1/oK1026n/69aRycnh+SYWAbuHiLURACVFYdkySQDuMLN8J9P/3+dcwsLCHSq2WB0uDi6J3vkF92/OR2HRxAG5ZvcPcPYNB+c3ajlsmhFZv3YfPVqxHR3ffXDGfuVyKWTb6xbowrM5in77VWe/kdO7rjvE7/C4JgO+xU8YrJEoqYfWtncWYo1smufZpsXpx2TSjou89gyPh4h8qep8p2OTsfLC9iuci4GyueBdO/9PnKyTrNjU5KVbynjSt2/W2IP2cn6MNQOBJhJ+EaYNA5HiOW1m34yCWrduB8cm5j1N7JaezLzu94KgASe7VgfnT7UygT/8cv0/O329uj6DYJInZ0yJnnXlDU5sEYpiO1dkA5Hb68A4+QVi/31CKKdkHHxKbLB2ykTILxxR7j8wedLprNPpYMz81MSH57y3Jvyynv4qIyP0MALmVaKt0qfa+3bJXXjdvzb365pWgU36wLFinp6eDOH3/bUDn5xmnZ4YuMCYJJo4eYq1TXxtYO4moz8wvQXNrh1Takvv54kQL3bwbXodNFCzKrG1ogYWztxDibDn9k6VrsOjbTYiMS8bUxJgUP7Icmv71qx7+L/WezqhkjT5j/FR1y9fvxPaDxnMW7TzBjKBzUC+HCpArpwM9fZ9gJGbnSzSO+9OPTd8X0C0cEBiTKMMLIhLTxMpnnp0cT04mMfiG02grkzq7wUEFCek5UiLN8Sb02dkuRZ/ePeDdrHe6a8vX70BmbgGmxjVS7cKUKkXqLwXwq67L+/kmVkFqnYLJsRGwDHzp2u2wdvH+eUFnBadqbALGDh6S82YN3E9F/buCHhaXLEEbumyswqltbBEXzdE3WCQCa+HZLUu/vrGlHSUVDOnGi2eQnJWHd3XZ/vrlt1i1dR/KOYF6bASBFVqwdZz1KgB+ifcoeTYkKihuVSTfH5uUjsWrtiBknlKwM3K6jqQ0E1Pwj4yX/DY5lqlOhkFJAO8KOq1wncvGaB3DsMyysZKW06S1lbY+IhWcfIKRml0gyZymlnY0t3XB2Tf4nVw2+ugbd+vLzBmKTY4m+yzsw+JyEhkNOWbz2JrFABLzBAtXbJB+Ax0uc9m+EXSenKsynDh9FkUV1XD2DxV3jJy/dp8h4jNz31q8B8UkSTaOrVLDL5ohCb7uxULLsdFx8e/rm1tF1AdHJ8LG3U+u4RUaJbXz7DOj+pitTv/zopXYccgEKlrEKhWO5H6BwRwAABiFSURBVGgNpl+Cm193TbZesUWaDRaTExNgnQDtkbbO3rlg/fK7bwX6y08DsmKDanQcKblFsPEIAAsbmWx5G51O0JlwYSEFV3xgAwSLKXSgc8v6uta2TonusZ2Kw4AZms3ML5ZMHV01uoPv4rJRvLNGjh0rHf0qHMzQBkdeB8AvcYzSh9227K5lRe2ew2YC+omTp6dD8c77swZ9+pVu37kD9dikpE9p6U833qbv6ww5gs44PT9LH7y6rkkCMbr+d0bnyO3Msjl4B0rtHAGmlR8ckyiFmRyEwO/P1mUTd23ZWplkxeLE6k5t6dIvGZh5FUHRXWO0jqqHMfn2ji5s2XcYX63ZKlOupj//d92fE+i8KMdtMTijC8RMB1u3Px10WuliFxiYSZGkR3CENPvVNbaKcUfxztg98+dbpHJGWzbF6lkGbDgRgxE6nns24p3iceHK9VLAwLp0dqpw0sTn7yHm/ipwZ3qPRuWSaG1H7cSoRur4Vm/bj136R+ZtuuWcQf/++o1Zg07uJWi0C+gS0iVjHRybIzg5ksEZinoCzyocGo38HNOy7Et/F+v9kyWrsXiVNqV6fGwEyfXa4of5zq7NBObbvs/7YTYuqU7B1PiYpFe/WrMNtq4+ePRofvLrcwb9XThdB7pOEkjUTv+IBGCoq2kjBEcnyfhO1tpzRGkgpzo5eYol/y6g//2r1TISpLi0AifGR2SSFKte3nei5U3gS/w9Xpt6PT45gfCYJLAGgCPX52uC5ZxB5xw1dsEwYqYD8afbn4r3n4I+/fPkfoZt+Z2DFvaSaCHHc0YtBxW2tneDOfjZZtkYmPl6w040tbRhXDMCj6OKzJh9Ewjv+zh9dM64Y4PEiePH4eodKONMONJtvv7mDDpvJKPwqAD10+CNDkwtgA6gIUed/jrQdd/huSj2+Vnu65I2qTmFsHD1mbVO/9uXq7Bm+34MDgxgcFgN6/wP011j4SULLjnMkNk1C0d3/OsnX4H9BfP1Ny+gnzl/UcKluulSOuB023cBXfddbgk6z0EpQCLg/mxdtr8vWY19huYyD7atXy3TJyje3zcnv+l6FO+cjMHULydW6ZvZ4k9frMDE1In5wnzm2PtsrzCo1oguXrPXQKzz6Vw/V9B/TABaIpgN6HTXPlm2RrpVR1QKarpU2JH84SVaaF9whi3r6kc0GjQ1t2LbASOpjT8/j5Oq5oXTdQQyefKUtCFbe/hJsIZuHDmTYVuOJ5uNeJ8O9E/3SVCzBf3T5evgFRAmAY/iVpUUK3xolrsuB+BXziaRMZRWVGHFpt3Yb2SJ776/rnvMc97OK+i8G1qYl65cQ9fAsKz5wvJoAs/CSfZ9va1O/ynQ0/+fLej/WLpWyqKjE1IlVZnZqB069KFZ7gSdJdTxtdrxZCyH/vuSNXDwDJjX1SnnHfTpZMhFdrluWl1rh8ya4Ww6tiqTCKaDONv92YO+RhIWHATECY/R1R+mEUfQl8doR5ywJp9Lo3A8WWRC2ry2Mv+soE8nAC7A29TRLRU0vwTobGuqq2+QMC/dNVakvsmoet/HdYGZhh5OoB6Fd1AE/vufP0f+0flz14jJewOdF+MkKk6ieN+gM7ixYuMutLe3Y0DRgA2L9IcJPLcfipgn6FyJontQjeGhIYnC/eFvi6UlajoDzXX/vYLe0tmDfebaLNlsRfr0z89WvNNd23nIBJ3d3RhWaWQIAbtO7QoVbHthxbMcmQ/9lyQAXv9QhoJ+ZQRd3d3QO2IjTRxcc34+/94r6F0DQ1IZw4TLdBBnu/8uoBuY2cror/Gxcal3Pz7KPL5K2o3Z5WJfoJ1EQc7niwBQx74vIuB1eE0uN6KoR9HQ2IR1Ow9h3Y5DmDp5aj4xf7/i/cz5CzJe5HUh27chgNmCTj+dNWaHTG0QGhWPmvomGd7PQgpm3Fg61TekkurYtHoFtgUK1icoMv+dwDNg8nNLAR3o7Hhh80dZRRUWfL1egjOXLl/99YJOdy40PlVKm1m7/jYAv+ozswWd/WzU639d/K1Y8YzBHzC2RGh0PKpqG6SLdIRLeY5pwOANZ8Kym5WTJ6wKtPVqtKq/eNGe/HMQgA50DiaaGB+XBYX/19+/lNm3nDo5n3/vVbzzxkfGJ8VX54gRRupeBeqb3nsX0HWNjMyrM/lCPc/3vlq9BQdMrOAfFo2KqloMDSnSXMAS6ZERNYaHOc9dOyfOMl8bF+fqjwzh8kVJMB9WPkEnUeW3qGQIIQcP/o+/fIHQ6MT5xFvO9d5B51X7hlWyYiMjduv3cQXH2fntcwFdBz637FP/42fLQI76y6Jv4BsSheMnTsnUp4KSMnT39Eo3KcurKAkoBZp6FCTUalXAzlRtTp6NCazAYYfKuxIAv8viiZpuFUbVCryDI/E//rIILBOf779fBHT+iNPnLqC8thGB0UlSQcMBBJwvS0DfltO57ttsWpU/XbZOOlxYFft/FyyVkSSHjtgiJDpRlvbUje7k9OjV2/cjMDwaOQXF0j3KFZuGFQXsKScoXMKD4765xhsnRu5K0YJOL4A2ADl3NgRAibEpUUFTrxpDgwOSXWMh57HaxvnG/P0acq+6+7v37ovIL6mqg0dwFHYaWUnpFbmf4v9VRPC2nK5rY2LVDFOrf/5iBb5YuRFG1k5SZ8+xIDqgHz9+jFNnzkqDYER8MvTNbWVpbw7457BiznXt6OqWQcBcvZliX61SMDGiXdKrpksBjUA2HnJsGEEk97+tF0BCYaFm56AG3d3d2KlniiVrtqGrd+BVj21O7/1inP6qu/7+xk1oJo8ju7gclq6+L9OpLIRkbl1HAK8DXTJqAvK3Ir4Zd2dRIRf2ySkqxcjYJM5fvISLly5j6sQJ1Da1yAICHALgGxopwwk5NpwjQTjCk+NKOVM2NTtfLH66eQR9+ovruJHzuaY7FwxiAURmg5YAtiRpOZ7gv84LoJtomadgUDWKpqZmsTc27dHH2OTUqx7VnN77oEDX/RKOzOSY7AFlBLFpOTCyd8ceE2upgqUKoBSYnmUjJ1M/M+/MMmfOnWHDn7mDu8yoPXHqDNimRW7mQJ+41EwBmAv4cgAhJzRztQiCy/91o0a55f/8XHlVjQxF4jxcjv3+Z/BVkv8eHhqWAYNqZQh9A8OyxjsHEDoUKiAB0AvQSQEabjo1QKOQ4WE2cB6rrpUJWHQxL1+5pnss87b9IEGf/uvo5n13/QYa27sQHJss5dY7parGDOyJoyv2b58tB4sHt+wzhIOHP45W1sqKiD9dE5ULFZBzOTfWzk27erNu8PB0oMnhMvjHN0g43tUnEN7B4UjLzkNjSyt6+vqhKCrJeZMI2JrFlZq5YjSX82ht78DE5KQYf8rQkKzkPMh5sH0K0hsU2Bcq2J6sXQGaHM7mBi4PHlmlSOCIdgQnSVo5e/0sw4Y+eNCnEwD3GeDhRAvm5lkCrW9mB++gSFkt4nU5Z/bmFRytkDVgpgOtA5jinBzNAT/kfI7oZpPB9oNG2G9kIYTCY/xcZHyyLN1RWV0rg33J9alZubKahIWDOxLTs3D9+g15nT5zDhOTU+IGDg4OSkxdrQyjrU+71juNQPbIL4pgXEC74G9ccoaUSHkEzH3UyE+fH///1YGu+xEPHz8C++yuzGJY/sjYuKzyQNAJHqdMc204I2tH7DU0x+a9Bti4W0/AtnT0AJf89guJwjeb9mDlpt04ZGotc2hJKBT7lAahMfHg+u5cnUK3LDiPq0fHdbcqXUHXb1zH+QsXMHX8uKwMSQIYUYYwohoWN1DGhfeoMTQ0KF04//Lnz8Vte3mSedz51YL+Ls+AHTlhsQkyLHjL/sNYt/OgcDJbnQLCY5FfXC4uEmfYnz57DoB27RU2YtAQJPB8rd62TwiE20OmVjKydLr04IoVpcdq8PjJ43+6TdoVt27dwuXLV3D8xAnt7PyhQYyqhqEZUctoNQ48pH3Ctu2f4+93BTpF/IlTp2XVKC4SzCF95MjTZ8/j3v37r32+VB3MdnF6JefexKdmgyPF1+04IJOoyd06u4AGYUh0PC5ffb0R9vjJE9y7d0/cxhMnT0IzOiq2wfpdetL0cefuz7OY3+8KdB2q87F6Ej2MwqMVWLlpl+h/qgsd6Nxy8d/ZpER5vkcPH4qLxvTvz7m+0+8SdB34c91qxiawdvsBCaTQwv8x6F4SF3j48OGsLjMfBPmmC34E/U1P6DXHr9+8BXt3P7DBkAbhdBFPQ88jIBSXrnx4a6l/BP01oL7p0LPnz5BfUoYlEvFzgqvvD9xOw466vX9oWGcPvul07+34R9Dn+KhVI2PYsOsQ9hgcEU6fzu1caiQrvxiPHv+zFT/Hy87p6x9Bn9PjA67fuAkuJrhpj5746QSdKzrJ2jIuXjLa++7d+S2CmOMt/3qDM3P94fP3/efgqlL0+TmtmeFdGnTufsEIj01CU3snnjx5f8tvvc3v+sjpb/OU3vAZrk1HDg8Ii5Zlvxta2nHq9JmfJW7+hlt5q8MfQX+rx/T6D92//wAnT5/FzQ9kAd3X3+2vOPb+ph/28fjMT+Ajp8/8bH6zRz6C/puFduYf9hH0mZ/Nb/bIR9B/s9DO/MM+gj7zs/nNHvkI+m8W2pl/2EfQZ342v9kj8wP60ycywpJjLB8/e/Wzev74ER7rwpHPnko5MsOTT588+1kLBl59N+/n3dkWQjx78hhPn832W7P/LXME/QlunKyB9/bNWPX1Sny9dDF2WHuh6dQdvMT++UOoS4Ow8W+fwCCyHOfO98Nv+xpsOrAPnn4pSA5rwHezv+/3843H36Eqyxc2BbMZCvAMD86ew/EzF3HjDXf5/NlDXL10CifPsdDiNto9LZFXOYLZlV284SKvODwn0G82p2P/+iXwL+jDxYsXcfHiBYzWhGLvgb2I7j2LJ7zgfQWB3qvgVH8erEIbK96FDaHZuHD7Fu7ef4wnj59+wJx+FVkhhtgUM5vh+t8jxyUUpuFjr3jcP37r+fVBJLrtQP6LJpanDx/iyZOX7PLjD8/jf+8M+vPb3fDUN0Z40XEtuNNu6lSpNT7VD0XP5QsYTnTEtlWfwDSiCa35VfDf9Sd8a+SNyqbjuHjuFCY1F3+g7BsaHM3PQnpqKip7J4VIdKc91VmIzMw0pKY348T3rxCBt8+iZ2wSl+5rH9rT+1dwenIAl19kNZ/fuYbOpuPQTmO7CXVzOlLSMpFX3I3vdc/5/lVoLp2DRtWKquIcdI+OIy/KCrsSXozofHIBjVWFKFJdktu6eqoX6anpyMzMQemU9szfHa/Gnq834osNLmjTnBOCvnfiGHKzMpHFV24jjl9l1u0Rxsq9sHvFH7E3tBoj127i+7EhnD5/A7qc3ONzapSlpiE9MwcVx3Vy4zEuj5/A2eNnMNpeh5yUFJTUNOOm7kHhHnpbK5GWmor0kmr06L728vgcYu/fNbliq4sVml5V8PlAA+dVJkiobEGhxR4s/uQPWLkvFNFmATBc8i/4y/K9CIxoQGmIB8z2puEigCcXhxBsvBur9pnisN5ubF67DuFFA7iDB5jICICzxSGYmBpAf4seDpoWQbnwk8KEq7Uw2GGFxGZtedL19ihsWPElwie0iJ5vdMJfdidh8sZp1GdaYK/+ZhzSN8aB1Vtx2LcG5ylTr7bBxGo1Nhrpw8PJHNltg8iNssLuNNawX0SZlwGWbNGDY/Ukbkx0I8zEDFsMDGFqsgPL1huiY+ImTndl4Ku/LsQfP92AtDoVrkw0wsZyHQ4YG+OImQm2LvoCWxwycOrePXQlHsKSv/4XfHE4ErWnTqB855fwi+sAf9mFoQq46O+AwX59HDbZji83HEGKQmK7g3pXU3z7tQk8fQJhcXAfNq9cAvu003iK+zhemo7D+4ygp6ePvXvWYrtJBE7+pKj2nTn9eKkdfIOCMPVgGgm93L2G8i2LEV18Eg9u9iLCaQfKtMyBnqgNssgcP9oX7gOrw7ngcA1Nyg6sM4nH+RfnuNJdjrqGIVw/34JDuxzQ+LLU7CYyLHbCOrkJN0V/6C56FzUOe+Ga0Ij7Dx9jvMYRy5fZIj7lJJ7iHqrNFsGurA+nG9Nw8Bt9lJDS+He5DqbrViBeuQ/c7Yfl0sU4FKHrFL2G/FgHHIyrQmm0NTYdCEf/ZX7pKZpD7PDtlkwBSE5TWYDhE3e47AEy7ANxOGRSTn9zqhUFvfIl+R9TcVix3wJlZ58D94cR67gReSd56BZKd32N0LQhPHv0PeI9vsJSv/KXUnTI1xh/3FmA63iAdt+tWPy1OXpeKP/TJcHY/G0irj04CbfV++GUcUZ7LVyEurAUZ35Sw/HOoJ8qt4Ojrw80Pzmh9mpXUbhpOaJLpnDjbCP8rTYhWxo+nqAxcDVsM9rlwfVE+ML6cAGu4R5K936J8NLRFzf7w+ZGWxD+uuwbrNuyFdu2bcO27bux5vP/im3+Rbj2I9CB661e2BhdjOMXz6G3VA+hEbFI94nC2dvnEP2NK9o1Z9GWHIat+yrxA/E/QkeWEXaXnAKut8Pc2B5B9S8o7Ol1VIbtw7/82x/wn/7DUniW6sB7gvPdmdjz9d+wfPVqrA0sxA+jgM4jxtwD+716fzBm8RSqqlisXb8R21d9jv+5xQPNV54D37UjxHI1khSqqxso270S4ZnDuHltAIH23yB6mv345GonPJYEYPjO92j0tIaTQ9ELVfUMFxrTYbUuBFOP76IlxgQrFi/Aik27YF6hJbwfnqZ2751BvzMQjC02JqjUEdX0M19pwK4V9sjX3MGjC7Xws3wT6LdQvPFLxBwdfanPdKcbzd2KBbscUNHVj97eXvT29kMZO45Ltx5Me6gvPn2hFls2BSK7qh7pFgU4froGyXlJqKxIwv6QYpy/exvtMUFYdaB2mr3wALVJa7G+YBz4rgPmTvYI7Xgx2Of59zjqth0LNnsjNdIOa2x80PPS1XiGuxdH0Fefjo2bvsGfFq3EtqR+PHl+CXEWntjnTWnxHJdbQrB2xTfYtMsLeT19GCz1wgpDd9ScfwZ814YQi9VIUfH+daAP4fqVXoRYr0HqNB54eKYezks90HfzGho9PeDkcAzfy89+hrO1yTBfGwSVMMFNnBvrQ12aO/5twUL8Y5MRgjqu/shYfmfQ8ews8qysYOOejVPTfYxHV1ARsA3L3NNw4jHw7Owx+L4W9DzwlrqD10AvoBYvF6x4cAlnzp3DyaZgrFzgiJofWBNPr57B5au3/xn055dRvG0hDuw3wNYstiV9h4rkWOh/+QnMs7VAny6NxP7V7ujV3fODEQQcWgy/jhsCupm9LULaXnD6o8vICzfDrhSKqXFYbvsTdgfWi0i/dfkCTpJbX/xNHXXCn9an4fLji0ix9MBhX40cqXL+DLvim6DTgmcrjPDpHhM0UGh834EA65VImOBHb6OM4j19GI/vnkOY22Jsz1brTo9z+X74ZFUazj+/gUYPVzjaV7xwdV+Avi4Uow/u4/SJC7ipM0wfnEC0jR6+dez6wViecwPj2Ra4W6yHnX0UcjOzkJWRjqRgUxxwCEDLBS189yaL4WywHCnyDJ6gxmMRjBOaRLx3+DvDcGeKGHJ31EUw2mIL9+RsZKanIc7PEL5pRTh76zJKzfbgm/0eyM7ORmZGEBx2bUZC2dA0bn35bHCycDv+83/+3/Bq1ZqtU/GH8K///k/wb9SK5qeXuxDhsAUHPQORlpGNKOtD2HAgEkM0f6804KCpMbwbXxggDy8iPVAPayK1Ltv3fV5Y94dv4V+uwkBFPDZsPoKgzGzk5xfAz3MHjpQPilXeH+OKvd8YIL//JJrTTbHBwBV5uZlIz4yD1cEl+I9/00Ou5i7w6Bxifb7CX42zMXj8JAq2fg6fmE6RdsNlAdi2Yy8ikjKQkR2IvSu3wLyED/EWKm2sYGZaLLYQ8AynK6KhtzQAx+9fRJqTBTab+CI9Mxu5GeEwdjdA/PCPTfh35/SXz/kOOvzdYGZgiMP6B+EcV4KLOp+Dj+C7EdQfTcGAMM8zTDYmoLyPlssznG6tR2n+AHTrBN/SFMPW3AQGhw7ANbEM53Vs//Qcjtlbw8jYGAZ6h5Bar3pp4Ly8jRc7Ty+pEBlZgfEb2pt4fL4GicV5UF2bdlP3R1EUoYcDekYwt06CSjdV+/YUiivK0SwGGenyNgZbS5DRSanBv3sYiAmGT0YPHuEu+kuDoadvCGNjI9gkt7/8HQ8udCDB9QC8C3pw59ltdHo7w1T/IA44x6JdM4qj6YWoUmmF85neQujv90FxxyRUR1PQ0n3qpbS71F4Il4N60Dc2gVONTtbfx1jVMVRWaF7YJc9xY7wbJYlNwjy4rUZioC309PWhZ+6M+FadxfriJ8yZ0384z8e9X9ETmAdO/xX92o+3Kk/gI+i/Q0L4/4tuUsos2KxaAAAAAElFTkSuQmCC;" vertex="1" parent="1">
          <mxGeometry x="700" y="140" width="125" height="115" as="geometry" />
        </mxCell>
        <mxCell id="Ez7FeFpJxv9Nc_yo7gzA-13" value="" style="shape=image;verticalLabelPosition=bottom;labelBackgroundColor=#ffffff;verticalAlign=top;aspect=fixed;imageAspect=0;image=data:image/png,iVBORw0KGgoAAAANSUhEUgAAAQcAAABoCAYAAAD8fjWcAAAgAElEQVR4Ae2dh1cU2bbG/VPeuzNjQh2VoKIEA5jIShAVECWqZCVKzgiKAVEkiaCIOaMgIiLmHGbUcYKOOk64d/TOOOHe9721T3VVV3V1N8EGuqVYi9XV1RXP/p3v7BP3MCh/SgooKaCkgJYUGKZln7JLSQElBZQUgCIOCgRKCigpoDUFFHHQmizKTiUFlBRQxEFhQEkBJQW0poBJisPv7//AnQePsP/4KbR2XMLz719qfTll59BLgfd//IG7D7/AAcZGJ75T2OgzBCYjDi9/eIP2rivYWd+IpNwi2X/+5nIcPHEa9x59iT/+/LPPCaKcaHop8OqHN7jQdRWVDTrY2LSNiQWJxh9/KGz01MJGKw5//+c/ePj4CY6cPov1ZRUyMdAmEOJ9VXv2oePKNfzw4089TQvlOBNJgf/857949OQpjja3oHhb79mobNiHjstX8frNjybyxoPzmEYlDj/+/AsuXbuB2sYDSMlb32tBEIuDeLtkeyWOn23Fl189w/8NTjord/3AFPjpl1/Qdf0mdu07iJT8YsOxUb4Tx8604ounX+H//k+hQ2ymQReHJ8++wcmWNpRWVBvM4GJh0NxOK9yA3fsP4+rN2/jnv34Vp4WybWQp8PTrb3Cq9fyAsZFauAF1+w/hys3b+OVf/zKy1Bj4xxlwcfjXr29x7fZdNBw8goz1pQMiCJoCIf6+tWoXzpzvwNffPR/41FfuKEmBX9++w3XGxlFkFA8+G1sqd6G57QKefTs02RgQcfjm+Qucbe9AWXXdoIuBWBg0t3M2bsW+oydw+/5D/Pb77xJwlS/9kwLfPv8eZy9cRFnNbqNmI3vDFuw7chy37j3Av38bGmz0izhQxqIM1nT0BCjDaWZCU/lesXsPzl+6jO9f/9A/OWMIXvX39+9x58FDNB07idzSMpNlY0fdHrR1duH7V68/WisaTBwokc53XsaO3XtM1uD6RKto6w4cPnUGD798gr///vujBaI/Xuzl6x+YyFbs3vtRslG4dTtj48GXj/HXXx8PG30WB0oESoxDp86AEkdfxvrYfkvOW896VKhnhXpYlD9pCpB4PvjyCcswRWU7hhwbNY370XntBt789LM0YUzsW6/E4c1PP6Hz6nVU790/pAzenbhRT8vJ1vOg1vWh+kcZofPqDVDGIPHsLs2Gyu8bd1Sx3jjqlTO1P0Ecnnz1DO/f/yF7/sdfPcPxs+ewYXulYnAtIzM1IadW9j2HjuL6nXv49d07WXqa4o6njI33skd//OxrnGhpA2UAzXRQvstH8VLvHPXSUW/dr2/fytLT2HYwcXj37h327GvCqeazKNuxk41HP3G2DWlFGxSj90AQ9GWEbbW70drRie9efG9stu/R8/z222/Ys2+flI2Wc0gv2qiw8YFsUA9Ny4WL+NZI2RDEoXTLVtD/JKtJGDdmLGJiYnHr1m1QNyRNYtGXAZTf5KWEtjTJl4zxl3tpPcqtA3wQiYOEjbFjERcbh46ODsYGTX7T9q7Kvp4xwadT3qYyNpHwzsNHoMljxvAnE4ep1lMxbeo0TJk0GSM+/Qwjhw/HbEdH7KyowKsffsTptnYFhg8sMXgg+DH+xjxSUywOHBtTMWXyFIz4jGNj7pw5qNhBbLzBqXMKG7xtP/Szsr6RTSb7aRAbvLWKg72dPaZPn4E7d+6wTwtzc3z2j38wIAICAnGmuRm//PNf6Lh8zaDj3D80QU3p/MOnz7CqBvX7X7tzzxgKCq3PoCkOPBv37z9gbFiaW+Czf3zC2FixIgjNzc346Zd/4kLXFawrKFEKkj4UJI2Hj+PFS278xNOvv9Vql4HYKYhDVe0ubC3fDiodbKynwmuBJxa4L8DcOXMxydIKEz4fz2CIjorGqBEjmFgQKLt378b3r17hxp17GGrdVr0VI5rg8/z7V8xtvHr7HlalZGPibA+U1+0dCFv36R4kDlU1cjYWeixkbEyeNEkrGzOmT8f+pia8+P4lrt66g6Ih1t3dWzb2HzsFGg9Cf4+/+hp5m7czNoLWrOuT3QxxEhOHl69e4UzLOfY/dYo1HBycsTw0Gd4Lvdj/OLMxGD9uHPz9/FFZWakqMcwxZrQZzEaPxif/8z9wcXEFCcfTp1+xgULbdzUopUZuEWvNf/HqFchDuHLrLsKTMpnRSRT4f2MWhx9+eKNmw3qqnI0xHBtLlyxFTXWN4E0QG2NUbLi5e2DtmjV48uQJW29jW229wkZuERsHwk8b/+LJM2Rt2CYwwbMxqOJA0LZ3XGQA5OQVwNLCEn6h2Ujbeh0ppZ2IydgDJg5jxwpi4e7qBnInJ4wfD1/fxaitrWXtFKNHjmRCMXfefJSWbsJXz57h2bffse6b3iqpKR9PMwlpyPVvv7/H5Rt3EJqQLjM6b3z6NFZxoIaxCxc7GRv5heu1s0HioMmGBceGt7cP8yypDYtnY+bMWSgvL2eFyJNnX7MZsqZs694++7GzrcLgqAdfPkVa8Wa9bAyqOFy/cYsZv2TjJsTEroH1FGtBHEgg6H+ChQ1spzszoQhelQlfn6UYO9qMQeHpsRCLfRezEoNKiylTpsDWxhYOM2cyoRj52WdIT0/HN998w8ah0wIdvU1QUzi+eNtONruT6oqXrt/CirgUvUY3BXHg2dhQuhkRUdGwtpazYT7FEfazPKRsmHFsLHDzwJLFSxgbY83UbNhMs1GxMRx5Obn4+utvWPf5oVPNHyUb67dVsC5Laou598VjJOdv7DEbgyoOt+/cw6nTzUjPzGJdVtTmQNUKXhgi05sw/nNLBgC/jz5JHCwmWjGh4Ksfwz/5lHkQUZFRqK6uZlCYjRrF3MtP//d/WclTUFiEq1evsmHH1P9vChm/t8+4OikdPmFRmOUd0CMIjNVz0MbGdPtZAhvR2UcwwdJGzoaZFjY+5diIWB2BXbt2cYXJqNECG1aWVti4sRRXr1xhKzTRNPreprspHL86OQOLwqLh4L2sR2wMujicbj6LrJw8QRyoQTIidQ8Si9uwYGkcq1aQ58CLQ1JJGxMHKjFoX3zBSZBHQW0P9ja2rPqxwN0DTvOdQOJA3kRg4HLEr43HhPETYD11GryXBiAlt/CjBEAM6ZrMPCyLioezXwgmO3trBcJYxeHhwy+gjY3I9EYkrG/l2BgzhnmVPBus4DAzEwSD2AiNKtDKxphRoxkb/v4BSEpMgvlEc4GN5JyCocOGfwim6GBjUMXhwcNH2gFI28sBsDhCaHOITNuLdaWd8A0rYOIw13WFIBhxeScYAK4LljMYliwJYiJBguEw0wFRcfGIS07D2szcj97oYnHQ3A6LT4VncASmL/QThMLUxCEqownxhWewgNhQtTmQYDA2wktAVYjZTv5qNnKPSdjwD1glYmMWImPXIC4lHWszhjYb4QlyNgZdHJq1eA5kbALAwz9JEIfwhErE5h5nUFC1wnqq2sVcta6BAeAXls+gSN10DmuzdiAkKnZIi4GmOIi/x6Rlw291HEp2VOPPv/4yRO+TQa+hy3OIztiPtQWn4R6QLojDyqRqxOQc4dgw087GkuBMNRvZFQiOVNgQ8yDejknLgd/qNViVnIk/B2k19WHkOWgTByodCAC3wFy1OCRWIjbnKAMgN78Q9XubkJa/EynrT8BrSTimz3RAZFI+kvIGf4kvcUKbynb13iZcvHodNPvVGP50ikPmAazJO8mxofIcVibVICb7EGODer2IjfSCKoEN+xmzEJGUj+T8TUph0YeBUVV7mnBxgFdT1ykOVDoIANA4h7FjEZ5YhZjswwyA8JWrWBtF0rpMhIaG4Xz7BRw4fASl25UZeoYQow3bq3Di7Dk2IGawhEKXOMRkHURc7nGJOKxKrkV05gHGRmhYuJyNQ0ewoQ8hBgyRlh/bNWiGNM2UptXU+/NvGLVIk+ewoXQLdlRWsa5MapAkQ8flHoPrivWC57AysRrRWQeZO8mLw5r4BFB35YhPP8WoESPh6emNPXv2ouvGF9hevUspJfpQSmjCTDMg6w8cYSMNaYHegfojNqhBkroyd1RWC2xQARGbcwQuwZsENkgcojL2M8HgxYHYoPk5xMbwTz9lY2IaGvai8/ojlFXWKGwYgA2aOb37QP+spj7s5ctXOH7iFCIio+HnFwAaDkviQKUDAeAUVsUAoG5LqlfyAIjFgYZT01yMkJBQzHaczcSCui4XeCzEiePHcenyNdTuPazAYAAYaKk6muI7EMuRvXz1GidUbCwLXI7JkyYzNoiLmKxDAhvkVa5K3oXI9H0ycaCJe8RGUFAQG2498rPhIDZo8Nyxo0dxofMyqhoOKGwYgA1aK+L5y5cGW/OUDZ9+/foHpKSmIzQ0nImD+fjxQkuzU/A2Jg6TJ9uB6pU8AGJxIGO7OruisKAQS5f6MRiol4Jm740aPhyfffIp5s13QWpqBjovdaGiZpeyVkQvYKCBYxTzkUYs0iStiJTsgXIe8ObNGxEbk2E+foJWNlal1CEiba9MHHg28vLyERCwTMYGjY1xdfNAYnwC2i90YFtFJVILlHVENL1HXd9ptXR+kVtabapgawWu37lvED6EiVf8nH0aBDXZaioiU6qRsvEixlo4cJ6DxTSQ60gAkDuZnpGBQ0ePIS09g/VS8AOhaMLWbAdHVjpQidHU1ITFi5cwl5QEg42FsJ+OjRs34dr16zjS3IHsEqWRStP4x8+04sXLV2x1rqu37mKVxpwMg1i/BxfRnJVpMWGCwIatgzdjw9JyGlan7Mbq1AY4h5RjXWoaDh89zhghe/Ns0KeYDap++vv7g+bz8Gw4Ojiiob4BnZcuY//xNmQqi8rIvKqDJ0+zKfJkvi+ffo2c0nKhW5xG3varOBAAC90XYNb0GbCeNFklDlNZiRGTfQzegYk4fvI0G3YdHBzKDJtQcBJR62rYhC1nJzdBMAIDAjFvzjzMmMENpybBWOSziE3aIiDGj5+AosIi3Lp1C83nLqGkfOjWRU+2trFSgE3SunkH4YkZEqOLh1z3IF8b5BC5OExkbMy0n46pk6dosHEUXsvX4diJU4yNsLBwvWwE+AVg3lwpG95e3hhjZsbOmzjBHNVVVWhpacWx5nYUbR26jd3kPfJxXx8+/goZG7bqZKOfxWEiaFw8AcCLw+gRI7BocQiCIvJQu6uOGb+ouARkTMrk4hFyQRGFbB8/D4NKjHmz57B98+bOR3PzGcyf7wQ7Wzu2mMzn48ax38zNLREeFo6W1vNoPtuKwk2mG9dA0xPQ9X1z5S7cuHufBdHpunEbIWvTdBrdGMTBciLHxgw7e0EcRo8YCd/FIVgeUYjqGo6N9SUbtLMRVaKTjflz5+PAgQNwdXWDnZ29hA1LSys2wrb5TCuOHD+JHCOIiKXLpobav3FHNW7ee8BE/v4XT7CuaFOP2DCoOFDpQDMza+t2Y5KVFcaPHQfneU6YbisGYATcXdyQui4NdXX12Fi6idVFqUWaxCGp+JwgEMsiS9k+XjBoZqf34jC2j3cxPdw8mDjwjZkNDXvYhK3x4z5na0WQRxEdE4fHj5+g49JV7Nh9UOZeGcoIg3md9PWlCIpLhv2CpT0yPC8QBnELenCR9+/f48LFi6jdXc+WEOTZsLexw7Qp1sxzIHHwcHVHcmIy6nbXo3TzFgkb5FXyLAStqeg1G7t310vYmDhhIjIzs/DFl4/R3NqOLVUfZzyMrJLNCEtIk4ym5e2v79Og4iBmJCEpBePGfc4MOHL4CEyysAB5DTwAqSmpoC6uiIgo1pfNi8PKNaUIXbsd0VmHMM91qQQAAoP3JmIz9gjDq6lXhLpBSSjSU9Ph4OAIWkBm1PARTDimTJ7MhMJstBkWei1C15WrqGloRPYG042ipU+IolOzsXR1HOYuXgHLuQv1ioXYZgO1nZCsnQ2zkZw40PwIYiMyKtpgbJAHm5aaJmJjOGODetVodTJiY+nSANy8dRs7auuRVbLloyxEotNEbMzTz0a/iQMP2vPnz5GZmw/rabYso1OrMwlFSkqKShwiZQBQe0JYQqVQhSAhIGGgMffuvlEywXD1WsnEgZ+HQV6F7dRpTByoYerO3btY6OOLwNBViEpK+yiNrk8syKNwD1wJG/fFMqHg7TQYn7/++qtWNpISdIuDPja8A9fJ2PBYFKGdjREjQGxQG5XnosVYFroSUUmpQ46NYGJjuXY2+l0cxNC9ePEC6RlZsLOfgdCQkB6LA3kT/uG58I/ZKQgG717Sp9vieIweMYoJCM3eW51Qjnnz3eDk6oGohJQhZ3B9QhGRnAHf8Gg4+HBTfcX2GcxtMRtBy1dwbETKvUomDok1AgfEhuvCZXrZIA+SOFGz4Yr5ChuyfBGRkgnf8Bg4+gSyQmRAxUEM34sX3zMAoqJjZJ6Dj38cQlMaJQD4hWVjSWQ520eNl7HrKtj8DFonwm76PIwZPRappWeQUrwHyfkfZ3VBX6bvy29rs/LRcPCoKjiK8QTO+fmXX1RsxMrY8PKLlrGxNCRDYMPL0xuxqcTGEcjZ2Kuw0cNxMfFZ+dhaXcfY+NDRtGycgzjzd7f9088/MwCKSzZoASBGDkAoB4CHqxuyc3KxaVs11m/cihNnLyKrYD3is/JkStiXDDOUz9lmJMFReHEo2bBRxobnkkgZG0uC05g4uLm4svVENpVVY33pVpw824msgiLEZypsfCjXZdV1ONt+Ed8+f9Fd1pb93mdxKFpfgs1l2yBukCTXUdNzIAAWR+0EiQM/0IoC54weZQY/P3/sa2xEx5X7KK9tVESih6WDPmD44Ch3ByE4Ci8O64s39IiNxUHr4BtTCxIHTTa8PL3QuLcR7V23UFbzcfZG6LNjf/yWW1qG/cdO4s6DR2zBY5kaaOz4AHEoRknpZvCDoKgOKYiDqreC9hEAi+L2ScSB+qxZ4BxVcBSanGNvNwPl28rRdr4dW7bvVITCAEJBgPHBUSjOSH//CeJABcfWcgSHcAPkJGy4L2eNj7TPd3kSY0MsDsTG1KnqwDkcG9NRVrYNLefasLFsaEV07w+R4K+5s57E9wp+/uWfWtHotTjQVd6+fYfcvHz4+i4RBrr4h+UgYGUe5zmoAFiTc0gAQOw5EAB8cJQ7d+4yUeED59BYe2dnFxYc5c6Dr1C775gSOKePQnHk9Fl89+IlKyUGKnDO23fvkJdXIGUjNFvGRkTidmZ3Kjg0xYFn48EDUeCcTz4BseHk5ILTp0/jxt0nqGw4pET07iMbB06cZvN1KD/rCpzTJ3GgC7acO4eSjaXgh8gGri5mLcshSfWwt3NgpQOJA3kTvOfAB84hcaAxDpLAOVbq4ChRUVEwGzWa9WNPnmyNTZs2ob39Ag6ebEP2ho9/1CSv7H35ZIFzaE7GH39gsALnnGs7L2HDLyRLYMPOdpaMDTd3TyFwjpiNhQu4wDlTRIFzYqJjGBs08I5no6W1FfuOtiCrRGnQ1scMzeh98eo1/vvf//YocM4HiQPVE/k2Bxot5+4VAr8Va9lYBTJeVHojkkrOM3EIWxnLhlxT8JzJVpPlwVFUgXP8lvrJAufwwVFmOsxBaOhKdHZdw96mA8gpViZsEQwnWtqY0Y0lcA6Jg5gNmoPh7hUK/xXxrFDQZCN45Ro1G5PkbHyuCpyzZPFSVOsInDNLxcb5C13YtbsBGYVKKD5i41hzC4uk9fd//oPeBs4xmDjQHAwSCJqwRV4BAbBkxTrE5Z1CcGwp9h88zACgJcQmTJgoxMboaeAcWs5cHBxl0qTJSE5Kxq27D3G+6x5Ktg2tSTmnz51nRjfGwDma4jDFilsjhGKcECMcGymMjRVrd6Bp/0HGBgXOoaHRfFAlGuPAgirJAue4w1IVOMfLyxv1u+sZG2YjR7Fr82xcvX4Xze23ULh5x5Bqwzpw/BSbtfnXX3/hQwLn9FkcKmtqJaWD3TQbJgocAFOYkWjfJAtL1NfvYcbnA+dYWU6WAEAQUOAcWXAUVeAcEhw+cI44OIrjLK76QhGfIyJjcPfuXZw+04IddR/nPIxNO2txvKUNNG/fmAPnVGmwQaNe6Z+qkeRFkDjQ98mWVqhvaGRs0GpTFFTJynKKjI2+BM6xs+FG9vJsXLl6DYeOHMPW6n0fpVAQG2cvdOL5y9foun7LIIFz+iwO1O5AMTYrK6uYsWkeBpUQcxxmC54DB4AlGxexZ+8+IXCOhYUVxMFRehc45xNR4BwuNqM4cM7n4z5HfFIaurouo+vaLWzeUWnSMJTurGWh7R89+QqlO3fBrpcTtPgJOgO9/D1jo0rKxlzHObCx5jwH8i6nWFkxNhobm0RsWErY6FXgHFVQpdWrKHBOHWvvoiop/dPwf56Njo5OtLZ3oXizabdfkSC0XOjEV998h6q9B+DsHyYbZs/bX9+nruXvP0gcSCDoj+ZhxMUnwdzCigkFlQz07zhzFisdaDLO9u0VQuAcch0Jjsg0CpxzTmvgnHWll/oUOCchPoEFR/mUTcoZg/BVEWhra8O9R8+w73g7ErKNP1gKTdU9036RBZ3dWFELW48lfTK6GIiBFgcVGgIbk6ZMk7BB4RLJc2hv78DOnVUCGxTYhrFBgXOKWj4gcM4COM93ZsJAQZUocE5KcgosJpqrJmyNwfIVQYyNKze/QN3BFpNggwqLlo5LePj4KSoamjBvafAHs9Gv4sCDQJ80KSclNU1oUR7+ySc4396B8vIdAgBqcVAB0MfAOeLgKFSFCQsNY+tYUg8JTQWn6ecEAz3DqBGjYGM7Ay3n2nHr9m3U7G1CYh+7gfS1CPflt4ScQmzYUY1zF7tw895DlGyvho2bfLKVOLP3dnuwxKE7NlrPndcqDoYMnENshAaHsp41YoNmGJNgWJhbyNg4f74dZdW7kGAkEbcScwpRWlGD1o4u3Lr/kAVdnu274oMFQczPgImDJgybNm9Fe0cnysrKBXGgMQ1UOkSl79MROOcYW+K8u8A5XINVIyuRHBzmC8uRUbsHTQUnAIqLS5CVlc1cTCYSYz6H2efmWOjrhz1NB1kf794jJ5C/aduAVj9oDHzx9iq0d13F1dt3UVi2E1NdfQ1qdDEAxiAO2tjQLDgowxIbOgPnZPcscA5jI7OJsTFj+iwpG8OHMzYKC4uQl5fHsUGrp2uwcf3OPVQ2NCFn48B2kcZnFwiCcPnGbWyqrMOsHsbWFNu8p9uDIg48DBQ459SpZkEcJk7kqhXaA+dUqSMnqRokg2I2MRFZuIgbccdHTiIA+DB8FGkrqbiVzewkj4KqNRS3k4TCxclFEAcqOZYtW44ZMx0weux4BsQ8d0/U72kEDeA5f7ETW3ZW94tQUNxM8hA6r91kDYq5m7bD2sWn3wRBDIexiQPPxsNH0nicfLWCQiOsyTshiY1BCxzTeiEUho8apmnV6+DYrR/MxqyZs9jS+cSGv/8yODjOhZkGG6/f/IhTZ1qwsZ9G767NzEPpzhrmPVKBUbStEtM9/QeEjUEXB20BWaMzKXCOCgBV4BwWG0MVOYk8BwIgKGYzEwFPn0CW6ec5eWNtQTNbJ2Lp6s1sHx+GjwSDBl+ROFDczmUrYlmpwS9TR0JRVFSEZcsCmWCMGD0WU6fZYsy4CRg1ZjzmurhjbWISaAWk020dyN/8YcN149JzQfXEKzfv4MLla8jcUKYzoK44Mxt621TEgRY4Js+BC5xzTCIOLDaGKnCOIA5xWxkbfMFBHiSFcaQ1RAKitvSODWcXFOQXYMWKIMbGSLNxWtn49rvv0Hj0JLI2fNjCMnEZuSitqMW5zsusjSm7dJtB2pd6y86gigM1SKoD56iDo0RnUuQkjcA5SdUsoA7FYSRxoCXxg2O3MACoxKBMT+IQGLGe7aMFYmift99aNgpP7E7ygkFjKZaFcVHA+WXq2CrZjnNA4kAlRl3dbhYJ3HqqDdtH15xqY491Gdl49foH5v6XbK9CfFb3DZoU53BLVR1bBZgMn1q0CZPmew1IKaALDGMVB2JDEjjH2poTBwqck60KnKMa50CxMcjbpBCNJA4Tx09ESFyZhI05c9yxPKpEDxsHJIJBbPCrlInZmOM4FyQOxEZNTS2Cg0IwbZqtVjYOnzqLvM3loKpid21OxMbGihq0dV7GsbNtbF3I/qxO6uJBvH9QxYGCo0gD53DBUSgwijxwTo0aAEEcuNJBLA7LI4oZAF5eSwTB8AvLAnV9+Szh1qsMjqsQBCMotpwdJ14le/5cJ2ZsgoKthKxaJZsXDA93D2GV7OkOc9F49BTe/PwLaKn4LdV1iE3PEWCISs3CttoG3H7wCGfaO5GUvwGW8zwHVRDEABirOOgPnHOQC5zDi0MKBc5pFMSBCo6QNdsk4kAFx4qoDWyf2NMkNqgg4tlYHr1VYCM0fidjgzxOfgV1MRs0apdWySah4Nlwc3UTVsmeZj9TYOPUuQtYX16J2DQ1G7T8HzUqtl26gv3HmxGfsx5TnAemOilmQNf2oIoD1S+lgXP0BEdJrhUC5wieg8p1XLA0ThCC5ZGcOIgFwy80k0384r0Jd+8wBgC5mN4rsti55Fnw/0GR65mxxatk81AQDBRzw9PTi62EPGr0WCGj+0cmoKbxEL598RJ3H36BG3fu4+S5C8zoFt2s/ajLQP2931jFgdj48ccf2YK0K1dFsKha2gLnWFlOxWoWOGePRBxC15QjNvcYiwbPe5UrojbKBIMmBtJyAppsEAuLg7PlbERt1MsGxdzw8VnErXmqg41zFy+jpf0i6g8eQ1RaLqyMqLAQ8zbo4vDu3Tthzj7VKwmA7gLn8OJAriMBQO4kD8DySM51lIpDlgQAKkUcZjshTLQ8mWQl5LjtDABeLGiors+SVWwf72LSqsq0hL5YHMQJW1y6GZmFJSyqdGJGriAg4mOMYduYxUEeG0PNhp2jjzpwzjoKnFPPAudQtYI8B1rUOCbniISNFdGlcnEIz0FExgFBHAzChlv3bGSp2EgyYjaMThy6C5wzw3Jrp30AAA/iSURBVDVcaHMg11EGgMp1lIhDGCcOYneSXMHQ5AbJ0nUULZxavee7LJKIA4kE703Q4rjkUdDit9RApksc+EVK6HNJ8CpFHPhuiF58ysVBf+CcWV6JrM2BFweypbjgCOLFQeRpBoTnMsHgGy5JHBgbGssaEhtrco/CxSPgg9mISU4TCkS/kNVGy4YRigMBwAXO4SMn0RL4FBzFL4RrPCTPwdzcmvVMxKpCvvOeA+86iqHwD8tmngMvGFSt0AYA7aNVsvkqhHiVbJ9lyTIofAOTdYpDbEq6AIAiDr1QBNGhmuLABc5xBwXOmTaFi6pFA5d8l4RgaVguPvtsFBMHYoN6JjTZoK5v6uIWs0FrjdA+ng0SB59laxkvfE8WvyiNLjYWB2f2ig1FHERG1rf52++/4wIFztEIjjLd1k4SOYkC58xxcISVuQXzHCaMt8TavOOIzTmGMeMmsWqFw2x38K6jGAD/8BzWIMkDsNA3Ej4B8kVvNcWBoHD1DGQrIfOCwVc16NPVJ1oRB33G/cDf3r//AxcudmJXvWbgHFtZ4JzZsxzZZD6qVkwYb8XYiNFgg+/6FrOhKQ7ExqJl8drFIbFGKDh4NqhblGeD2rB4PryX6S44FHHoAxjdBc6ZrZptSZ4DRemm6FturguYMJDnYGFlz4xDJcbshZFCOwQtg0+lg4d/EtvHicMaDgAnrsuTjO3tH8v28camfUuCUtlip/w+WqkoLuco4gtPY6ajh15x2F5RybwHxXPoAwwapyQmrxOCKtGIVj6oEh84h+brEAMkDrR0vct8Z7i6qNmwtZunlY2AVfmMDeoip/OZOAQmcGyIljXkPU2eA2KD9tEK6vw+YoPG53THBonD9p0cG0q1QsPQ3X3VFRyFAKAZnZw4cADMnzOPGZUMaz7Bgo1bCI/nQqvRvvnuwQhPqJS4kwQAb+x5orUL+WXSeWMTAItXpEgAoH3LVhVg6eoNetscqusa2JRjGmGpiEN3Fu/577rYcJgxk2PDzIxFYnN1csG82XNFbFgiMDwLYjbsZ7ohLGFnj9jgeRGz4bs8UcYGeSI0AE9fe1TlrnrGRsPefVDEoee2lx0pDo5Cmf0ztmbgJ6ASw9XJWWhQpN9o1CQBQWBQ9YP22Ux3ZyVGXO5x2NpzsJA4OM5x5koHkThoByAJvrH1QulA4kAAUImhC4DE7EJm/MamAwgNDVfEQWZVw+zQxwZ5lXMdZwviQGxQQUIeheVEcxkbFlZ2bF9v2FgUGM9WMxMLBlVh9bERn1nA2Gg6cJCxoYiDYVhgMzt37a5ns+Zo6jVlfur6pAYq2qaGSw4AJ/ad9o0dPRrz5jjDPzBaWFDEwSmACQb1bzvO92HH8m4i7ZvvxrVI075FgQm9AmBzRQ2OnWxG44FDCAkNZ+sRGKPnEJtRgItXbxjIMsZxGWKDwhvoYsNp7nxWFSUu6H+cmRnmz3WB37IoFjWe9knYcAmQsTFvQTBrfCQ2fALWyDwHv9AsneJQuqMaR0+cxj4RG8YoDgFRiTh8ulWnUQ2ynoPOqxvoh31NTXBf4Mkmx5BhafEOmoZL3gPvOdB+aqugcQnWk7iGy2l2c0CTdaj1mZaxo2NoMAwZlsXXEAFA3gQthMuXDtSDQaPqKOaGNs8hrbAU12/eRkpGttH1ViTmlbBRnAZKfqO+jDY2aCk6TTaokZsau2lBIuJgmu0crCI2kuqEffrYELc5kGBQtC6KuaGNjZT8Ety4dQepmTkCG8YiDiHxaWzOUE+MahLiIH6R7Oxs+PguxuhRo5mRx6g+qfuLA8CV7ScA6J96Q2hAEw+FeCVke3tHVjrwq2SzaoVq7APtIwBIMLQBQOJA8wIS0zIFAAbLc7Ca74m09Ztx+/4jcVINue3i4mKtbFhMmMiqHm7OLhI2yBMlNmjRGWJlqWqV7NCketjZOTA2+CX0mTioPE1ig4I16WKDxIHYSErLEtgYTHGIWJeDts4rvebB5MRB/Ib3791HcEgYW9mHjEtCQdO0+Rbtz/7xiSAOPAC2NtPZSshslWzVRJrItEYkFrdxrmMPARhscbBxX4Kc0nI8ePxUnCTKtioFumfjH6yaShPwaJ1T4ocKEA9v1SrZqgl4PBtBCfVCNZQvTLoTB3HB4Rc6sIOg1mYXsWUBPgQIkxYH8Ys/fPAAK1euxtgxY4XSgUoMfmFT6hLjASC3k9Z5sLGexkoHcidplWzf4EzMsOMm18RkNGHh4lU6S4fBEAcHn0AUlVXiydffil9d2e4mBXSxQR4hccBXTakAoX0kGNN4NkKzsbbgDELWVmC63XTGi5gNW5uZsm5u3nMYSHGwdlmEdYWluHnvQTep0fOfPxpxEL8yrWnp4uyMieMnMEGg/nBq0CRxIOMLAEyZyoxN32mxU6qT2tvas320ShUNdPGJroO1tXxuhVocMgTXsT+qFU7+odi4cxeb5CV+R2W7bylAbFCwHF1sUGFCVY2pU6xFbEyC54JFsLfh2WgUsWE7aOIw0ysA2eQ9fvmkb4nRzVkfpTiI35lgKFpfDPOJE5k4jPl8Iqytbdjio9OsOXEgT4K5lK5usLOxY1A4u/rCOzADXgGJrE6qObdCEIdUw4vDwqBIlNXuwas3P4pfRdk2cAroYoMWBJqmKjhoaD81Zi9w84Cdqhrq7KJiY1kSq5JostGfnoOTXyiKt1fj6TffGTg15Jf76MVB/MrXr13H5rJy2NjPYgJAawbS/HxHB25I7gI3d9iqAKC2Cytzc9ZfTnVSTQB4ccgpWI+KqhpsLd/+QeMcFq9ag8o9+/HzAAS8FaeJss2lgMDGdA02VMO1aR6QjaodgovHYsHG2VB1VZMNXhx4NmhS3oe0OSwMpsKiAS9evh5Qcw0pcRCn7IsX36OoZAMsJnHuIy0RN8V6GuxUbQ4EAFVD+IFWmgDEZeTjeHMLktalY3VEFAsL2NtqxfLYZDbX/92/fxM/mrI9yClAbJRt36GTDap6EBtuzq6svUKTjdj0PBw7fVZggwbI9VYclkasZbEofvz5l0FLjSErDuIU//XtWxw4eAiePouZJ0HeBJUIJBDU/UUehCYA/BoNkWsTEREV3WNxCE/MwP4Tzfjzz7/Ej6BsG2kKqNlYgtHjJjA+eDb4UZi62IhSsdFTcQhek4o9h0/g7bt/G0VqKOKgYQY2pj8rC54LPTFy+HBWQlCDpi4AejJlOyY9H8fPtmncSflqaikgsOHp1SM2JLMydXRl0hiEw6dbQHEtje1PEYduLHKmuRlBQUGYNcsRHivkfdXaxGGSkxdolOLZC5e6ubrysymnAM/GTBqZq4UNbeJA64rSGpKnz3cY/asr4tBLEz377jmrC1KdkKoW4pWgMvKKcOHK9V5eUTn8Y0kB/WwUor3rmkm9qiIOH2CuH376GZV1Dais3cVEorVV9ySWD7iNcqoJpgDPRpWKjd319Sb3Foo4GMhk1HD1999/G+hqymU+phR4+/YtC5Jkau+kiIOpWUx5XiUFBigFFHEYoIRWbqOkgKmlgCIOpmYx5XmVFBigFFDEYYASWrmNkgKmlgKKOJiaxZTnVVJggFLA4OJwKXMYhg0T/3ug/rn0bV41eGgcoz7eo+GVcDA7zrMe6j3CT0BXNoYNy4b+YUaXkC15lmEYlqn/DNEdlE0Dp4Dc7pr202IvwX7iY7njsru0PeAr1HsOg5gjrUfJGJRzqu28obTPcOLwvB4eZEjNzMcysdRYOjO96hq80XUeRxbqThw0rsUZlQNnmC7BGUqWH9B3VWV6jXTnxEKcKXVnelboCOfrPg7oXhyk11IlhIpTnr0BTR4jvZmBxEGV6TSFgX9pjYysL9Mzw6muo++47sRB57lMNMRA8g+pfPZXCmjNjKqbSX/Tk+kldtNzXLfioPtcMXv9lRamdF3DiIPEcN2/vs6MC0BsIH3H9Ugcuq12qJ5VVWrw1SGxS8qeIbOeuar0u8eWrfAYJhcX8XPTVdl3wSWWHi+7JqtKqQRWxzndp6qxHqE7M8qfWM+xEsb0HNdDcRDbWP4c/B5Nm4irNpyNPRrqhaprdoW2qq6mJ6PvmvReHqhvoOtQVVt1Pw0+Zd45/7gG/jSIOOjNxFoeWOfxGq6dzuPomhreiPw2HEDaMrz4WHYP3gjsB+48Hh7u92FQu5sq40q8JDGsWn5nz6oWCPk1paJIj6H33cUvYOzbkkzd3cOK01F8rCpNDVSt4NNfkgHFt2PbUg5oF3eeWiC4AkBtV0B+DiTvL/9dek3ud0m1V3I+PQV3jJpH2YMbbEf/iYOm2g1TZzCpcdSNkWQs8Uuz4wQgNN65W3Hgjtd2L/U9OOjU31X3EF1bajz572yP6HgOBjVAqjPkHpFEkLQICn+iqX8yuOXpof21VJlD8J5EbEg40JdBuLTkxV37fWivlnuJ70E2FX9nF5Jem4mDxjGazEq+d3tN7pkkz87YEguQ7jcy9C/9Jw6SJ5UaU5JgkuOkX/QeJ86Q0tP0fOOB4BOb/y6CUACTA1r7M0jfR1KlYM+l7Xrqxlqt15Scxz+fnlcxlZ9kJZ++B5emq+4j9R0nzcC6ryH9hdmEbC9u7xJYkNqTz7wSu/OXk7yv9FmEe2i5LndNbe/FXYP3gPnn42/Xn58GEQep66TtcaUvrTVzaDuNMoyGMguH6ftNOEjbBvcszBjMkFJvRfMMXc+qBoOup87MHAD6S0pd1+TuLYZBfV3N5zKd71Lby55b4ll0c6xwMpdGMo+P/a7vN+ECWjfEttPmFWiepGZA/At3fzVfaha6v2Y37y8uQCTVWvH9DbdtGHFQNQLpVjXpS+vPHKKXk4Aj2s83+OlMIO5+vMJLzxQZT1sdUXqw7ro/M1Q26qm/XCxgbL/+TN2z9xc/p8ZDmdhXfe8rzTBSTvS9Jp2n1b6Sklt+BbEAyH5V2ZRGwug9TnWidnFQtxfV05gfEaPdX7OH7y96Ttk7GHCHgcSBnoh7MUlGod3sRYZJMpA+WKTvxmUQ7dfsQQbUaMNg19ZIWM5g0muJgdX9rKpnox4M0cAtvp9d+sxSsZJfU3UtEUjde2PSlDLub9rZkKd9DzMHvayKK6n3oCUdZQmj/Vl4u6ltqTpOZhO1p6lLHIS8IOOvu2tqeX/2nlr4FD+X7B0Ns8OA4sA9EEswSZ1K+mJ0lDxz6H+ZnlxT6xVU1QahvkbPJS7lVSdxkIrqlaJj9D2rHG7+KdTCwd9bDZ2u91eBI0o7Kfj8tU33U25HtcvNvZWWzKHvdbXZt4eZRv4s6kyvvqV+m7Br6Lgfd33N96Mr67um9vfXx6f6WQ2/ZXBxMPwjKldUUkBJgcFIAUUcBiPVlXsqKWACKaCIgwkYSXlEJQUGIwUUcRiMVFfuqaSACaSAIg4mYCTlEZUUGIwUUMRhMFJduaeSAiaQAoo4mICRlEdUUmAwUuD/AXMAGknrzf5oAAAAAElFTkSuQmCC;" vertex="1" parent="1">
          <mxGeometry x="190.5" y="360.5" width="263" height="104" as="geometry" />
        </mxCell>
        <mxCell id="Ez7FeFpJxv9Nc_yo7gzA-16" value="" style="endArrow=classic;startArrow=classic;html=1;entryX=0;entryY=1;entryDx=0;entryDy=0;entryPerimeter=0;shadow=1;" edge="1" parent="1" target="Ez7FeFpJxv9Nc_yo7gzA-24">
          <mxGeometry width="50" height="50" relative="1" as="geometry">
            <mxPoint x="180" y="170" as="sourcePoint" />
            <mxPoint x="280" y="80" as="targetPoint" />
          </mxGeometry>
        </mxCell>
        <mxCell id="Ez7FeFpJxv9Nc_yo7gzA-17" value="" style="endArrow=classic;startArrow=classic;html=1;exitX=1.064;exitY=0.062;exitDx=0;exitDy=0;exitPerimeter=0;shadow=1;" edge="1" parent="1" source="Ez7FeFpJxv9Nc_yo7gzA-7">
          <mxGeometry width="50" height="50" relative="1" as="geometry">
            <mxPoint x="300" y="170" as="sourcePoint" />
            <mxPoint x="400" y="80" as="targetPoint" />
          </mxGeometry>
        </mxCell>
        <mxCell id="Ez7FeFpJxv9Nc_yo7gzA-21" value="&#xa;&#xa;&#xa;&#xa;&#xa;&#xa;Network storage" style="group" vertex="1" connectable="0" parent="1">
          <mxGeometry x="60" y="370" width="108" height="85" as="geometry" />
        </mxCell>
        <mxCell id="Ez7FeFpJxv9Nc_yo7gzA-20" value="" style="shadow=0;dashed=0;html=1;labelPosition=center;verticalLabelPosition=bottom;verticalAlign=top;align=center;outlineConnect=0;shape=mxgraph.veeam.3d.physical_storage;" vertex="1" parent="Ez7FeFpJxv9Nc_yo7gzA-21">
          <mxGeometry y="25" width="108" height="60" as="geometry" />
        </mxCell>
        <mxCell id="Ez7FeFpJxv9Nc_yo7gzA-18" value="" style="shadow=0;dashed=0;html=1;labelPosition=center;verticalLabelPosition=bottom;verticalAlign=top;align=center;outlineConnect=0;shape=mxgraph.veeam.3d.physical_storage;" vertex="1" parent="Ez7FeFpJxv9Nc_yo7gzA-21">
          <mxGeometry width="108" height="60" as="geometry" />
        </mxCell>
        <mxCell id="Ez7FeFpJxv9Nc_yo7gzA-23" value="" style="shape=mxgraph.cisco.switches.layer_3_switch;html=1;pointerEvents=1;dashed=0;fillColor=#036897;strokeColor=#ffffff;strokeWidth=2;verticalLabelPosition=bottom;verticalAlign=top;align=center;outlineConnect=0;shadow=1;" vertex="1" parent="1">
          <mxGeometry x="400" y="20" width="64" height="64" as="geometry" />
        </mxCell>
        <mxCell id="Ez7FeFpJxv9Nc_yo7gzA-26" value="" style="edgeStyle=orthogonalEdgeStyle;rounded=0;orthogonalLoop=1;jettySize=auto;html=1;" edge="1" parent="1" source="Ez7FeFpJxv9Nc_yo7gzA-24" target="Ez7FeFpJxv9Nc_yo7gzA-23">
          <mxGeometry relative="1" as="geometry" />
        </mxCell>
        <mxCell id="Ez7FeFpJxv9Nc_yo7gzA-24" value="" style="shape=mxgraph.cisco.switches.layer_3_switch;html=1;pointerEvents=1;dashed=0;fillColor=#036897;strokeColor=#ffffff;strokeWidth=2;verticalLabelPosition=bottom;verticalAlign=top;align=center;outlineConnect=0;shadow=1;" vertex="1" parent="1">
          <mxGeometry x="290" y="20" width="64" height="64" as="geometry" />
        </mxCell>
        <mxCell id="Ez7FeFpJxv9Nc_yo7gzA-25" value="" style="endArrow=classic;startArrow=classic;html=1;shadow=1;" edge="1" parent="1">
          <mxGeometry width="50" height="50" relative="1" as="geometry">
            <mxPoint x="354" y="51.5" as="sourcePoint" />
            <mxPoint x="400" y="52" as="targetPoint" />
          </mxGeometry>
        </mxCell>
        <mxCell id="Ez7FeFpJxv9Nc_yo7gzA-30" value="" style="shape=mxgraph.cisco.routers.router;html=1;pointerEvents=1;dashed=0;fillColor=#036897;strokeColor=#ffffff;strokeWidth=2;verticalLabelPosition=bottom;verticalAlign=top;align=center;outlineConnect=0;shadow=1;" vertex="1" parent="1">
          <mxGeometry x="-20" y="306" width="50" height="34" as="geometry" />
        </mxCell>
        <mxCell id="Ez7FeFpJxv9Nc_yo7gzA-31" value="" style="endArrow=classic;startArrow=classic;html=1;fontColor=#00FF00;strokeColor=#00CC00;shadow=1;" edge="1" parent="1" source="Ez7FeFpJxv9Nc_yo7gzA-30">
          <mxGeometry width="50" height="50" relative="1" as="geometry">
            <mxPoint x="40" y="316" as="sourcePoint" />
            <mxPoint x="70" y="250" as="targetPoint" />
          </mxGeometry>
        </mxCell>
        <mxCell id="Ez7FeFpJxv9Nc_yo7gzA-32" value="" style="endArrow=classic;startArrow=classic;html=1;entryX=0.5;entryY=1;entryDx=0;entryDy=0;entryPerimeter=0;strokeColor=#00CC00;shadow=1;" edge="1" parent="1" target="Ez7FeFpJxv9Nc_yo7gzA-30">
          <mxGeometry width="50" height="50" relative="1" as="geometry">
            <mxPoint x="80" y="383.65999999999997" as="sourcePoint" />
            <mxPoint x="110" y="330.004" as="targetPoint" />
          </mxGeometry>
        </mxCell>
        <mxCell id="Ez7FeFpJxv9Nc_yo7gzA-33" value="" style="endArrow=classic;startArrow=classic;html=1;entryX=0.12;entryY=0.9;entryDx=0;entryDy=0;entryPerimeter=0;strokeColor=#00CC00;shadow=1;" edge="1" parent="1" target="Ez7FeFpJxv9Nc_yo7gzA-30">
          <mxGeometry width="50" height="50" relative="1" as="geometry">
            <mxPoint x="60" y="424.33" as="sourcePoint" />
            <mxPoint x="-10" y="400.67" as="targetPoint" />
          </mxGeometry>
        </mxCell>
        <mxCell id="Ez7FeFpJxv9Nc_yo7gzA-34" value="" style="endArrow=classic;startArrow=classic;html=1;entryX=0;entryY=0.5;entryDx=0;entryDy=0;exitX=0.12;exitY=0.1;exitDx=0;exitDy=0;exitPerimeter=0;labelBackgroundColor=#00CC00;strokeColor=#00CC00;shadow=1;" edge="1" parent="1" source="Ez7FeFpJxv9Nc_yo7gzA-30" target="Ez7FeFpJxv9Nc_yo7gzA-7">
          <mxGeometry width="50" height="50" relative="1" as="geometry">
            <mxPoint x="34" y="315.99999999999994" as="sourcePoint" />
            <mxPoint y="238.27000000000004" as="targetPoint" />
          </mxGeometry>
        </mxCell>
        <mxCell id="Ez7FeFpJxv9Nc_yo7gzA-35" value="" style="endArrow=classic;startArrow=classic;html=1;entryX=0;entryY=1;entryDx=0;entryDy=0;entryPerimeter=0;exitX=-0.026;exitY=0.125;exitDx=0;exitDy=0;exitPerimeter=0;shadow=1;" edge="1" parent="1" source="Ez7FeFpJxv9Nc_yo7gzA-9" target="Ez7FeFpJxv9Nc_yo7gzA-23">
          <mxGeometry width="50" height="50" relative="1" as="geometry">
            <mxPoint x="195.9760000000001" y="188.43200000000002" as="sourcePoint" />
            <mxPoint x="410" y="90" as="targetPoint" />
          </mxGeometry>
        </mxCell>
        <mxCell id="Ez7FeFpJxv9Nc_yo7gzA-36" value="" style="endArrow=classic;startArrow=classic;html=1;shadow=1;" edge="1" parent="1" target="Ez7FeFpJxv9Nc_yo7gzA-24">
          <mxGeometry width="50" height="50" relative="1" as="geometry">
            <mxPoint x="470" y="200" as="sourcePoint" />
            <mxPoint x="420" y="100" as="targetPoint" />
          </mxGeometry>
        </mxCell>
        <mxCell id="Ez7FeFpJxv9Nc_yo7gzA-37" value="&#xa;&#xa;&#xa;&#xa;&#xa;&#xa;Network storage" style="group" vertex="1" connectable="0" parent="1">
          <mxGeometry x="470" y="370" width="108" height="85" as="geometry" />
        </mxCell>
        <mxCell id="Ez7FeFpJxv9Nc_yo7gzA-38" value="" style="shadow=0;dashed=0;html=1;labelPosition=center;verticalLabelPosition=bottom;verticalAlign=top;align=center;outlineConnect=0;shape=mxgraph.veeam.3d.physical_storage;" vertex="1" parent="Ez7FeFpJxv9Nc_yo7gzA-37">
          <mxGeometry y="25" width="108" height="60" as="geometry" />
        </mxCell>
        <mxCell id="Ez7FeFpJxv9Nc_yo7gzA-39" value="" style="shadow=0;dashed=0;html=1;labelPosition=center;verticalLabelPosition=bottom;verticalAlign=top;align=center;outlineConnect=0;shape=mxgraph.veeam.3d.physical_storage;" vertex="1" parent="Ez7FeFpJxv9Nc_yo7gzA-37">
          <mxGeometry width="108" height="60" as="geometry" />
        </mxCell>
        <mxCell id="Ez7FeFpJxv9Nc_yo7gzA-40" value="&lt;b&gt;&lt;font color=&quot;#cc0066&quot;&gt;FC network&lt;/font&gt;&lt;/b&gt;" style="text;html=1;strokeColor=none;fillColor=none;align=center;verticalAlign=middle;whiteSpace=wrap;rounded=0;" vertex="1" parent="1">
          <mxGeometry x="425" y="313" width="80" height="20" as="geometry" />
        </mxCell>
        <mxCell id="Ez7FeFpJxv9Nc_yo7gzA-42" value="&lt;b&gt;&lt;font color=&quot;#00ff00&quot;&gt;10 Gb network&lt;/font&gt;&lt;/b&gt;" style="text;html=1;strokeColor=none;fillColor=none;align=center;verticalAlign=middle;whiteSpace=wrap;rounded=0;" vertex="1" parent="1">
          <mxGeometry x="30" y="313" width="90" height="20" as="geometry" />
        </mxCell>
        <mxCell id="Ez7FeFpJxv9Nc_yo7gzA-43" value="" style="endArrow=classic;startArrow=classic;html=1;fontColor=#00FF00;strokeColor=#CC0066;shadow=1;" edge="1" parent="1" target="Ez7FeFpJxv9Nc_yo7gzA-9">
          <mxGeometry width="50" height="50" relative="1" as="geometry">
            <mxPoint x="499.0669863013699" y="376" as="sourcePoint" />
            <mxPoint x="548.9300000000001" y="320" as="targetPoint" />
          </mxGeometry>
        </mxCell>
        <mxCell id="Ez7FeFpJxv9Nc_yo7gzA-44" value="" style="endArrow=classic;startArrow=classic;html=1;fontColor=#FF0080;strokeColor=#FF0080;shadow=1;" edge="1" parent="1">
          <mxGeometry width="50" height="50" relative="1" as="geometry">
            <mxPoint x="560" y="376" as="sourcePoint" />
            <mxPoint x="542.0692388212539" y="309.5" as="targetPoint" />
          </mxGeometry>
        </mxCell>
        <mxCell id="Ez7FeFpJxv9Nc_yo7gzA-46" value="&lt;b&gt;&lt;font color=&quot;#000000&quot;&gt;1 Gb network&lt;/font&gt;&lt;/b&gt;" style="text;html=1;strokeColor=none;fillColor=none;align=center;verticalAlign=middle;whiteSpace=wrap;rounded=0;fontColor=#FF0080;" vertex="1" parent="1">
          <mxGeometry x="203" y="279" width="87" height="20" as="geometry" />
        </mxCell>
        <mxCell id="Ez7FeFpJxv9Nc_yo7gzA-47" value="" style="endArrow=classic;startArrow=classic;html=1;exitX=0.179;exitY=0.011;exitDx=0;exitDy=0;exitPerimeter=0;entryX=0.12;entryY=0.9;entryDx=0;entryDy=0;entryPerimeter=0;shadow=1;" edge="1" parent="1" source="Ez7FeFpJxv9Nc_yo7gzA-13" target="Ez7FeFpJxv9Nc_yo7gzA-48">
          <mxGeometry width="50" height="50" relative="1" as="geometry">
            <mxPoint x="195.9760000000001" y="188.43200000000002" as="sourcePoint" />
            <mxPoint x="290" y="190" as="targetPoint" />
          </mxGeometry>
        </mxCell>
        <mxCell id="Ez7FeFpJxv9Nc_yo7gzA-48" value="" style="shape=mxgraph.cisco.routers.router;html=1;pointerEvents=1;dashed=0;fillColor=#036897;strokeColor=#ffffff;strokeWidth=2;verticalLabelPosition=bottom;verticalAlign=top;align=center;outlineConnect=0;shadow=1;" vertex="1" parent="1">
          <mxGeometry x="297" y="272" width="50" height="34" as="geometry" />
        </mxCell>
        <mxCell id="Ez7FeFpJxv9Nc_yo7gzA-49" value="" style="endArrow=classic;startArrow=classic;html=1;exitX=0.179;exitY=0.011;exitDx=0;exitDy=0;exitPerimeter=0;shadow=1;" edge="1" parent="1" target="Ez7FeFpJxv9Nc_yo7gzA-48">
          <mxGeometry width="50" height="50" relative="1" as="geometry">
            <mxPoint x="388.0770000000002" y="365.044" as="sourcePoint" />
            <mxPoint x="453.5" y="306" as="targetPoint" />
          </mxGeometry>
        </mxCell>
        <mxCell id="Ez7FeFpJxv9Nc_yo7gzA-50" value="" style="endArrow=classic;startArrow=classic;html=1;exitX=1.064;exitY=0.062;exitDx=0;exitDy=0;exitPerimeter=0;entryX=0;entryY=1;entryDx=0;entryDy=0;entryPerimeter=0;shadow=1;" edge="1" parent="1" target="Ez7FeFpJxv9Nc_yo7gzA-24">
          <mxGeometry width="50" height="50" relative="1" as="geometry">
            <mxPoint x="317.9960000000001" y="272.002" as="sourcePoint" />
            <mxPoint x="532.02" y="173.57" as="targetPoint" />
          </mxGeometry>
        </mxCell>
        <mxCell id="Ez7FeFpJxv9Nc_yo7gzA-51" value="" style="endArrow=classic;startArrow=classic;html=1;shadow=1;" edge="1" parent="1" source="Ez7FeFpJxv9Nc_yo7gzA-48" target="Ez7FeFpJxv9Nc_yo7gzA-23">
          <mxGeometry width="50" height="50" relative="1" as="geometry">
            <mxPoint x="327.9960000000001" y="282.00199999999995" as="sourcePoint" />
            <mxPoint x="300" y="94" as="targetPoint" />
          </mxGeometry>
        </mxCell>
        <mxCell id="Ez7FeFpJxv9Nc_yo7gzA-52" value="&lt;b&gt;&lt;font color=&quot;#000000&quot;&gt;1 Gb network&lt;/font&gt;&lt;/b&gt;" style="text;html=1;strokeColor=none;fillColor=none;align=center;verticalAlign=middle;whiteSpace=wrap;rounded=0;fontColor=#FF0080;" vertex="1" parent="1">
          <mxGeometry x="464" y="42" width="87" height="20" as="geometry" />
        </mxCell>
        <mxCell id="Ez7FeFpJxv9Nc_yo7gzA-53" value="" style="endArrow=none;dashed=1;html=1;dashPattern=1 3;strokeWidth=2;labelBackgroundColor=#00CC00;fontColor=#FF0080;shadow=1;" edge="1" parent="1">
          <mxGeometry width="50" height="50" relative="1" as="geometry">
            <mxPoint x="590" y="480" as="sourcePoint" />
            <mxPoint x="590" y="20" as="targetPoint" />
          </mxGeometry>
        </mxCell>
        <mxCell id="Ez7FeFpJxv9Nc_yo7gzA-54" value="" style="endArrow=none;dashed=1;html=1;dashPattern=1 3;strokeWidth=2;labelBackgroundColor=#00CC00;fontColor=#FF0080;shadow=1;" edge="1" parent="1">
          <mxGeometry width="50" height="50" relative="1" as="geometry">
            <mxPoint x="-30" y="480" as="sourcePoint" />
            <mxPoint x="-30" y="20" as="targetPoint" />
          </mxGeometry>
        </mxCell>
        <mxCell id="Ez7FeFpJxv9Nc_yo7gzA-55" value="" style="endArrow=none;dashed=1;html=1;dashPattern=1 3;strokeWidth=2;labelBackgroundColor=#00CC00;fontColor=#FF0080;shadow=1;" edge="1" parent="1">
          <mxGeometry width="50" height="50" relative="1" as="geometry">
            <mxPoint x="-30" y="480" as="sourcePoint" />
            <mxPoint x="590" y="480" as="targetPoint" />
          </mxGeometry>
        </mxCell>
        <mxCell id="Ez7FeFpJxv9Nc_yo7gzA-56" value="" style="endArrow=none;dashed=1;html=1;dashPattern=1 3;strokeWidth=2;labelBackgroundColor=#00CC00;fontColor=#FF0080;shadow=1;" edge="1" parent="1">
          <mxGeometry width="50" height="50" relative="1" as="geometry">
            <mxPoint x="-30" y="20" as="sourcePoint" />
            <mxPoint x="590" y="20" as="targetPoint" />
          </mxGeometry>
        </mxCell>
        <mxCell id="Ez7FeFpJxv9Nc_yo7gzA-57" value="&lt;b&gt;&lt;font color=&quot;#000000&quot; style=&quot;font-size: 14px&quot;&gt;Server area&lt;/font&gt;&lt;/b&gt;" style="text;html=1;strokeColor=none;fillColor=none;align=center;verticalAlign=middle;whiteSpace=wrap;rounded=0;fontColor=#FF0080;shadow=1;" vertex="1" parent="1">
          <mxGeometry x="-10" y="42" width="110" height="88" as="geometry" />
        </mxCell>
        <mxCell id="Ez7FeFpJxv9Nc_yo7gzA-58" value="" style="endArrow=none;dashed=1;html=1;labelBackgroundColor=#00CC00;strokeColor=#CC0066;fontColor=#FF0080;shadow=1;" edge="1" parent="1">
          <mxGeometry width="50" height="50" relative="1" as="geometry">
            <mxPoint x="600" y="480" as="sourcePoint" />
            <mxPoint x="600" y="20" as="targetPoint" />
          </mxGeometry>
        </mxCell>
        <mxCell id="Ez7FeFpJxv9Nc_yo7gzA-59" value="" style="shape=mxgraph.cisco.routers.router;html=1;pointerEvents=1;dashed=0;fillColor=#036897;strokeColor=#ffffff;strokeWidth=2;verticalLabelPosition=bottom;verticalAlign=top;align=center;outlineConnect=0;shadow=1;" vertex="1" parent="1">
          <mxGeometry x="640" y="84" width="50" height="34" as="geometry" />
        </mxCell>
        <mxCell id="Ez7FeFpJxv9Nc_yo7gzA-61" value="" style="endArrow=classic;startArrow=classic;html=1;shadow=1;" edge="1" parent="1" source="Ez7FeFpJxv9Nc_yo7gzA-59" target="Ez7FeFpJxv9Nc_yo7gzA-23">
          <mxGeometry width="50" height="50" relative="1" as="geometry">
            <mxPoint x="339.89029535864984" y="282" as="sourcePoint" />
            <mxPoint x="427.1476793248944" y="94" as="targetPoint" />
          </mxGeometry>
        </mxCell>
        <mxCell id="Ez7FeFpJxv9Nc_yo7gzA-62" value="" style="endArrow=classic;startArrow=classic;html=1;entryX=0.95;entryY=0.94;entryDx=0;entryDy=0;entryPerimeter=0;exitX=0;exitY=0.5;exitDx=0;exitDy=0;exitPerimeter=0;shadow=1;" edge="1" parent="1" source="Ez7FeFpJxv9Nc_yo7gzA-59" target="Ez7FeFpJxv9Nc_yo7gzA-24">
          <mxGeometry width="50" height="50" relative="1" as="geometry">
            <mxPoint x="650" y="105.74248927038627" as="sourcePoint" />
            <mxPoint x="474" y="68.72961373390558" as="targetPoint" />
          </mxGeometry>
        </mxCell>
        <mxCell id="Ez7FeFpJxv9Nc_yo7gzA-63" value="" style="endArrow=classic;startArrow=classic;html=1;entryX=0.25;entryY=0;entryDx=0;entryDy=0;exitX=0.5;exitY=1;exitDx=0;exitDy=0;exitPerimeter=0;shadow=1;" edge="1" parent="1" source="Ez7FeFpJxv9Nc_yo7gzA-59" target="Ez7FeFpJxv9Nc_yo7gzA-11">
          <mxGeometry width="50" height="50" relative="1" as="geometry">
            <mxPoint x="650" y="120" as="sourcePoint" />
            <mxPoint x="474" y="68.72961373390558" as="targetPoint" />
          </mxGeometry>
        </mxCell>
        <mxCell id="Ez7FeFpJxv9Nc_yo7gzA-64" value="" style="endArrow=classic;startArrow=classic;html=1;entryX=0.09;entryY=0.021;entryDx=0;entryDy=0;entryPerimeter=0;shadow=1;" edge="1" parent="1" target="Ez7FeFpJxv9Nc_yo7gzA-12">
          <mxGeometry width="50" height="50" relative="1" as="geometry">
            <mxPoint x="660" y="115.74248927038627" as="sourcePoint" />
            <mxPoint x="484" y="78.72961373390558" as="targetPoint" />
          </mxGeometry>
        </mxCell>
        <mxCell id="Ez7FeFpJxv9Nc_yo7gzA-65" value="" style="endArrow=none;dashed=1;html=1;labelBackgroundColor=#00CC00;strokeColor=#CC0066;fontColor=#FF0080;shadow=1;" edge="1" parent="1">
          <mxGeometry width="50" height="50" relative="1" as="geometry">
            <mxPoint x="825" y="480" as="sourcePoint" />
            <mxPoint x="825" y="20" as="targetPoint" />
          </mxGeometry>
        </mxCell>
        <mxCell id="Ez7FeFpJxv9Nc_yo7gzA-66" value="" style="endArrow=none;dashed=1;html=1;labelBackgroundColor=#00CC00;strokeColor=#CC0066;fontColor=#FF0080;shadow=1;" edge="1" parent="1">
          <mxGeometry width="50" height="50" relative="1" as="geometry">
            <mxPoint x="600" y="480" as="sourcePoint" />
            <mxPoint x="820" y="480" as="targetPoint" />
          </mxGeometry>
        </mxCell>
        <mxCell id="Ez7FeFpJxv9Nc_yo7gzA-67" value="" style="endArrow=none;dashed=1;html=1;labelBackgroundColor=#00CC00;strokeColor=#CC0066;fontColor=#FF0080;shadow=1;" edge="1" parent="1">
          <mxGeometry width="50" height="50" relative="1" as="geometry">
            <mxPoint x="605" y="20" as="sourcePoint" />
            <mxPoint x="825" y="20" as="targetPoint" />
          </mxGeometry>
        </mxCell>
        <mxCell id="Ez7FeFpJxv9Nc_yo7gzA-69" value="&lt;b&gt;&lt;font color=&quot;#000000&quot; style=&quot;font-size: 14px&quot;&gt;Office area&lt;/font&gt;&lt;/b&gt;" style="text;html=1;strokeColor=none;fillColor=none;align=center;verticalAlign=middle;whiteSpace=wrap;rounded=0;fontColor=#FF0080;glass=0;shadow=1;" vertex="1" parent="1">
          <mxGeometry x="715" y="42" width="110" height="88" as="geometry" />
        </mxCell>
      </root>
    </mxGraphModel>
  </diagram>
</mxfile>
